<svg xmlns="http://www.w3.org/2000/svg" viewBox="0 0 484 155"><defs><style>.cls-1{fill:#fff;}.cls-2{fill:#fe3f3f;}.cls-3{fill:#fe4040;}</style></defs><title>Asset 14</title><g id="Layer_2" data-name="Layer 2"><g id="Layer_1-2" data-name="Layer 1"><rect class="cls-1" width="484" height="155"/><path class="cls-2" d="M243.77,77.43q0-10.4,0-20.78c0-2.86.37-3.28,3.13-3.27,5.61,0,11.23-.08,16.83.16,9.27.39,14,5.19,14.57,14.39a17.2,17.2,0,0,1-2.65,10.93c-.47.69-.65,1,.16,1.7,4.56,3.75,4.56,8.65,3.13,13.73-1.38,4.89-5.46,6.42-9.93,7-7.58,1-15.22.33-22.83.46-2.06,0-2.43-1.34-2.42-3.06C243.79,91.6,243.77,84.51,243.77,77.43Zm16.61-2.85v0h2.4c1.68,0,3.13-.66,3.37-2.41.31-2.14,1.07-4.8-1.19-6.14-2.45-1.45-5.53-1.29-8.15-.41-2.1.7-.79,3.08-1.08,4.7a15,15,0,0,0,0,1.9c-.06,1.72.82,2.46,2.5,2.38C258.94,74.55,259.66,74.58,260.38,74.58Zm.35,17.25v0c1,0,1.92,0,2.87,0,2.09,0,3.27-1,3.31-3.18,0-2.61-.7-3.76-3-3.93-2.07-.16-4.15-.09-6.23-.06a1.81,1.81,0,0,0-1.94,1.69c-.84,4.55,0,5.52,4.55,5.52Z"/><path class="cls-3" d="M283.81,81.09c.12-4.37-.16-9.63.23-14.88.64-8.51,4.24-12.55,12.68-13.87a27.4,27.4,0,0,1,10.52.41c6,1.41,9.36,5.41,10.13,11.58.58,4.68.35,9.38.38,14.08,0,6.6,0,13.21,0,19.82,0,3-.54,3.51-3.46,3.53h-6c-1.67,0-2.53-.77-2.5-2.48s0-3.5,0-5.25c0-1.56-.58-2.42-2.23-2.41H298c-1.62,0-2.3.86-2.29,2.4,0,1.75,0,3.51,0,5.26s-.78,2.49-2.46,2.48h-5.53c-3.5,0-3.94-.44-3.94-4C283.81,92.48,283.81,87.22,283.81,81.09Zm22-8h0c0-1.35,0-2.7,0-4-.13-2.88-1.4-3.91-4.79-4-3.56-.06-5,1-5.19,3.83-.12,1.66,0,3.34,0,5,0,5.78,0,5.78,5.92,5.77,3.9,0,4.12-.22,4.13-4Z"/><path class="cls-3" d="M375.54,69.73c3.4-4.69,6.88-9.34,10.18-14.1a4.89,4.89,0,0,1,4.6-2.35c2.73.1,5.46,0,8.18,0,.86,0,1.86-.12,2.34.84s-.25,1.68-.74,2.36c-4.15,5.76-8.27,11.54-12.53,17.21a2.77,2.77,0,0,0-.06,3.78c4.58,6.9,9.07,13.87,13.57,20.83.5.77,1.38,1.55.82,2.58s-1.63.84-2.59.84c-2.8,0-5.61-.05-8.41,0A4.11,4.11,0,0,1,387,99.61c-2.32-3.71-4.81-7.33-7.13-11-.94-1.51-1.33-1.81-2.79-.24-2.52,2.72-2.1,5.84-2.12,9,0,4.33-.13,4.46-4.39,4.46h-4.09c-3.21,0-3.62-.39-3.63-3.55q0-16.71,0-33.43c0-2.86,0-5.73,0-8.59,0-2,.78-3,2.85-2.9s4,0,6,0c2.81,0,3.23.42,3.25,3.16,0,3.82,0,7.64,0,11.46,0,.54.08,1.08.12,1.62Z"/><path class="cls-2" d="M164.25,77.56c0-3.26-.06-6.53,0-9.79.19-9.1,5.4-14.69,14.54-15.58a26.19,26.19,0,0,1,8.6.51c6.51,1.51,10.59,5.79,11.21,13.21A118.79,118.79,0,0,1,198.47,90c-.88,7.29-5.34,11.52-12.64,12.67a27.75,27.75,0,0,1-8.63,0c-7.92-1.31-12.58-6.56-12.91-14.57-.14-3.5,0-7,0-10.51Zm12,0h-.07V84.9c0,.4,0,.8.06,1.19.3,3.37,1.75,4.8,5,4.89,3.49.09,5.31-1.18,5.52-4.53a138.39,138.39,0,0,0,0-17.87c-.22-3.35-2-4.62-5.52-4.55-3.17.08-4.77,1.56-4.94,4.9C176.16,71.79,176.28,74.65,176.28,77.51Z"/><path class="cls-3" d="M158,77.53c0,7.09-.05,14.17,0,21.26,0,2.16-.81,3.07-3,3-2-.07-4-.08-6,0-2.19.08-3-.94-3-3,.06-3.11-.06-6.21,0-9.32.06-2.07-.85-2.9-2.87-2.82-1.68.07-3.37,0-5.05,0-2.07-.06-2.88.91-2.83,2.92.08,3.1-.06,6.21,0,9.31.08,2.21-.9,3-3,2.94-1.68-.07-3.36,0-5.05,0-3.51,0-3.88-.35-3.88-3.78q0-19.35,0-38.7c0-1.19,0-2.39,0-3.58a2.06,2.06,0,0,1,2.36-2.33c2.24,0,4.49.06,6.73,0,2-.07,2.89.75,2.85,2.83-.09,5.09,0,10.19,0,15.28,0,2.88.33,3.26,3.14,3.22,8.84-.1,7.43,1.25,7.54-7.37,0-3.67.07-7.33,0-11,0-2.13.82-3.08,3-3,2,.09,4,.09,6,0,2.16-.11,3,.72,3,2.92C158,63.35,158,70.44,158,77.53Z"/><path class="cls-2" d="M98.57,102.76c-4-.11-9-1.12-12.75-5.21A16,16,0,0,1,82,88.71c-.29-1.93.43-3,2.43-3.35A58.85,58.85,0,0,0,90.73,84c2-.57,2.8.08,3.2,2a6.26,6.26,0,0,0,9.73,3.88c2-1.3,2.2-3.07.35-4.67a15.53,15.53,0,0,0-4.67-2.39A62.68,62.68,0,0,1,90.79,79c-5.87-3.4-8.55-8.91-7.3-15,1.29-6.28,6-10.46,12.57-11.45a24.11,24.11,0,0,1,12.07,1.07c5.62,2.09,8.68,6.25,9.59,12.09.29,1.87-.37,2.86-2.25,3.22-2.12.39-4.24.84-6.32,1.41s-2.91,0-3.47-2a5.81,5.81,0,0,0-7.83-3.76c-2.36,1-2.7,3.06-.68,4.59a22.5,22.5,0,0,0,5.36,2.65,46,46,0,0,1,9.84,4.92c8.58,6.23,8.16,17.48-.86,23.14C108.42,101.77,104.43,102.76,98.57,102.76Z"/><path class="cls-2" d="M205.08,77.37q0-10.38,0-20.76c0-2.9.3-3.28,3.1-3.22,6.64.14,13.32-.65,19.91.51S238,58.4,239.15,65a27.41,27.41,0,0,1-.38,11.61c-1.59,6.11-6.22,9.34-14,9.8a44.58,44.58,0,0,1-5,0c-2.11-.11-2.89.88-2.86,2.85.05,3.1-.07,6.21,0,9.31.08,2.23-.76,3.26-3.07,3.12-1.76-.1-3.53,0-5.29,0-3.15,0-3.48-.32-3.49-3.38Q205.07,87.88,205.08,77.37Zm16.55-2.79h1.19c3.73,0,4.83-1.07,4.87-4.56s-1-4.65-4.67-4.79c-1.2,0-2.4,0-3.6,0-1.51,0-2.66.65-2.46,2.21.32,2.37-1.33,5.14,1.33,7,.28.2.78.1,1.18.11C220.19,74.59,220.91,74.58,221.63,74.58Z"/><path class="cls-2" d="M323.58,77.56c0-3.26-.06-6.53,0-9.79.19-9.18,5.56-14.86,14.76-15.59a28,28,0,0,1,7.42.34c7.39,1.38,12.16,6.87,12.36,14.32a2.19,2.19,0,0,1-2,2.51c-2.12.43-4.23.9-6.32,1.43s-3.29-.14-3.75-2.38c-.67-3.25-1.88-4.24-4.76-4.36-3.77-.16-5.59,1.32-5.69,5.11-.14,5.64-.12,11.3,0,16.94.08,3.22,1.56,4.65,4.45,4.86,3.61.27,5-.7,5.84-4.12.67-2.72,1.3-3.12,4-2.52,2,.43,3.9.9,5.86,1.28,1.7.34,2.45,1.21,2.27,3-.85,8.6-6.18,13.74-14.87,14.22a28,28,0,0,1-7.42-.33c-7.49-1.59-11.83-6.57-12.17-14.19-.15-3.57,0-7.16,0-10.74Z"/></g></g></svg>