<svg xmlns="http://www.w3.org/2000/svg" viewBox="0 0 484 155"><defs><style>.cls-1{fill:#fff;}.cls-2{fill:#f02842;}.cls-3{fill:#f02943;}</style></defs><title>Asset 9</title><g id="Layer_2" data-name="Layer 2"><g id="Layer_1-2" data-name="Layer 1"><rect class="cls-1" width="484" height="155"/><path class="cls-2" d="M33.06,93.17A46.58,46.58,0,0,1,47.22,70,2.63,2.63,0,0,0,48,68.74C52.16,56.2,60.71,48.6,73.76,46.4c14.9-2.52,30.08,7.13,34.49,21.75a5.05,5.05,0,0,0,1.56,2.34,46.5,46.5,0,0,1,13.61,22.64c-.75-.23-1.36-.4-2-.6a124.57,124.57,0,0,0-13-3.37c-.83-.18-1.05.23-1.33.86-4.24,9.37-11.32,15.49-21.3,18A31.31,31.31,0,0,1,49.45,90.15c-.38-.87-.74-1.12-1.71-.93A113.45,113.45,0,0,0,33.06,93.17ZM69,65.48a7.42,7.42,0,0,0-.53-2.54,6.21,6.21,0,0,0-9.21-3.37c-3.73,2.15-6.11,8.12-3.08,12.74,1.15,1.76,4.36,3.11,5.61,2.83C66.6,74,68.91,70,69,65.48Zm32.6,2.1a9.61,9.61,0,0,0-3.44-7.34,6.24,6.24,0,0,0-9.56,1.46C86,65.92,88,72.39,92.48,74.43a6.08,6.08,0,0,0,7.77-2.23A7.9,7.9,0,0,0,101.56,67.58Z"/><path class="cls-3" d="M256.65,88.62c-3.75,4.23-8.27,5.22-13.4,3.92a15.21,15.21,0,0,1-11.32-13.91c-.37-7,2.13-12.5,8.57-15.67,8.85-4.34,20.68-.07,22.73,10.86a18.42,18.42,0,0,1,.32,3.23q0,7.85,0,15.7a15.29,15.29,0,0,1-13.16,15.6,15.81,15.81,0,0,1-16.68-8c-.38-.74-.32-1,.48-1.31,1.67-.61,3.3-1.33,4.93-2,.5-.22.74-.17,1,.33a8.62,8.62,0,0,0,9.69,4.23,8.71,8.71,0,0,0,6.82-8.11C256.76,91.88,256.65,90.3,256.65,88.62Zm-.17-11.57c-.08-5.46-3.77-9.16-9.05-9.07-5,.09-8.56,4-8.47,9.3s3.75,9.1,8.84,9S256.57,82.5,256.48,77.05Z"/><path class="cls-3" d="M165.9,65.36c4.35-5.53,12.93-6.34,18.63-1.78a13.77,13.77,0,0,1,5.37,11.11c0,5.67,0,11.33,0,17,0,.87-.29,1-1.06,1-1.63-.05-3.27-.06-4.89,0-.88,0-1.18-.19-1.17-1.14q.08-8.55,0-17.1a6.7,6.7,0,1,0-13.39-.07c0,5.71,0,11.41,0,17.11,0,1-.27,1.25-1.23,1.2a36.21,36.21,0,0,0-4.42,0c-1.09.07-1.44-.2-1.43-1.36.07-5.7.06-11.41,0-17.11a6.69,6.69,0,0,0-12.6-3.07,7.27,7.27,0,0,0-.81,3.58c0,5.63,0,11.25,0,16.88,0,.89-.26,1.11-1.11,1.08-1.74-.07-3.49,0-5.23,0-.51,0-.78-.09-.78-.69.07-6.28-.19-12.57.13-18.84a13.44,13.44,0,0,1,9.28-11.81,13.07,13.07,0,0,1,14.34,3.88C165.69,65.26,165.77,65.28,165.9,65.36Z"/><path class="cls-3" d="M425.88,89.31v16.92c0,2.68,0,2.68-2.72,2.68-.94,0-1.87-.07-2.79,0s-1.13-.31-1.13-1.18q0-15.47,0-30.93a15.22,15.22,0,0,1,12.83-14.9c6.91-1.07,13.22,1.6,16.52,7,5,8.15,2.19,21.8-10.42,24.27C433.91,94,429.61,92.7,425.88,89.31ZM435,68.41c-5.14,0-8.66,3.82-8.62,9.35,0,5.37,3.51,8.78,8.26,9,5.19.21,9.17-3.29,9.14-9.13C443.76,71.92,440.24,68.57,435,68.41Z"/><path class="cls-3" d="M364.56,79.58c-3.77,0-7.53,0-11.29,0-.91,0-1,.21-.74,1,2.07,6.22,10.5,8,15.13,3.18a1.49,1.49,0,0,1,2-.41c1.36.65,2.75,1.23,4.17,1.75.78.28,1,.51.44,1.27A15.84,15.84,0,0,1,358,93c-6.55-1.4-10.81-5.49-12.4-12a15.91,15.91,0,1,1,31-7.14,18.88,18.88,0,0,1,.35,4.74c0,.74-.27,1-1,1C372.16,79.56,368.36,79.58,364.56,79.58Zm-3.38-5.69h7.67c.48,0,.83,0,.53-.68a8.79,8.79,0,0,0-8-5.07c-3.94,0-7,1.81-8.37,4.94-.32.75-.07.83.59.82C356.14,73.88,358.66,73.89,361.18,73.89Z"/><path class="cls-3" d="M226.81,84.4c0,2.82,0,5.15,0,7.47,0,.36.23.86-.22,1a1.24,1.24,0,0,1-1.36-.38c-1.27-1.2-2.58-2.35-3.86-3.54-.45-.43-.74-.52-1.3,0-4.3,3.88-9.27,5-14.76,3.13a14.36,14.36,0,0,1-9.87-11.77c-1.11-6.43.54-12.1,6-16.06,5.23-3.81,11-3.91,16.74-1.23,5.58,2.61,8.18,7.31,8.55,13.36C226.89,79.24,226.74,82.07,226.81,84.4ZM211,67.91c-5.11,0-8.69,3.78-8.7,9.16s3.58,9.18,8.68,9.2,8.78-3.78,8.78-9.11S216.15,67.9,211,67.91Z"/><path class="cls-3" d="M413.14,84c0,2.75,0,5.5,0,8.25,0,.32.19.77-.22.94a1.14,1.14,0,0,1-1.18-.28c-1.39-1.17-2.82-2.3-4.19-3.5-.53-.45-.85-.53-1.42,0a13.37,13.37,0,0,1-14.43,3,14.45,14.45,0,0,1-9.75-11.35c-1.49-7.29,1.43-14,7.34-17.39,9.17-5.24,23.92-.14,23.86,13.74C413.13,79.62,413.14,81.83,413.14,84ZM388.78,77c0,3.16.72,5.52,2.68,7.37A9,9,0,0,0,404,83.86c3.24-3.7,2.87-10.53-.8-13.48a8.7,8.7,0,0,0-9.59-1.17A8.15,8.15,0,0,0,388.78,77Z"/><path class="cls-3" d="M299.68,92.89c-11.05,0-17.79-7.46-17-17.48A15.16,15.16,0,0,1,294,61.74a16.24,16.24,0,0,1,17.5,5.92c.56.81.62,1.21-.38,1.69-1.53.74-3,1.65-4.44,2.52-.45.26-.67.26-1-.2a8.93,8.93,0,0,0-10.88-2.93c-3.61,1.58-5.58,5.54-5,9.85.55,3.79,2.53,6.36,6.26,7.41a8.72,8.72,0,0,0,9.55-3.37c.37-.5.62-.54,1.12-.26,1.55.88,3.1,1.75,4.69,2.55.71.36.63.67.24,1.22A15,15,0,0,1,299.68,92.89Z"/><path class="cls-3" d="M329.5,67.82c0-4.69,0-9.38,0-14.07,0-.89.24-1.12,1.1-1.09,1.55.07,3.11.08,4.66,0,.9,0,1.08.28,1.07,1.12,0,8.8,0,17.61,0,26.41,0,2.94,1.28,5.54,4.71,5.75.5,0,.64.25.63.73,0,1.82,0,3.64,0,5.46,0,.43-.1.57-.6.58A11.07,11.07,0,0,1,329.5,81.32Z"/><path class="cls-3" d="M276.84,77.26c0,4.84,0,9.69,0,14.54,0,1-.29,1.25-1.23,1.2-1.51-.08-3,0-4.54,0-.65,0-.88-.17-.88-.84q0-15,0-30c0-.69.24-.86.88-.85,1.55,0,3.11.06,4.66,0,.85,0,1.12.19,1.11,1.08C276.82,67.33,276.84,72.29,276.84,77.26Z"/><path class="cls-3" d="M269,50.54a4.47,4.47,0,0,1,4.4-4.48,4.53,4.53,0,0,1,4.6,4.43A4.57,4.57,0,0,1,273.38,55,4.48,4.48,0,0,1,269,50.54Z"/></g></g></svg>