<svg xmlns="http://www.w3.org/2000/svg" viewBox="0 0 484 155"><defs><style>.cls-1{fill:#fff;}.cls-2{fill:#fe7910;}.cls-3{fill:#fe7911;}</style></defs><title>Asset 8</title><g id="Layer_2" data-name="Layer 2"><g id="Layer_1-2" data-name="Layer 1"><rect class="cls-1" width="484" height="155"/><path class="cls-2" d="M173.66,75.28A19.19,19.19,0,0,1,180,78.79c4.5,4,5.61,9.23,5.15,14.92-.88,10.91-8.35,16.9-18.29,19.45a33,33,0,0,1-8.29.94c-7.77,0-15.53,0-23.3,0-4.67,0-7.17-2.88-6.73-7.49.81-8.47,1.5-17,2.24-25.44l2.64-29.83c.12-1.31.22-2.62.38-3.93a7.49,7.49,0,0,1,7.46-6.66c6.9,0,13.8,0,20.71,0A24.84,24.84,0,0,1,172.43,43c7.47,3.43,10.88,9.76,9.76,17.9-.81,5.79-3.1,10.67-8.19,13.93A2,2,0,0,0,173.66,75.28ZM154,83.68c-3.56,0-6.5,0-9.45,0-.9,0-1.22.26-1.3,1.17q-.67,8.19-1.48,16.36c-.1,1,.09,1.32,1.16,1.31,4.82-.06,9.65,0,14.47,0a21.37,21.37,0,0,0,7-1.21c5.26-1.87,7.18-6.23,6.61-11.15-.37-3.23-2.3-5.17-5.5-5.88C161.56,83.33,157.48,83.81,154,83.68ZM151.7,71.09h2.14c2.83,0,5.68.12,8.4-1,4.1-1.67,6.4-5.95,5.77-10.82-.49-3.77-3.25-6.23-7.85-6.71-4.4-.46-8.83-.08-13.24-.19-.81,0-.85.47-.9,1.07-.46,5.5-.92,11-1.43,16.51-.09.89.13,1.17,1,1.14C147.64,71.05,149.67,71.09,151.7,71.09Z"/><path class="cls-3" d="M251.94,114.09a59,59,0,0,1-10-.63c-4.36-.68-6.34-3-6-7.43.81-9.8,1.73-19.59,2.59-29.38q1.13-12.8,2.24-25.59c.12-1.36.19-2.73.35-4.09a7.15,7.15,0,0,1,7-6.15A5.78,5.78,0,0,1,254,47.18c-.48,5.51-.94,11-1.47,16.51-.1,1,.07,1.2,1.08.9a30,30,0,0,1,15-.88c8.93,1.88,14.76,8.28,15.91,17.7.9,7.33-.18,14.39-4.47,20.63-4.63,6.71-11.32,10.07-19.17,11.44A44,44,0,0,1,251.94,114.09Zm1.81-10.91v-.05a34,34,0,0,0,3.5,0c5.11-.52,9.41-2.56,12.06-7.13A17.64,17.64,0,0,0,271,82,9.9,9.9,0,0,0,264.41,75c-4.19-1.47-8.3-.7-12.33.8-.61.23-.62.69-.67,1.21q-1,11.43-2.06,22.85c-.3,3.29-.3,3.29,3,3.35Z"/><path class="cls-3" d="M304.12,114.17a58.57,58.57,0,0,1-10.16-.69c-3.89-.72-5.78-3.15-5.42-7.11q2.28-25.66,4.57-51.32c.24-2.63.44-5.26.68-7.88a7,7,0,0,1,8.5-6.14,5.36,5.36,0,0,1,4.27,5.82c-.37,5.2-.89,10.4-1.35,15.6,0,.25-.07.5-.1.75-.17,1.73-.17,1.71,1.47,1.26,5.38-1.49,10.81-1.92,16.21-.31a18.87,18.87,0,0,1,13.63,14,29.17,29.17,0,0,1-2.36,21.56c-4.25,8-11.36,12.12-20.09,13.75A49.27,49.27,0,0,1,304.12,114.17Zm2.15-11c4.75.22,9.23-.6,12.87-3.92,4.65-4.23,6.4-12.42,4-18.23a10.28,10.28,0,0,0-7.56-6.43A18.83,18.83,0,0,0,305,75.62a1.45,1.45,0,0,0-1.1,1.41c-.68,8-1.41,16-2.11,24.06-.17,2-.15,2,1.79,2C304.44,103.16,305.35,103.14,306.27,103.14Z"/><path class="cls-3" d="M369.06,92.48c-4.57,0-9.14,0-13.71,0-1.28,0-1.39.44-1.23,1.49a11.34,11.34,0,0,0,10.54,9.52c4.93.41,9.42-1,13.77-3,3.06-1.47,5.5-1,7,1.38s.79,5.38-1.67,7.29c-3.13,2.43-6.86,3.43-10.64,4.21a36,36,0,0,1-16-.1A20.78,20.78,0,0,1,341,95.26c-1.3-10.56,1.32-19.92,10.07-26.51,9-6.76,19-7.68,29.09-2.67,7.34,3.64,10.05,10.35,9.73,18.35a11.61,11.61,0,0,1-.41,2.85,6.91,6.91,0,0,1-6.85,5.19C378.09,92.5,373.58,92.48,369.06,92.48Zm-3-9.31c3.35,0,6.7,0,10,0,1,0,1.26-.27,1.14-1.21-.4-3.15-1.71-5.72-4.62-7.23a12.56,12.56,0,0,0-17.4,7.16c-.36,1.1-.08,1.29,1,1.28C359.49,83.14,362.79,83.17,366.08,83.17Z"/><path class="cls-3" d="M214,63.22a25.61,25.61,0,0,1,6.41.56c7.19,1.64,11.51,6.84,11.82,14.23a86,86,0,0,1-.68,10.76c-.52,6.41-1.13,12.82-1.74,19.22a6.42,6.42,0,0,1-4.68,5.79c-2.55.85-5.07.65-6.94-1.59-.61-.73-1-.29-1.56-.1C210.9,114.2,205,115,199,113.45c-5.35-1.41-9.37-4.53-10.32-10.33-1-6.22,1.09-11.28,6.39-14.84,4.23-2.84,9.12-3.82,14-4.61,3.05-.49,6.12-.85,9.2-1.17.86-.09,1.07-.38,1.1-1.19.19-5.36-2.18-7.81-7.54-7.75a23.1,23.1,0,0,0-7.69,1.63c-1.47.54-2.93,1.12-4.43,1.57-2.64.8-4.77.08-5.84-1.87a5.08,5.08,0,0,1,1.47-6.29c2.86-2.44,6.39-3.44,9.93-4.35A30,30,0,0,1,214,63.22Zm-4.95,41.05a20.32,20.32,0,0,0,7.64-1.73,1.6,1.6,0,0,0,1.08-1.46c.24-2.72.49-5.44.78-8.15.1-.9-.2-1.15-1.07-1.07A42.13,42.13,0,0,0,206.2,94a9.74,9.74,0,0,0-3.75,2.22,4.13,4.13,0,0,0,.92,6.69A12,12,0,0,0,209.06,104.27Z"/><path class="cls-3" d="M393.35,108.41c.69-8,1.33-15.4,2-22.81q1-11.35,2-22.7c.49-5.45.88-10.91,1.53-16.34a6.83,6.83,0,0,1,9.29-5.31,5.53,5.53,0,0,1,3.45,5.85c-.38,4.95-.85,9.89-1.29,14.84q-1,11.36-2,22.7c-.71,7.87-1.36,15.75-2.14,23.61a6.31,6.31,0,0,1-4.82,5.68c-2.37.67-4.74.49-6.56-1.58A5.39,5.39,0,0,1,393.35,108.41Z"/><path class="cls-2" d="M98.4,70.26c6,0,12.08.14,18.12-.05a6.23,6.23,0,0,1,6.73,5.89,7,7,0,0,1-6.66,7c-3.76.1-7.52.08-11.27,0-1.18,0-1.67.19-1.74,1.51-.19,3.44-.56,6.87-.88,10.3-.46,4.78-5,8-9.17,6.4a5.87,5.87,0,0,1-3.8-6.11c.34-3.69.66-7.37,1.06-11,.1-.9-.16-1.12-1-1.11-3.56,0-7.11,0-10.66,0-4.14,0-6.79-2.33-6.77-6a7.09,7.09,0,0,1,6.87-6.8C85.61,70.23,92,70.26,98.4,70.26Z"/><path class="cls-3" d="M95.77,65.74c-3.67-.07-3.66-.07-3.25-3.44.19-1.61.29-3.23.5-4.84a7,7,0,0,1,5-5.71,6.18,6.18,0,0,1,6.68,2.12c2.38,3.16.79,8.67-3.06,10.69A11.7,11.7,0,0,1,95.77,65.74Z"/></g></g></svg>