<svg xmlns="http://www.w3.org/2000/svg" viewBox="0 0 484 155"><defs><style>.cls-1{fill:#fff;}.cls-2{fill:#f06b28;}.cls-3{fill:#f79f21;}.cls-4{fill:#fefefe;}</style></defs><title>Asset 13</title><g id="Layer_2" data-name="Layer 2"><g id="Layer_1-2" data-name="Layer 1"><rect class="cls-1" width="484" height="155"/><path class="cls-2" d="M140.16,76.55a5,5,0,0,0-3.78-3.34c-7.59-2.38-15.13-4.91-22.7-7.38-1.66-.55-2.42-2.06-3.46-3.34L137,71.25c-.81-1.88-1.71-3-3.6-3.62-8.52-2.66-17-5.55-25.48-8.26-1.81-.58-2.7-2-3.77-3.46l29.37,9.6c-.73-1.83-1.51-2.94-3.24-3.49-9.34-3-18.62-6.1-27.95-9.06-2.53-.8-3.67-2.9-5.31-4.55l.22-.44,44.38,14.6c.4-.49.08-.87,0-1.24-.59-5.25,1.6-9,6.49-11.08a24.44,24.44,0,0,1,9-1.7,7,7,0,0,0,3.74-1.09c4.92-3.11,9.87-6.18,14.8-9.27a3.46,3.46,0,0,1,1.39-.73c.35.47,0,.66-.2.85-5.06,4.83-10,9.76-15.49,14.15A4.81,4.81,0,0,0,160,54.64c-2,5.12-4.2,10.18-6,15.38a29,29,0,0,1-13.27,15.84c-1.89,1.12-3.71,2.36-5.68,3.33A23,23,0,0,0,126.41,97c-3.16,4.53-5.71,9.43-8.78,14a30.08,30.08,0,0,1-4.52,5.59c-.38.35-.71,1.18-1.27.83s.06-1,.26-1.45q7.74-17.48,15.55-34.92c.55-1.23.69-1.78-.74-2.65C123,76.11,120,72.78,117,69.32l23,7.47.34,0Z"/><path class="cls-3" d="M293.86,72.88c-.51,1.16-.88,2-1.23,2.79-2.07,4.83-4.17,9.65-6.2,14.49a1.87,1.87,0,0,1-2.06,1.37c-1.58-.09-3.17,0-4.76,0-.94,0-1.36-.31-1.42-1.32-.37-5.29-.79-10.58-1.21-15.87,0-.45.23-1.26-.45-1.26s-.45.8-.54,1.27c-.92,5.28-1.85,10.55-2.73,15.83-.17,1-.61,1.41-1.62,1.36a23.07,23.07,0,0,0-3.22,0c-1.42.13-1.81-.44-1.56-1.78.67-3.56,1.28-7.13,1.91-10.69.8-4.52,1.65-9,2.37-13.56.23-1.48.76-2.1,2.35-2a51.75,51.75,0,0,0,6.59,0c1.52-.09,1.93.53,2,1.91.3,5.25.67,10.49,1,15.74.05.65-.23,1.69.56,1.81.63.09.68-1,.92-1.57,2.24-5.47,4.49-11,6.66-16.45a1.91,1.91,0,0,1,2.14-1.43c2.5.07,5,0,7.52,0,1.08,0,1.55.24,1.31,1.53-1.53,8.37-3,16.77-4.43,25.16-.16.94-.58,1.32-1.52,1.28a29.14,29.14,0,0,0-3.37,0c-1.47.13-1.75-.52-1.51-1.82.9-4.76,1.75-9.53,2.61-14.3A3.32,3.32,0,0,0,293.86,72.88Z"/><path class="cls-3" d="M317,92c-6.5.08-11.29-3.11-12.47-8.82-2.35-11.35,5.92-22.89,20-19.6,5,1.15,7.78,4.68,8.39,9.76.81,6.73-2.22,15.47-11.12,18A16.88,16.88,0,0,1,317,92Zm9.34-16.57c0-5-2.7-7.89-6.91-7.67a7.38,7.38,0,0,0-5.53,2.88,14,14,0,0,0-3,9.41c.06,3.82,1.76,6.2,4.59,7a7.59,7.59,0,0,0,8.35-3.38A15.75,15.75,0,0,0,326.31,75.44Z"/><path class="cls-2" d="M203.74,63.54c4.16,0,4.14,0,4.84,4q1.92,11,3.87,22c.31,1.8.21,1.94-1.61,2-1.12,0-2.25-.08-3.37,0-1.29.12-1.86-.34-2-1.65-.13-1.62-.49-3.23-.63-4.85-.09-1.13-.58-1.48-1.66-1.43-1.53.07-3.07,0-4.6,0-1,0-1.35-.36-.84-1.31a6.69,6.69,0,0,0,.59-1.24c.58-1.92,1.74-2.88,3.84-2.51,1.19.22,1.69-.25,1.46-1.53-.36-2-.59-3.93-.89-5.9,0-.23,0-.54-.34-.6s-.44.21-.56.43-.32.63-.48,1c-3,6.07-6.07,12.13-9.06,18.21a2,2,0,0,1-2.21,1.41,35,35,0,0,0-3.83,0c-1.27,0-1.41-.4-.85-1.44,2.29-4.27,4.54-8.56,6.81-12.84,2.11-4,4.29-7.88,6.29-11.89.7-1.4,1.51-2.05,3.06-1.81A15.28,15.28,0,0,0,203.74,63.54Z"/><path class="cls-2" d="M255.29,63.54c4.21,0,4.25,0,5,4.07,1.31,7.38,2.53,14.78,3.88,22.16.27,1.5-.23,1.83-1.55,1.74-.92-.06-1.84,0-2.76,0-2.43,0-2.43,0-2.77-2.45-.19-1.42-.46-2.82-.59-4.24-.08-.92-.48-1.23-1.37-1.21-1.58,0-3.17,0-4.75,0-1.12,0-1.4-.43-.92-1.4a10.9,10.9,0,0,0,.68-1.37,2.91,2.91,0,0,1,3.67-2.3c1.38.23,1.8-.35,1.5-1.75-.37-1.7-.49-3.44-.74-5.15-.07-.42.05-1.05-.54-1.11s-.53.54-.7.88c-3.06,6.11-6.14,12.21-9.12,18.35-.61,1.26-1.29,1.94-2.77,1.76a26.41,26.41,0,0,0-3.21,0c-1.67,0-1.77-.15-1-1.59q5.19-9.81,10.39-19.6c.93-1.76,1.94-3.48,2.78-5.28a2.15,2.15,0,0,1,2.47-1.5A22.24,22.24,0,0,0,255.29,63.54Z"/><path class="cls-3" d="M372.28,91.5c-2.91,0-5.82,0-8.73,0-1.2,0-1.62-.32-1.38-1.63,1.52-8.33,3-16.66,4.4-25a1.39,1.39,0,0,1,1.61-1.37q8.67.06,17.33,0c1.32,0,1.67.39,1.37,1.75-.84,3.77.2,3.28-3.93,3.3-3.12,0-6.23,0-9.35,0-1,0-1.38.34-1.5,1.27-.16,1.16-.36,2.32-.61,3.46s.05,1.78,1.44,1.75c3.22-.08,6.44,0,9.66-.06,1.44,0,1.66.56,1.39,1.74-.87,3.79.14,3.21-3.84,3.24q-4.29,0-8.58,0c-.87,0-1.32.25-1.43,1.16a29.9,29.9,0,0,1-.67,3.76c-.3,1.19.05,1.56,1.25,1.55,3.63-.05,7.26,0,10.89,0,1.92,0,2,0,1.59,1.89-.72,3.68.16,3.16-3.85,3.2C377,91.52,374.64,91.5,372.28,91.5Z"/><path class="cls-3" d="M346.7,85.66l4-8.12c2.09-4.26,4.2-8.5,6.24-12.78a1.83,1.83,0,0,1,2-1.24c1.17.08,2.35,0,3.53,0,1.89,0,1.95.1,1.09,1.72l-11,20.66c-.79,1.49-1.59,3-2.34,4.47a1.74,1.74,0,0,1-1.79,1.13q-2.91-.08-5.82,0c-1,0-1.42-.32-1.6-1.35-1.44-8.44-2.94-16.87-4.43-25.3-.16-.93.15-1.35,1.11-1.33q2.22,0,4.44,0a1.19,1.19,0,0,1,1.41,1.21c.8,6.32,1.64,12.64,2.47,19A2.91,2.91,0,0,0,346.7,85.66Z"/><path class="cls-2" d="M224.6,91.5c-2.7,0-5.41,0-8.12,0-1.14,0-1.52-.32-1.29-1.54,1.51-8.37,3-16.75,4.43-25.13.15-.9.51-1.36,1.5-1.31a31.79,31.79,0,0,0,3.52,0c1.28-.09,1.61.41,1.38,1.63-.8,4.3-1.55,8.62-2.32,12.93-.37,2.11-.64,4.24-1.13,6.32-.35,1.5.25,1.73,1.55,1.71,3.62-.06,7.25,0,10.88,0,1.6,0,1.44,0,.9,1.53-1.09,3.13-3,4.49-6.4,3.91A28.59,28.59,0,0,0,224.6,91.5Z"/><path class="cls-2" d="M172.93,91.5c-2.7,0-5.41,0-8.12,0-1.2,0-1.49-.43-1.28-1.59q2.28-12.48,4.44-25c.19-1.14.68-1.44,1.71-1.39a26.61,26.61,0,0,0,3.22,0c1.31-.09,1.72.35,1.47,1.69-1.18,6.37-2.24,12.76-3.44,19.12-.27,1.41,0,1.82,1.47,1.79,3.68-.08,7.36,0,11,0,1.28,0,1.45.41.85,1.41a1.74,1.74,0,0,0-.14.27c-1,3-2.89,4.34-6.16,3.79A30.48,30.48,0,0,0,172.93,91.5Z"/><path class="cls-4" d="M140.16,76.55l.14.27-.34,0Z"/></g></g></svg>