<svg xmlns="http://www.w3.org/2000/svg" viewBox="0 0 484 155"><defs><style>.cls-1{fill:#fff;}.cls-2{fill:#406bfb;}.cls-3{fill:#fc6867;}</style></defs><title>Asset 3</title><g id="Layer_2" data-name="Layer 2"><g id="Layer_1-2" data-name="Layer 1"><rect class="cls-1" width="484" height="155"/><path class="cls-2" d="M108.91,73c.58-.92,1.14-1.85,1.74-2.76a9.46,9.46,0,0,1,10.46-3.88,9,9,0,0,1,7,8.58,76.47,76.47,0,0,0,1.14,12.82c2.53,12.16,9.83,19.66,22.05,22.35a2.07,2.07,0,0,1,1.17.66c-5.88,1.86-11.84,1.61-17.72.27-13-3-20.93-11.27-24.49-23.91-.35-1.22-.09-2.69-1.38-3.54Z"/><path class="cls-3" d="M211.67,57c-9.06-1.17-14.27,4.26-18.88,10.58-4.12,5.63-7.17,11.9-10.71,17.89a84.34,84.34,0,0,1-11.18,15.17c-9.11,9.59-24.79,8.58-33.18-2.46,9.12,1.48,13.59-4.72,18.27-10.38s8-11.9,11.55-18.13a69.34,69.34,0,0,1,11.65-15.63C188.42,45.09,204.5,46.47,211.67,57Z"/><path class="cls-2" d="M196.2,44.71C215.68,38,236.39,50.87,240,71.35a36.3,36.3,0,0,1,.61,8.88,9.73,9.73,0,0,1-9.92,9.15A9.49,9.49,0,0,1,221.41,80a78.87,78.87,0,0,0-.86-11.19C218.27,55.51,210.66,47.91,196.2,44.71Z"/><path class="cls-2" d="M375.06,89.72c0,3.63,0,7.26,0,10.89,0,1.51-.15,2.89-1.68,3.64a2.8,2.8,0,0,1-3.81-.9c-1.1-1.53-2.09-.48-3.14,0-5.94,2.52-11.79,1.44-16.16-3a15.78,15.78,0,0,1-3.13-17.16,14.36,14.36,0,0,1,13.81-9,11.21,11.21,0,0,1,4.52.92c1.79.81,3.19,1.71,5.12-.39,1.57-1.71,4.34.06,4.42,2.76C375.15,81.57,375.05,85.65,375.06,89.72Zm-22.82-.38c0,5.26,3.22,8.92,8,9s8.65-3.73,8.66-8.85-3.83-9.18-8.5-9.12S352.28,84.22,352.24,89.34Z"/><path class="cls-2" d="M325.78,89.52c0,3.74,0,7.49,0,11.24,0,1.54-.37,2.85-1.88,3.57a2.67,2.67,0,0,1-3.53-.92c-1.08-1.49-2.05-.6-3.15-.13-6,2.57-11.85,1.51-16.21-2.92a15.78,15.78,0,0,1-2.88-17.79,14.28,14.28,0,0,1,14.26-8.3,13.12,13.12,0,0,1,3.55.78c1.87.7,3.37,2,5.43-.33,1.53-1.72,4.24.09,4.34,2.89.14,4,0,7.94,0,11.91ZM311.3,80.37c-4.61-.08-8.25,3.71-8.44,8.79-.18,5.23,3.34,9.14,8.25,9.17s8.39-3.6,8.51-8.64S316,80.46,311.3,80.37Z"/><path class="cls-2" d="M264.63,85.31c0-2.53,0-5.07,0-7.61,0-2.08,1-3.43,3.16-3.41s2.89,1.38,2.92,3.28c.07,4.52.06,9,.18,13.56s2.45,7.22,6.38,7.26c4.11,0,6.66-2.7,6.73-7.3.08-4.3.1-8.6.09-12.9,0-2.11.49-3.86,3-3.9s3.23,1.62,3.23,3.74c0,5,.13,9.93-.1,14.88-.31,6.56-6.21,11.77-12.94,11.74A12.74,12.74,0,0,1,264.7,92.92c-.17-2.53,0-5.07,0-7.61Z"/><path class="cls-2" d="M333.21,77.53c0-7.49,0-15,0-22.47,0-2.36.51-4.4,3.25-4.4s3.3,2,3.29,4.38q0,22.47,0,44.94c0,2.47-.52,4.66-3.44,4.57-2.71-.08-3.12-2.22-3.1-4.55C333.25,92.51,333.21,85,333.21,77.53Z"/><path class="cls-3" d="M355.27,71a5.89,5.89,0,0,1-3.19-.76c-.85-.48-2-.89-2-2s1.26-1,2-1.26c2.6-1.09,4-3.43,5.57-5.51s3.15-4.54,5.53-6.09a6.93,6.93,0,0,1,8,.49c.8.76,1.55,1.74-.13,2.12-3.27.74-4.76,3.36-6.61,5.66-1.45,1.8-2.9,3.6-4.48,5.29A6.07,6.07,0,0,1,355.27,71Z"/></g></g></svg>