<svg xmlns="http://www.w3.org/2000/svg" viewBox="0 0 484 155"><defs><style>.cls-1{fill:#fff;}.cls-2{fill:#fe6125;}</style></defs><title>Asset 4</title><g id="Layer_2" data-name="Layer 2"><g id="Layer_1-2" data-name="Layer 1"><rect class="cls-1" width="484" height="155"/><path class="cls-2" d="M250.17,106q0-15.33,0-30.65c0-.73-.15-1-.93-1-1.61.06-3.22,0-4.83,0a.77.77,0,0,0-.88.65A26.24,26.24,0,0,1,199,85.52,25.65,25.65,0,0,1,195,56.32a26.08,26.08,0,0,1,10.8-11A26.45,26.45,0,0,1,214,42.43a22.46,22.46,0,0,1,6.49-.26c8.82,1,15.7,5.13,20.39,12.76a23.45,23.45,0,0,1,2.65,6.15.81.81,0,0,0,.94.68c1.64,0,3.28,0,4.91,0,.61,0,.8-.2.79-.81,0-5.74-.09-11.49,0-17.23a26.21,26.21,0,0,1,7-17.4,27.09,27.09,0,0,1,9.56-6.85,25,25,0,0,1,7.14-1.95c1-.11,2-.2,3-.23.44,0,.65.07.65.59,0,3.82,0,7.63,0,11.44,0,.63-.32.64-.76.67a14.26,14.26,0,0,0-9.08,3.79A14.12,14.12,0,0,0,263,44.67q0,8.1,0,16.2c0,.74.26.9.93.9,6.6,0,13.2,0,19.8,0,1,0,1,0,.72.91q-1.57,5.52-3.13,11a.88.88,0,0,1-1,.75c-5.43,0-10.86,0-16.28,0-1,0-1,0-1,1V136.6c0,1.1,0,1.1-1.13,1.1H251.3c-1.13,0-1.13,0-1.13-1.16ZM233,68.12a14.68,14.68,0,1,0-14.68,14.53A14.6,14.6,0,0,0,233,68.12Z"/><path class="cls-2" d="M184,64.23c0,5.52-.06,11,0,16.57A21.55,21.55,0,0,0,190.51,96a21.92,21.92,0,0,0,8.64,5.38,25.42,25.42,0,0,0,6.79,1.25c.5,0,.61.2.6.66q0,5.67,0,11.36c0,.53-.19.66-.69.65a36.54,36.54,0,0,1-9.28-1.42,35.38,35.38,0,0,1-23.45-22.07,37,37,0,0,1-2-12.65q0-16.53,0-33.07c0-.69.11-1,.9-.94,3.72.05,7.43,0,11.15,0,.64,0,.81.17.81.81,0,6.09,0,12.18,0,18.26Z"/><path class="cls-2" d="M291.12,80.59V46.13c0-1,0-1,.93-1,3.72,0,7.43,0,11.15,0,.58,0,.73.16.73.73,0,5,0,10,0,15,0,.73.25.93.93.92,2.39,0,4.79,0,7.18,0,.65,0,.89.16.89.86,0,3.67,0,7.33,0,11,0,.69-.21.87-.88.86-2.42,0-4.84,0-7.26,0-.69,0-.84.22-.84.88q0,19.86,0,39.73c0,1.09,0,1.09-1.12,1.09H292.09c-1,0-1,0-1-1Z"/></g></g></svg>