<svg xmlns="http://www.w3.org/2000/svg" viewBox="0 0 484 155"><defs><style>.cls-1{fill:#fff;}.cls-2{fill:#2f2b2b;}.cls-3{fill:#ef722f;}</style></defs><title>Asset 6</title><g id="Layer_2" data-name="Layer 2"><g id="Layer_1-2" data-name="Layer 1"><rect class="cls-1" width="484" height="155"/><path class="cls-2" d="M109.43,74c0-7,0-14.09,0-21.14,0-1.41.29-1.94,1.83-1.9,4.55.1,9.11,0,13.67,0,9.9,0,17.15,6.94,17.16,16.41s-7.16,16.38-16.93,16.52c-1.75,0-3.5.09-5.24,0-1.36-.09-1.67.44-1.64,1.71.08,3.3,0,6.61.05,9.91,0,1.13-.27,1.56-1.45,1.5A53.62,53.62,0,0,0,111,97c-1.36.08-1.64-.43-1.63-1.7C109.45,88.19,109.43,81.08,109.43,74Zm8.83-6.67c0,2.36,0,4.73,0,7.09,0,.81.14,1.3,1.11,1.27,2.17-.06,4.37.1,6.53-.12a7.91,7.91,0,0,0,7.21-7.74,8,8,0,0,0-6.56-8.51c-2.28-.46-4.6-.07-6.89-.24-1.24-.09-1.44.47-1.41,1.53C118.3,62.82,118.26,65.06,118.26,67.3Z"/><path class="cls-2" d="M175.49,81.28a16.46,16.46,0,1,1-16.31-16.51A16.33,16.33,0,0,1,175.49,81.28ZM167,81.12A7.91,7.91,0,1,0,159,89.33,8.07,8.07,0,0,0,167,81.12Z"/><path class="cls-2" d="M255.42,84.18c.7-.42.75-1.1,1-1.65,2-5.25,4-10.48,5.92-15.75a1.76,1.76,0,0,1,2-1.39c2.43.09,4.86,0,7.27,0,.28.69-.14,1.17-.33,1.66Q263.13,87.5,255,107.89a1.81,1.81,0,0,1-2,1.38c-2-.09-4-.07-6,0-1.15,0-1.21-.35-.81-1.3,1.51-3.62,2.92-7.29,4.48-10.89a3.6,3.6,0,0,0-.06-3.17c-3.77-8.89-7.46-17.81-11.25-26.69-.61-1.43-.55-1.93,1.16-1.82a46.77,46.77,0,0,0,5.8,0c1.23-.07,1.73.43,2.15,1.51,2,5.22,4.16,10.41,6.25,15.61C254.91,83.06,255.16,83.61,255.42,84.18Z"/><path class="cls-2" d="M278,96.13c-4.48-3.86-4.05-6.34,2-12.28-2.78-1.67-4.63-4-4.92-7.29-.51-5.82,2.67-10.21,8.34-11.58A11.61,11.61,0,0,1,289,64.7c4,1,7.93.6,11.9.53,1.18,0,1.54.29,1.47,1.43-.06,1,.11,1.87-1.4,1.74s-3.09,0-4.88,0c1.68,1.81,2.94,3.68,3.1,6.09.35,5.54-3.2,9.77-9.06,10.7a16.69,16.69,0,0,1-7.24-.3,1.7,1.7,0,0,0-2.22.72c-.78,1.21-1.72,2.37-1.14,3.94.43,1.15,1.46,1.22,2.49,1.23,4.24,0,8.49-.06,12.73.08,3.67.13,7,1.14,8.37,5.06,1.27,3.58-.11,7.65-3.37,10.36a14.6,14.6,0,0,1-4.37,2.49,27.24,27.24,0,0,1-15.66.81,12,12,0,0,1-2.46-.87c-2.52-1.19-4.34-2.94-4.44-5.94s1.63-4.57,3.89-5.9C277,96.62,277.43,96.42,278,96.13Zm9.13.33v0c-2.18,0-4.37,0-6.55,0a1.86,1.86,0,0,0-1.83,1,6.9,6.9,0,0,0,2.15,9.24c3.93,2.47,12.55,1.61,15.93-1.58a5.67,5.67,0,0,0,1.61-6c-.85-2.17-2.78-2.54-4.75-2.63C291.47,96.38,289.29,96.46,287.1,96.46Zm6-21.08c-.13-2.39-.44-4.8-2-6.83a5.09,5.09,0,0,0-8.42.24c-2.1,3.22-1.81,9.63.57,12.62a5.12,5.12,0,0,0,8.79-.88A12,12,0,0,0,293.08,75.38Z"/><path class="cls-2" d="M224.35,97.59c-9.22,0-16.06-5.61-17.45-13.33a16.38,16.38,0,0,1,10.35-18.45,16.67,16.67,0,0,1,20.18,7c.82,1.39,1,2.22-.86,2.76a27.81,27.81,0,0,0-4.31,1.79c-1.1.55-1.72.57-2.49-.67a7.89,7.89,0,0,0-10.68-2.6A8.23,8.23,0,0,0,216,85a8,8,0,0,0,10.43,3.57A7.14,7.14,0,0,0,230,85.41c.51-1,1-1,1.91-.57A55.42,55.42,0,0,0,237.05,87c1.3.45,1.22,1,.65,2C234.48,94.7,229.56,97.42,224.35,97.59Z"/><path class="cls-2" d="M343.24,69.7c.91-.75,1.65-1.38,2.4-2a12.83,12.83,0,0,1,10.3-3,6.89,6.89,0,0,1,6.05,5.8,21.65,21.65,0,0,1,.42,5q0,8,0,16.09c0,2.42.44,2.93,2.84,3.28.7.1,1.37,0,1.34,1.08s-.86.85-1.47.86c-3.8,0-7.61,0-11.42,0-.56,0-1.29.25-1.35-.79s.53-1,1.29-1.14c2.58-.35,3-.81,3-3.33,0-5.61,0-11.23,0-16.84,0-5.33-3-7.47-8.07-5.92a12.88,12.88,0,0,0-1.23.45c-2.93,1.16-4.75,2.74-4.43,6.48.43,5.14.1,10.34.11,15.52,0,2.8.36,3.25,3.08,3.64.7.1,1.19.17,1.18,1.05s-.72.82-1.3.83q-5.81,0-11.61,0c-.57,0-1.3.23-1.32-.81,0-.86.43-1,1.14-1.09,2.8-.44,3.09-.8,3.1-3.63,0-6.17-.06-12.35,0-18.52,0-1.59-.34-2.61-1.89-3.13a8.87,8.87,0,0,1-1.49-.79c-.32-.18-.69-.35-.64-.81s.48-.55.82-.66l7.81-2.62c1-.34,1.38,0,1.33,1S343.24,68.21,343.24,69.7Z"/><path class="cls-2" d="M407.39,92.39c-1.39,1.11-2.48,2-3.63,2.87a11.59,11.59,0,0,1-5.13,2.16c-5.43.84-9.36-2-9.69-7.48-.34-5.78-.15-11.59-.18-17.39,0-3.5,0-3.5-3.38-4.32-.51-.12-.94-.18-1-.89s.33-1,1-1.08c2.64-.46,5.3-.88,7.92-1.43,1.29-.27,1.49.2,1.42,1.34-.45,6.66-.24,13.33-.28,20a13.23,13.23,0,0,0,.39,3.71,4.71,4.71,0,0,0,5.09,3.78,12.17,12.17,0,0,0,7.12-3c.67-.51.55-1.2.55-1.87,0-5.74,0-11.47,0-17.21,0-2.46-.39-2.85-2.83-3.31-.59-.12-1.46.13-1.49-1s.75-1,1.39-1.11c2.45-.46,4.92-.84,7.36-1.35,1.2-.26,1.54.06,1.48,1.27-.41,8-.15,16.08-.21,24.13,0,2.83.07,2.88,2.81,3.33.6.1,1.53-.22,1.63.82s-.87,1-1.54,1.22c-2.3.59-4.62,1.08-6.9,1.7-1.43.39-2.15.21-1.93-1.5A29.58,29.58,0,0,0,407.39,92.39Z"/><path class="cls-2" d="M188.19,74c0,7.1,0,14.2,0,21.31,0,1.32-.36,1.72-1.66,1.64a39.36,39.36,0,0,0-5.43,0c-1.48.12-1.71-.46-1.71-1.79.05-13,0-25.92,0-38.89,0-1.37.05-2.74,0-4.11,0-.91.32-1.18,1.19-1.17,2.06,0,4.12.09,6.17,0,1.24-.06,1.42.44,1.41,1.52C188.17,59.63,188.19,66.8,188.19,74Z"/><path class="cls-2" d="M320.1,78.07c-2.87,0-5.74,0-8.61,0-1.07,0-1.57.18-1.52,1.42a19.23,19.23,0,0,0,1.52,7.27A10,10,0,0,0,328.68,89c.15-.2.29-.4.45-.6s.47-.83,1-.56.29.86.14,1.29a11.73,11.73,0,0,1-6.58,7.26,13.37,13.37,0,0,1-18-7.53,19.7,19.7,0,0,1,1.92-18.27,12.56,12.56,0,0,1,11.9-6,11.22,11.22,0,0,1,10.77,12.54c-.1,1-.62,1-1.35,1Zm-2.84-2h3.17c4.33,0,4.59-.35,3.28-4.61-.7-2.27-2-4.07-4.46-4.53a6.45,6.45,0,0,0-6.48,2.4,12.78,12.78,0,0,0-2.39,5.6c-.21,1,.25,1.16,1.09,1.15C313.4,76,315.33,76.05,317.26,76.05Z"/><path class="cls-2" d="M421.12,90.05c-.05-.93-.11-1.86-.14-2.8,0-.59-.26-1.3.75-1.37.78,0,1.26.13,1.51,1a14.89,14.89,0,0,0,3,5.76,7.53,7.53,0,0,0,7.74,2.6,4.81,4.81,0,0,0,4.1-3.86A5,5,0,0,0,436,85.78a24.8,24.8,0,0,0-5.21-2.52,25.56,25.56,0,0,1-5.86-2.89c-2.84-2-3.78-4.85-3.4-8.19a7.69,7.69,0,0,1,5.26-6.7c4.73-1.74,9.33-1,13.76,1.17a1.45,1.45,0,0,1,.88,1.49c0,1.8,0,3.61,0,5.42,0,.48.11,1-.64,1.11s-1.25,0-1.45-.8A12,12,0,0,0,437.57,70a7,7,0,0,0-6.86-3.32,4.4,4.4,0,0,0-4.14,3.25,4.77,4.77,0,0,0,1.72,5.34,19.57,19.57,0,0,0,5,2.5,29.85,29.85,0,0,1,6.07,2.88,8.33,8.33,0,0,1,3.88,8.17,8.24,8.24,0,0,1-5.16,7.44c-5.44,2.24-10.74,1.5-15.88-1.15-1-.51-1-1.33-1-2.21s0-1.87,0-2.81Z"/><path class="cls-2" d="M202.69,81.16c0,4.67-.05,9.35,0,14,0,1.33-.22,1.92-1.72,1.82-1.92-.14-3.87-.07-5.8,0-.94,0-1.31-.24-1.31-1.25q0-14.51,0-29c0-1.12.4-1.37,1.42-1.34a45.65,45.65,0,0,0,5.61,0c1.62-.14,1.82.57,1.8,1.93C202.64,71.92,202.69,76.54,202.69,81.16Z"/><path class="cls-3" d="M69.91,88.37A14.73,14.73,0,0,1,59.57,62.94a14.93,14.93,0,0,1,16.3-3,13.65,13.65,0,0,1,3.95,2.78A69,69,0,0,1,88,72.42c2,2.84,1.05,4.92-2.41,5.07-1.31.06-1.48,1-1.84,1.76a14.78,14.78,0,0,1-11.19,9,5,5,0,0,1-.92.15C71,88.39,70.47,88.37,69.91,88.37ZM68.39,85.7c7,0,11.23-3,13.35-8.77.56-1.53,1.29-2.31,3-2.11,1.14.14,1.55-.21.74-1.3a64.34,64.34,0,0,0-8-9.37A9.74,9.74,0,0,0,73.8,62c-5.15-1.61-9.55-.17-13,3.68a11.32,11.32,0,0,0-2,12.89C60.83,83.23,64.67,85.56,68.39,85.7Z"/><path class="cls-2" d="M379,79.1c0,4.17,0,8.34,0,12.51,0,2.44.47,3,2.79,3.34.68.1,1.4,0,1.38,1s-.89.82-1.48.83q-5.7,0-11.4,0c-.56,0-1.3.27-1.36-.77s.54-1,1.29-1.13c2.58-.34,3-.84,3-3.53,0-6.16-.08-12.33.05-18.49a3.07,3.07,0,0,0-2.1-3.39c-.71-.29-1.85-.48-1.84-1.36,0-1.1,1.31-.93,2.06-1.22,2-.75,4-1.35,6-2.09,1.25-.47,1.66-.18,1.64,1.17C379,70.38,379,74.74,379,79.1Z"/><path class="cls-2" d="M198.78,52.68a4.39,4.39,0,1,1-.2,8.78,4.39,4.39,0,0,1,.2-8.78Z"/><path class="cls-2" d="M379.85,57.8a4,4,0,1,1-8.06.05,4,4,0,0,1,3.9-4A4,4,0,0,1,379.85,57.8Z"/><path class="cls-2" d="M50.39,94.11a1.27,1.27,0,0,1-1-2.07c1.9-2.06,3.92-4,5.94-6a1.1,1.1,0,0,1,1.54.08c.47.42.71,1,.3,1.51A52.4,52.4,0,0,1,50.85,94,.93.93,0,0,1,50.39,94.11Z"/><path class="cls-2" d="M71.42,49.83c0,1.31,0,2.61,0,3.92a1.32,1.32,0,1,1-2.63,0q-.09-3.91,0-7.82A1.21,1.21,0,0,1,70,44.67c1,0,1.32.59,1.34,1.44,0,1.24,0,2.48,0,3.72Z"/><path class="cls-2" d="M46.05,72h3.73c.86,0,1.51.32,1.55,1.23s-.57,1.35-1.43,1.36c-2.6,0-5.21.05-7.82.05a1.24,1.24,0,0,1-1.37-1.23c0-.87.55-1.34,1.43-1.35h3.91Z"/><path class="cls-2" d="M90.93,54a2,2,0,0,1-.76,1.34L85.3,60.23c-.69.7-1.48,1.11-2.26.28s-.28-1.48.36-2.11c1.68-1.67,3.33-3.37,5-5a1.47,1.47,0,0,1,1.83-.5A1.23,1.23,0,0,1,90.93,54Z"/><path class="cls-2" d="M90.84,92.72c0,1.18-1.17,1.88-2,1.16-2.08-1.87-4-3.87-6-5.86A1.12,1.12,0,0,1,83,86.34a1.09,1.09,0,0,1,1.53-.19c2.08,2,4.12,4,6.15,6C90.79,92.3,90.8,92.6,90.84,92.72Z"/><path class="cls-2" d="M56.27,60.84A1.81,1.81,0,0,1,55,60.19l-5.07-5c-.63-.62-1.11-1.31-.38-2.1s1.57-.43,2.25.25q2.61,2.55,5.2,5.12A1.34,1.34,0,0,1,57.4,60,1.27,1.27,0,0,1,56.27,60.84Z"/><path class="cls-2" d="M71.26,97c0,1.18,0,2.36,0,3.54,0,.92-.29,1.64-1.35,1.59-.91,0-1.23-.65-1.23-1.52,0-2.42,0-4.84-.07-7.26,0-.9.23-1.66,1.27-1.69s1.35.7,1.35,1.62c0,1.24,0,2.48,0,3.72Z"/><path class="cls-2" d="M77.52,71.4a1.3,1.3,0,0,1-.72,1.1,1.15,1.15,0,0,1-1.54-.22c-1.36-1.61-2.65-1.61-4,0a1.19,1.19,0,0,1-1.55.21A1.3,1.3,0,0,1,69,71.28c0-1.5,2.07-2.91,4.26-2.9S77.53,69.83,77.52,71.4Z"/></g></g></svg>