<svg xmlns="http://www.w3.org/2000/svg" viewBox="0 0 484 155"><defs><style>.cls-1{fill:#fff;}.cls-2{fill:#97dae4;}.cls-3{fill:#999;}</style></defs><title>Asset 2</title><g id="Layer_2" data-name="Layer 2"><g id="Layer_1-2" data-name="Layer 1"><rect class="cls-1" width="484" height="155"/><path class="cls-2" d="M255.35,35.23c1.12.19,2.25.35,3.36.59A26.45,26.45,0,0,1,273,44.12a27.36,27.36,0,0,1,6.9,17.64c0,.44-.13.6-.58.59-3.72,0-7.43,0-11.15,0-.52,0-.58-.23-.6-.66-.19-6-3.1-10.22-8.37-12.9a13,13,0,0,0-5.29-1.3,14.09,14.09,0,0,0-11.12,4.25A13.71,13.71,0,0,0,238.61,61c-.06,1.34-.08,1.34-1.39,1.34-3.49,0-7,0-10.49,0-.58,0-.74-.17-.73-.74a27,27,0,0,1,18.27-25A22.26,22.26,0,0,1,250,35.37c.17,0,.35,0,.47-.14Z"/><path class="cls-3" d="M375.37,95.59a2.73,2.73,0,0,1-1.88.84,2.17,2.17,0,0,1-1.89-1.59,2.08,2.08,0,0,1,1-2.26,2,2,0,0,1,2.37.23c.13.1.21.27.41.29Z"/><path class="cls-2" d="M121.13,87.25q0,14.69,0,29.36c0,1,0,1-.94,1-3.57,0-7.14,0-10.71,0-.6,0-.84-.1-.84-.79,0-18.21,0-36.42.06-54.63a25.2,25.2,0,0,1,5.77-15.84,27,27,0,0,1,46.78,8.56,27.56,27.56,0,0,1,1.25,7.1c0,.5-.12.68-.65.67q-5.49,0-11,0c-.49,0-.67-.12-.69-.65a14.5,14.5,0,0,0-28.66-2.13,16.76,16.76,0,0,0-.28,5.43,4.81,4.81,0,0,0-.08.65Q121.12,76.6,121.13,87.25Z"/><path class="cls-2" d="M306.12,105.2c0-4.37,0-8.74,0-13.11,0-.55-.14-.79-.72-.93a26.88,26.88,0,0,1-20.14-22.37,28.92,28.92,0,0,1-.28-3.35c0-.45.1-.64.6-.64q5.69,0,11.37,0c.47,0,.64.13.64.62a13.59,13.59,0,0,0,3.88,9.73,14.57,14.57,0,0,0,19.58,1.4,14.22,14.22,0,0,0,5.32-9,13.31,13.31,0,0,0,.14-2.18c0-.38.14-.52.51-.52,3.77,0,7.53,0,11.3,0,.53,0,.51.3.51.66A24.84,24.84,0,0,1,337,74.87a26.76,26.76,0,0,1-16.34,15.65c-.59.21-1.21.38-1.82.53a.59.59,0,0,0-.55.7c0,.93,0,1.86,0,2.79,0,7.93,0,15.86,0,23.8,0,.64-.14.87-.84.86-3.54,0-7.09,0-10.63,0-.58,0-.74-.17-.74-.74C306.13,114,306.12,109.62,306.12,105.2Z"/><path class="cls-3" d="M215,62.63c-1.84,0-3.67,0-5.5,0-.48,0-.63-.14-.64-.62a14.49,14.49,0,0,0-28.78-1.92,12.05,12.05,0,0,0-.16,1.89c0,.43-.12.65-.64.65q-5.69,0-11.36,0c-.62,0-.59-.3-.59-.72a26.94,26.94,0,0,1,22.47-26A26.93,26.93,0,0,1,220.63,57a25.54,25.54,0,0,1,.55,5c0,.48-.15.62-.62.61C218.7,62.61,216.84,62.63,215,62.63Z"/><path class="cls-2" d="M173.57,64.82h5.28c1,0,1.05,0,1.07,1.06a11.51,11.51,0,0,0,.69,3.64,14.12,14.12,0,0,0,11.59,9.75,14.47,14.47,0,0,0,16.64-13.84c0-.47.16-.62.64-.62q5.53,0,11.07,0c.56,0,.64.23.63.7a26.35,26.35,0,0,1-3.85,13.39A26.7,26.7,0,0,1,203,90.53a25.67,25.67,0,0,1-10.74,1.36,26.41,26.41,0,0,1-18-8.86A26,26,0,0,1,167.6,68.8c-.13-1-.23-2-.29-3,0-.71.12-1,.91-1C170,64.87,171.79,64.82,173.57,64.82Z"/><path class="cls-3" d="M121.13,87.25q0-10.65,0-21.3a4.81,4.81,0,0,1,.08-.65A14.5,14.5,0,0,0,150,66.81c0-.29.1-.58.12-.87.08-1.12.07-1.12,1.23-1.12,3.45,0,6.9,0,10.34,0,.6,0,.8.13.77.76a26.5,26.5,0,0,1-6,15.8,26.93,26.93,0,0,1-34.88,6.16Z"/><path class="cls-3" d="M285,50.86c0-3.67,0-7.33,0-11,0-.54.13-.7.69-.7,3.71,0,7.43,0,11.15,0,.5,0,.66.13.66.65q0,11.1,0,22.19c0,.48-.13.63-.62.63q-5.61,0-11.22,0c-.59,0-.66-.22-.66-.73C285,58.23,285,54.54,285,50.86Z"/><path class="cls-3" d="M238.49,76.33c0,3.61,0,7.22,0,10.83,0,.6-.1.84-.79.83-3.66,0-7.32,0-11,0-.57,0-.73-.14-.73-.72q0-11,0-22c0-.6.19-.72.74-.72q5.53,0,11.07,0c.54,0,.7.14.7.69C238.48,68.91,238.49,72.62,238.49,76.33Z"/><path class="cls-3" d="M338.8,50.91c0,3.63,0,7.27,0,10.91,0,.61-.11.83-.79.83-3.56,0-7.13,0-10.7,0-.53,0-.7-.13-.7-.69q0-11.06,0-22.1c0-.57.19-.68.71-.68,3.59,0,7.19,0,10.78,0,.63,0,.7.23.7.76C338.79,43.59,338.8,47.25,338.8,50.91Z"/><path class="cls-3" d="M267.64,76.26c0-3.66,0-7.32,0-11,0-.62.18-.77.78-.77q5.28,0,10.55,0c.58,0,.8.11.8.75q0,11,0,22c0,.62-.18.77-.78.77-3.52,0-7,0-10.56,0-.67,0-.8-.21-.79-.83C267.66,83.53,267.64,79.89,267.64,76.26Z"/><path class="cls-3" d="M372.33,110c0-3,0-6,0-9,0-.53.12-.71.69-.7,1.88,0,1.88,0,1.88,1.84,0,5.6,0,11.21,0,16.82,0,.63-.14.84-.8.82-1.78,0-1.78,0-1.78-1.8Z"/><path class="cls-3" d="M337.53,116.1a3.32,3.32,0,1,1-6.63,0,3.32,3.32,0,1,1,6.63,0Z"/><path class="cls-3" d="M365.48,99.21v2.67a10.5,10.5,0,1,0,0,14.67v2.66h3v-20Zm-7.5,17.5a7.5,7.5,0,1,1,7.5-7.5A7.51,7.51,0,0,1,358,116.71Z"/></g></g></svg>