<svg xmlns="http://www.w3.org/2000/svg" viewBox="0 0 484 155"><defs><style>.cls-1{fill:#fff;}.cls-2{fill:#7351fd;}</style></defs><title>Asset 12</title><g id="Layer_2" data-name="Layer 2"><g id="Layer_1-2" data-name="Layer 1"><rect class="cls-1" width="484" height="155"/><path class="cls-2" d="M110.29,70.15a36.16,36.16,0,0,1,30.56-35.94c12.14-1.92,22.75,1.6,31.58,10.2a12,12,0,0,1,2.41,13.69,12.18,12.18,0,0,1-12,7,12.44,12.44,0,0,1-7.76-3.62,11.58,11.58,0,0,0-11.4-3.06A12.08,12.08,0,0,0,138,78.53c2.67,2.79,5.47,5.46,8.18,8.22.45.46.66.33,1,0,2.7-2.72,5.38-5.47,8.14-8.12a11.62,11.62,0,0,1,11.86-3,11.46,11.46,0,0,1,8.41,8.84A11.76,11.76,0,0,1,172.23,96c-8.25,8.28-16.54,16.52-24.79,24.81-.58.57-.89.64-1.49,0-8.56-8.6-17.21-17.11-25.69-25.79a34.89,34.89,0,0,1-9.81-21.52A32.43,32.43,0,0,1,110.29,70.15ZM147.93,39.8a32.81,32.81,0,0,0-10,1.29,30.29,30.29,0,0,0-21.37,32,28.92,28.92,0,0,0,8.06,17.72c7.09,7.29,14.36,14.41,21.54,21.62.41.4.65.44,1.06,0,1.33-1.37,2.69-2.69,4-4q8.34-8.34,16.69-16.67A5.94,5.94,0,0,0,169.74,86a5.71,5.71,0,0,0-4.13-4.55,6,6,0,0,0-6.27,1.68c-4,4-7.93,7.93-11.87,11.92-.58.59-.9.69-1.54,0C142,91.12,138,87.18,134,83.21a18,18,0,0,1-5.31-16,18.2,18.2,0,0,1,21.53-14.92,18.75,18.75,0,0,1,9.33,5A6,6,0,1,0,168,48.59,29.39,29.39,0,0,0,147.93,39.8Z"/><path class="cls-2" d="M356.62,75.35l7.91-18.14c.56-1.28,1.14-2.54,1.67-3.83a.84.84,0,0,1,.92-.6c2,0,4,0,6,0,.75,0,.67.22.42.75Q367.47,66.77,361.41,80c-1.39,3-2.76,6-4.22,9a15.65,15.65,0,0,1-3.61,4.85c-3.36,3-7.24,3.51-11.47,2.42-.55-.14-.71-.36-.53-.93.43-1.39.83-2.79,1.19-4.19.13-.49.3-.72.83-.62,3.77.75,6.07-1.23,8-4.15a5,5,0,0,0,.3-5.76c-3.64-7-7-14.12-10.41-21.22a1,1,0,0,0-1.09-.64c-2.41,0-4.82,0-7.22,0-.78,0-1,.18-1,1,0,8.83,0,17.67,0,26.5,0,.91-.27,1.11-1.11,1.07q-2.48-.09-5,0c-.74,0-.88-.22-.88-.91,0-8.84,0-17.67,0-26.51,0-.92-.22-1.2-1.14-1.14-1.36.08-2.73,0-4.09,0-.52,0-.73-.13-.72-.69,0-1.39,0-2.78,0-4.18,0-.49.17-.64.65-.67,1.43-.09,2.84-.28,4.27-.35.75,0,1-.24,1-1a25.79,25.79,0,0,1,.18-5.12,9.15,9.15,0,0,1,8.63-7.86,20.29,20.29,0,0,1,7.43.72c.59.17.83.37.6,1.06-.43,1.28-.77,2.6-1.1,3.92-.14.59-.36.72-1,.57a10.85,10.85,0,0,0-3.77-.29c-2.69.32-4,1.69-4.11,4.43,0,.88,0,1.78,0,2.66-.05.7.25.83.88.83,4,0,8,0,12,0a1.2,1.2,0,0,1,1.28.83q4.9,10.59,9.85,21.17C356.25,75,356.28,75.19,356.62,75.35Z"/><path class="cls-2" d="M273.46,56.1A15,15,0,0,1,281,52.19a16.86,16.86,0,0,1,19.59,12.28c1.64,6.32.87,12.28-3.22,17.54-5.5,7.07-16.43,8.46-23.16,2.67-.18-.15-.33-.4-.74-.34,0,.79,0,1.6,0,2.41,0,.48-.13.6-.58.59-1.77,0-3.55,0-5.33,0-.44,0-.65-.13-.6-.59a3.84,3.84,0,0,0,0-.48q0-22.47,0-44.95c0-.75.17-1.08,1-1.12,1.55-.07,3.09-.22,4.64-.39.72-.08.9.15.9.87,0,4.91,0,9.82,0,14.73C273.42,55.56,273.44,55.71,273.46,56.1ZM283.54,58a9.21,9.21,0,0,0-7.5,4.08,13.46,13.46,0,0,0-.93,14.56,10,10,0,0,0,17.32,1.08c2.59-3.78,2.81-8,1.49-12.27A10.47,10.47,0,0,0,283.54,58Z"/><path class="cls-2" d="M253.75,55.86a.9.9,0,0,0,0-.15c.09-2.36.09-2.36,2.47-2.56,1.07-.09,2.16-.11,3.22-.27.73-.11.84.16.83.8,0,4.08,0,8.17,0,12.25,0,6.88,0,13.75,0,20.62,0,.64-.16.81-.79.8-1.64,0-3.29,0-4.94,0-.65,0-.83-.21-.79-.81s0-1.45,0-2.14c-.34-.16-.47.08-.62.21a16.33,16.33,0,0,1-20.76-.1c-5.21-4.41-6.94-10.17-6.31-16.77a17.59,17.59,0,0,1,4.94-10.84c5.67-5.89,15.78-6.87,22.1-1.39C253.31,55.65,253.43,55.86,253.75,55.86ZM243.59,58A10,10,0,0,0,235.12,62c-3.1,4.07-3.36,10.73-.65,15.17A10.06,10.06,0,0,0,252,76.93a13.67,13.67,0,0,0,.27-13.21A9.72,9.72,0,0,0,243.59,58Z"/><path class="cls-2" d="M191.5,69.13a17.31,17.31,0,0,1,7.73-14.42,17.12,17.12,0,0,1,23.66,4.72c.4.6.4.9-.28,1.27-1.47.82-2.88,1.72-4.31,2.61-.39.24-.6.26-.89-.19-2.4-3.75-5.82-5.7-10.28-5-4.7.75-7.46,3.84-8.53,8.36-1,4.1-.57,8.09,2,11.58a9.94,9.94,0,0,0,16.5-.6c.55-.84.91-.85,1.67-.34,1.28.86,2.63,1.65,4,2.42.52.29.55.53.23,1A16.24,16.24,0,0,1,211.57,88a16.49,16.49,0,0,1-15.23-5C192.92,79.41,191.52,75,191.5,69.13Z"/><path class="cls-2" d="M313.82,70.22c0,5.36,0,10.71,0,16.06,0,.91-.27,1.11-1.11,1.07-1.62-.06-3.24-.06-4.85,0-.8,0-1-.22-1-1,0-8.14,0-16.28,0-24.42,0-2.57,0-5.13,0-7.7,0-.56.1-.87.76-.91,1.7-.1,3.41-.21,5.11-.42.95-.12,1.08.26,1.08,1.08C313.81,59.39,313.82,64.81,313.82,70.22Z"/><path class="cls-2" d="M310.36,48.19A4.67,4.67,0,1,1,315,43.6,4.57,4.57,0,0,1,310.36,48.19Z"/></g></g></svg>