<svg xmlns="http://www.w3.org/2000/svg" viewBox="0 0 484 155"><defs><style>.cls-1{fill:#fff;}.cls-2{fill:#944cf3;}.cls-3{fill:#934bf3;}</style></defs><title>Asset 7</title><g id="Layer_2" data-name="Layer 2"><g id="Layer_1-2" data-name="Layer 1"><rect class="cls-1" width="484" height="155"/><path class="cls-2" d="M156.87,96.54c-.19-.65-.81-.68-1.32-.81-7.72-2-11.67-7.37-12.75-14.8-.83-5.73-.16-11.37,3.79-16.09,5.32-6.36,12.34-7.47,19.89-5.5,7,1.82,10.86,6.89,12.09,13.8,1.18,6.64.16,12.86-4.64,18A16.21,16.21,0,0,1,164,96.09c-.39,0-.8,0-1,.45Zm14.65-19a17.29,17.29,0,0,0-.9-5.72,9.7,9.7,0,0,0-9.21-7c-5-.19-8.52,1.86-10.24,6.22a16.46,16.46,0,0,0,.48,13.74c1.65,3.38,4.54,5,8.28,5.24,4,.23,7.24-1,9.47-4.47A15.15,15.15,0,0,0,171.52,77.58Z"/><path class="cls-2" d="M101.1,59.19c9.45,0,18.9,0,28.35-.1,1.44,0,2,.5,1.91,1.91-.07.77,0,1.55,0,2.33-.05,1.33-.56,2.1-2.13,2-2.43-.11-4.89.08-7.32-.07-1.92-.11-2.42.61-2.4,2.41.08,8.39,0,16.78.08,25.17,0,2.16-.44,3-2.83,2.93-4.73-.17-4.73,0-4.73-4.72,0-7.77-.06-15.54,0-23.3,0-2-.63-2.47-2.56-2.51-3.11-.06-6.27.66-9.33-.44V59.25l.48,0C100.88,59.63,101,59.47,101.1,59.19Z"/><path class="cls-3" d="M326.51,59.1c2.49-.73,3.67.71,4.66,3.29C334.46,71,338,79.57,341.51,88.1c.89,2.13.64,4.26.69,6.4a1.4,1.4,0,0,1-.4,1c-1.2,1-5.23,0-5.87-1.45a2.12,2.12,0,0,1-.11-.21c-2.6-6-2.6-6-9.16-6a4.91,4.91,0,0,1-.94,0c-5.36-1-8.8.7-10,6.38-.57,2.83-3.27,1.32-5,1.46s-1.12-1.47-1.23-2.43c-.5-4.28,2-7.74,3.38-11.46,2.41-6.39,5.06-12.7,7.68-19C322.33,58.58,321.09,59.16,326.51,59.1Zm-.31,9.48-.6,0c-1.53,4-3.08,8-4.57,12-.32.86.37,1,1.06,1.06,2.51,0,5,0,7.52,0,.85,0,1.48-.28,1.13-1.22C329.26,76.43,327.72,72.51,326.2,68.58Z"/><path class="cls-3" d="M195,77.21c0-5.28.05-10.56,0-15.84,0-1.67.39-2.34,2.23-2.3,6.05.12,12.13-.13,18.17.15,8.21.39,12.74,7.38,10,15-1.49,4.17-5.74,6.72-11.58,6.84-3.06.07-6.14.1-9.2,0-1.81-.07-2.32.63-2.27,2.31.09,3.49,0,7,0,10.48,0,1.38-.4,1.89-1.87,1.93-5.51.15-5.51.2-5.51-5.31Zm14.18-2.54c1.49,0,3,0,4.46,0,3.23,0,4.87-1.45,5-4.26.16-3.13-1.38-4.86-4.79-5s-6.58-.05-9.87-.11c-1.25,0-1.66.56-1.64,1.69,0,2,.05,4,0,6,0,1.37.66,1.72,1.9,1.68C205.88,74.63,207.53,74.67,209.18,74.67Z"/><path class="cls-2" d="M383.26,59.3c1,1.65.41,3.45.37,5.17,0,1-1.12.86-1.89.86-2.52,0-5,.1-7.56,0-1.76-.08-2.31.54-2.3,2.26C372,76,371.83,84.5,372,93c0,2.28-.65,2.92-2.92,2.84-4.65-.15-4.65,0-4.65-4.55,0-7.84-.07-15.69,0-23.53,0-2-.61-2.57-2.55-2.45-2.51.14-5,0-7.56,0-1.32,0-1.81-.48-1.8-1.78.07-5.36-.44-4.4,4.28-4.42,8.66,0,17.32,0,26,.07C382.89,59.47,383,59.63,383.26,59.3Z"/><path class="cls-2" d="M268.43,80.71a46.83,46.83,0,0,0,0-7.49l0,0c4.71,0,9.43-.07,14.15,0,1.55,0,2.06-.48,2-2-.09-3.41,0-6.83-.05-10.24,0-1.37.4-1.9,1.86-2,5.72-.22,5.72-.27,5.72,5.33,0,9.54-.06,19.08,0,28.62,0,2.07-.45,2.85-2.72,2.78-4.89-.16-4.89,0-4.89-4.79,0-2.79-.07-5.59,0-8.38.05-1.5-.45-2-2-2-4.72.09-9.44,0-14.15.05Z"/><path class="cls-3" d="M268.4,80.68q.06,6.84.14,13.68c0,.15,0,.36,0,.45-1.66,2-3.9.53-5.84.91-1.11.22-1.48-.48-1.47-1.52,0-4,.05-7.9,0-11.84,0-1.36.57-1.76,1.84-1.7,1.8.07,3.61,0,5.41,0Z"/><path class="cls-3" d="M268.43,73.22c-1.72,0-3.45,0-5.17.06-1.47.08-2.14-.32-2.09-1.92.1-3.48.09-7,0-10.45,0-1.48.59-1.8,1.95-1.83,5.42-.13,5.44-.17,5.42,5.13,0,3-.1,6-.14,9Z"/><path class="cls-3" d="M101.1,59.19c-.09.28-.22.44-.47.11Z"/><path class="cls-3" d="M383.26,59.3c-.25.33-.37.17-.47-.11Z"/></g></g></svg>