<svg xmlns="http://www.w3.org/2000/svg" viewBox="0 0 484 155"><defs><style>.cls-1{fill:#fff;}.cls-2{fill:#020202;}.cls-3{fill:#030303;}</style></defs><title>Asset 11</title><g id="Layer_2" data-name="Layer 2"><g id="Layer_1-2" data-name="Layer 1"><rect class="cls-1" width="484" height="155"/><path class="cls-2" d="M373.68,46.66c4.4.85,7.87,3.61,11.67,5.68,4.07,2.22,8.09,4.54,12.09,6.88a9.63,9.63,0,0,1,.1,16.8q-9.77,5.73-19.66,11.22a9.68,9.68,0,0,1-14.42-8.31c-.1-3.82-1-4.34-4.32-2.45l-15.71,9c-.81.46-1.61.9-1.63,2s.81,1.62,1.66,2.1L360,98.94c2.19,1.24,3.49.48,3.5-2,0-.74,0-1.48,0-2.21A1.85,1.85,0,0,1,366.23,93c1.63.82,3.18,1.78,4.75,2.71a1.78,1.78,0,0,1,.84,1.53c.22,3.91-1,7.2-4.39,9.39a9.44,9.44,0,0,1-10.35.25q-9.63-5.44-19.2-11a9.65,9.65,0,0,1,0-16.95q9.55-5.55,19.2-11a9.73,9.73,0,0,1,14.72,8.65v.39c0,2.53,1.29,3.3,3.47,2.06l12.2-7c1.54-.88,3.1-1.75,4.63-2.64,1.82-1.07,1.86-2.65.06-3.68Q383.63,60.92,375,56c-1.8-1-3.16-.2-3.19,1.88,0,.82,0,1.65,0,2.47A1.88,1.88,0,0,1,369,62.07c-1.54-.8-3-1.7-4.53-2.57a2,2,0,0,1-1-1.84c-.24-5.52,2.63-9.35,8.05-10.68.23-.06.54,0,.62-.32Z"/><path class="cls-3" d="M133.15,81.26c0,3.94,0,7.88,0,11.82,0,.84-.2,1.12-1.08,1.1-2.08-.07-4.17-.07-6.25,0-.94,0-1.15-.28-1.15-1.17,0-7.79,0-15.58,0-23.37,0-1-.21-1.57-1.34-1.36a1.13,1.13,0,0,1-.26,0c-3,0-3,0-3-3.09,0-1.09,0-2.17,0-3.25,0-.69.21-.91.89-.88,1,0,1.91,0,2.86,0,.7,0,.89-.22.89-.89,0-1.69,0-3.38.09-5.06.31-4.56,2.61-6.91,7.16-7.42,2-.23,4.08-.13,6.12-.17.73,0,.87.26.85.91,0,1.56,0,3.12,0,4.68,0,.71-.25.83-.89.85-4.44.14-4.91.64-4.91,5,0,2.06,0,2.06,2,2.06,2.57,0,5.13,0,7.69,0,.79,0,1.06-.19,1-1-.06-2,0-4,0-6,0-.81.13-1.15,1.05-1.12,2.12.07,4.26.06,6.38,0,.85,0,1,.27,1,1-.05,2,0,4.07,0,6.11,0,.72.17,1,.93,1,1.17-.06,2.35,0,3.52,0,.63,0,.82.2.81.82,0,1.86-.05,3.72,0,5.58,0,.73-.27.86-.9.83-1.13,0-2.26,0-3.39,0-.71,0-1,.15-1,.92,0,4.76,0,9.53,0,14.29,0,2.33.92,3.15,3.41,3.27,1.86.09,1.86.09,1.86,2,0,1.51,0,3,0,4.54,0,.42.12.9-.59.89a34.76,34.76,0,0,1-7.14-.36c-3.78-.84-5.75-3.28-5.87-7.64-.14-5.06-.06-10.13-.08-15.19,0-2.69,0-2.69-2.7-2.69-2.17,0-4.35.06-6.52,0-1.13-.05-1.55.19-1.52,1.45C133.21,73.56,133.15,77.41,133.15,81.26Z"/><path class="cls-3" d="M229.92,65.2c7.44-8.46,22.56-5.25,25.8,7.56,1.68,6.62.31,12.66-4.69,17.56a15.22,15.22,0,0,1-17.24,2.84,13.56,13.56,0,0,1-3.4-2.59c-.41.32-.22.74-.22,1.09,0,4.85-.06,9.7,0,14.54,0,1.26-.39,1.51-1.53,1.46-1.95-.09-3.91-.07-5.87,0-.93,0-1.15-.27-1.14-1.17,0-9.26,0-18.53,0-27.79,0-5.5,0-11,0-16.5,0-.91.24-1.18,1.15-1.15q3,.11,6,0c.95,0,1.2.3,1.13,1.18S229.92,64,229.92,65.2Zm0,12.32a9,9,0,1,0,18,.23c0-5.33-3.87-9.52-8.9-9.55A9,9,0,0,0,230,77.52Z"/><path class="cls-2" d="M108.1,64.83c0-.91.05-1.85,0-2.77s.26-1,1-1c2,0,4.08,0,6.12,0,.75,0,1.06.11,1.05,1q0,15.59,0,31.16c0,.68-.1,1-.91,1q-3.18-.09-6.38,0c-.8,0-1-.3-.91-1,0-1,0-2,0-3-.16,0-.28,0-.31,0-5.72,6.38-16,5.47-21.52-.35-7.85-8.26-5.88-24.27,6.3-28.5,5.53-1.93,10.61-1.06,14.91,3.15a3.89,3.89,0,0,0,.39.32S108,64.86,108.1,64.83ZM108,77.56c0-5.4-3.88-9.38-9.06-9.36A9.41,9.41,0,0,0,99,87C104.17,87,108,82.94,108,77.56Z"/><path class="cls-2" d="M285.77,90c-4.78,4.84-10.26,5.83-16.21,3.56-6.17-2.37-9.33-7.27-10.09-13.67A17.21,17.21,0,0,1,264.39,65c5.48-5.52,15.29-6.53,21-.28a2.86,2.86,0,0,0,.38.18c0-.91.06-1.75,0-2.58s.16-1.37,1.24-1.31c1.9.09,3.82.08,5.73,0,1,0,1.25.2,1.24,1.2-.05,5.5,0,11,0,16.49,0,4.76,0,9.52,0,14.28,0,.9-.23,1.19-1.15,1.16-2-.07-4.09-.06-6.13,0-.75,0-1-.22-.93-1C285.82,92.24,285.77,91.25,285.77,90Zm-9-21.81c-5.14,0-9,4-9,9.43S271.6,87,276.66,87a9.41,9.41,0,0,0,.06-18.8Z"/><path class="cls-3" d="M181.91,79.81c-3.87,0-7.74,0-11.61,0-.83,0-1.13.1-.89,1.06.83,3.27,2.76,5.5,6.07,6.27a8.71,8.71,0,0,0,9.36-3,2.33,2.33,0,0,1,2.15-1c1.95.07,3.91.09,5.86,0,1.3-.07,1.32.36.9,1.38-2.4,5.9-6.94,9-13.09,10A18,18,0,0,1,169.84,93c-6.29-3-9.1-8.24-9.32-15a16.6,16.6,0,0,1,10.11-16.13c6.78-2.86,14.77-1.38,19.62,3.73,3.52,3.71,4.8,8.22,4.54,13.24,0,.85-.43,1-1.15,1C189.73,79.8,185.82,79.81,181.91,79.81Zm-4.49-5.17h7c1.54,0,1.54,0,1-1.51a8.12,8.12,0,0,0-8.09-5.37,8.3,8.3,0,0,0-7.88,5.91c-.19.71-.11,1,.74,1C172.65,74.61,175,74.64,177.42,74.64Z"/><path class="cls-2" d="M297.23,61.07c3.13,0,6,0,8.95,0,.87,0,1,.58,1.19,1.1q3.81,8.66,7.6,17.33l.37.84c.46-.22.51-.68.68-1q4.13-8.58,8.21-17.19a1.52,1.52,0,0,1,1.66-1c2.68.06,5.36,0,8.23,0-.53,1.11-1,2.07-1.43,3q-10.32,21.21-20.63,42.42a1.73,1.73,0,0,1-1.88,1.14c-2.21-.08-4.43,0-6.65,0-1.49,0-1.49,0-.86-1.29,2.42-5,4.82-10,7.28-14.9a2.6,2.6,0,0,0,0-2.51c-4.11-8.91-8.16-17.84-12.23-26.76Z"/><path class="cls-2" d="M207,64.13c2.71-3.27,5.86-4.23,9.65-3.31a1.19,1.19,0,0,1,1.11,1.4c-.07,2.41,0,4.83,0,7.37-.74-.31-1.36-.6-2-.83-4.91-1.81-8.43.62-8.45,5.85,0,5.62,0,11.25,0,16.88,0,2.67,0,2.67-2.71,2.67-1.56,0-3.13,0-4.69,0-.78,0-1-.15-1-1q0-15.59,0-31.17c0-.72.19-1,.94-.95,2.09,0,4.18.06,6.26,0,.84,0,1.07.25,1,1C207,62.67,207,63.27,207,64.13Z"/></g></g></svg>