<svg xmlns="http://www.w3.org/2000/svg" viewBox="0 0 484 155"><defs><style>.cls-1{fill:#fff;}.cls-2{fill:#e9038b;}.cls-3{fill:#e8078d;}</style></defs><title>Asset 10</title><g id="Layer_2" data-name="Layer 2"><g id="Layer_1-2" data-name="Layer 1"><rect class="cls-1" width="484" height="155"/><path class="cls-2" d="M115.51,83.67A60.67,60.67,0,0,1,113,96.48a42.75,42.75,0,0,1-4.09,9.22c-.43.7-.93,1.37-1.39,2h-.28c-1.77-1-3.53-2.09-5.32-3.09-.67-.38-.72-.65-.31-1.35,3.74-6.4,5.36-13.4,5.92-20.72a54,54,0,0,0,.22-6.85c-.44-8.1-2-15.92-6.19-23-.46-.76-.18-1,.41-1.32,1.56-.86,3.15-1.69,4.65-2.65.81-.52,1.13-.16,1.52.44a44.09,44.09,0,0,1,5.66,12.9,45.21,45.21,0,0,1,1.73,9.59Z"/><path class="cls-3" d="M402.82,95.88c-3.08,0-6.16,0-9.23-.1-.44,0-.91.18-1.31-.17,2.9,0,5.8-.08,8.7,0,1.33.05,1.59-.42,1.59-1.63-.05-9.22,0-18.44,0-27.66l.27-.25Z"/><path class="cls-2" d="M207.51,57.34c-1.07-.29-2-.63-2.92-.79-2.54-.43-4.13.82-4.29,3.39-.11,1.74,0,3.49-.1,5.23,0,.69.17,1,.92,1,2.68,0,5.35,0,8,0,.82,0,1-.31,1-1a38.62,38.62,0,0,1,.39-7.83A13.21,13.21,0,0,1,225,47.4c.77.12,1.56.38,2.33.58a1,1,0,0,1,.81,1.11c0,2.48,0,5,0,7.45,0,.74-.29.91-.92.6a7,7,0,0,0-1.85-.55c-2.7-.47-4.35.7-4.53,3.4-.13,1.79,0,3.59-.07,5.38,0,.77.42.77,1,.76,1.71,0,3.43.07,5.13,0,1.09-.06,1.32.34,1.29,1.33-.06,2-.06,4,0,6.07,0,1-.18,1.51-1.35,1.41-1.33-.12-2.68,0-4,0-2,0-2,0-2,1.92,0,5.84,0,11.68,0,17.51,0,1.24-.32,1.55-1.53,1.5-2.63-.09-5.27-.08-7.89,0-1.08,0-1.32-.34-1.31-1.34,0-6,0-12,0-18.06,0-1.16-.21-1.62-1.49-1.56-2.4.11-4.81.09-7.2,0-1.08,0-1.29.34-1.28,1.33,0,6,0,12,0,18.07,0,1.17-.23,1.62-1.51,1.56-2.58-.1-5.17-.09-7.75,0-1.2,0-1.46-.37-1.45-1.49,0-6,0-11.95,0-17.93,0-1.16-.22-1.74-1.49-1.52-.31.06-.65,0-1,0-1,.14-1.27-.23-1.23-1.21.07-2.15.05-4.32,0-6.48,0-.82.19-1.1,1.07-1.1,2.59,0,2.57,0,2.6-2.7,0-3-.11-6,1.32-8.89,2.76-5.5,10-8.62,15.6-6.65a1.32,1.32,0,0,1,1.06,1.48C207.48,52,207.51,54.57,207.51,57.34Zm-7.54,3h-.14v5.44H200Z"/><path class="cls-2" d="M178.76,95.78c-1.71,0-3.42,0-5.13,0a1.16,1.16,0,0,1-1.3-.9c-.68-1.9-1.42-3.78-2.09-5.68a1.33,1.33,0,0,0-1.49-1c-4.48,0-8.95,0-13.43,0a1.27,1.27,0,0,0-1.41,1c-.73,1.92-1.56,3.82-2.28,5.75-.23.6-.49.9-1.17.89-3.41,0-6.83,0-10.24,0-1.15,0-.89-.51-.62-1.2Q146.32,77.22,153,59.84c.85-2.18,1.7-4.36,2.5-6.55a1.36,1.36,0,0,1,1.5-1.06c3.46.06,6.92.05,10.38,0a1.24,1.24,0,0,1,1.38,1Q176.61,74,184.51,94.73c.34.91.14,1.1-.77,1.07C182.08,95.74,180.42,95.78,178.76,95.78Zm-21.13-16.2c.35.45.84.3,1.28.3q3.15,0,6.32,0c.44,0,.93.15,1.28-.28.11-1.47-.67-2.7-1.09-4-1-3.18-2.1-6.34-3.28-9.89-1,3-2,5.72-2.85,8.41A28.6,28.6,0,0,0,157.63,79.58Z"/><path class="cls-2" d="M402.55,66.34c0,9.22,0,18.44,0,27.66,0,1.21-.26,1.68-1.59,1.63-2.9-.1-5.8,0-8.7,0-.5-.82,0-1.77-.37-2.79a9.71,9.71,0,0,1-6.31,3.6h-5.42c-5-.86-8.37-3.8-10.53-8.2-3.45-7-1.51-16.55,5.54-20.91a10.65,10.65,0,0,1,4.87-1.78h5.6a9.78,9.78,0,0,1,6.13,3.19c.1-.11.2-.16.2-.23.22-2.36.22-2.36,2.6-2.36,2.22,0,4.43,0,6.64,0C401.67,66.14,402.16,66,402.55,66.34Zm-16.89,8c-4.3-.05-6.61,3-6.89,6.77-.24,3.42,3.11,6.43,6.87,6.43a6.6,6.6,0,1,0,0-13.2Z"/><path class="cls-2" d="M230.24,77.45c.54-5.92,6.41-11.52,12.47-11.91h7.2a13.91,13.91,0,0,1,12,10.76c.33,1.73.26,3.43.52,5.11.19,1.19-.25,1.3-1.19,1.29-5.58,0-11.16,0-16.74,0a23.09,23.09,0,0,1-2.76,0c-1.27-.14-1.34.48-1.21,1.46.53,3.85,3.72,5.75,7.76,5a4.68,4.68,0,0,0,3.22-1.94,1.56,1.56,0,0,1,1.49-.71c2.49,0,5,0,7.47,0,1.72,0,1.84.19,1.16,1.91a11.82,11.82,0,0,1-5.37,6,13.74,13.74,0,0,1-6.11,2H243.8c-6.57-.19-13-5.87-13.55-11.93Q230.24,81,230.24,77.45Zm16.46-.84c1.66,0,3.32,0,5,0,1,0,1.06-.3.73-1.11a6.45,6.45,0,0,0-11.49.14c-.29.76-.1,1,.68,1C243.29,76.59,245,76.61,246.7,76.61Z"/><path class="cls-2" d="M331.24,66.13c3.83,0,7.55,0,11.27,0,.78,0,.82.67,1,1.12,1.94,4.07,3.86,8.17,5.78,12.25.23.49.47,1,.8,1.65,1.46-3.11,2.84-6,4.2-9,.78-1.66,1.57-3.31,2.29-5a1.54,1.54,0,0,1,1.64-1.09c3.5.06,7,0,10.66,0a41.22,41.22,0,0,1-2.54,5.11c-3,5.74-6,11.46-9,17.18-1.1,2.09-2.21,4.16-3.27,6.27a1.68,1.68,0,0,1-1.8,1.12c-1.52-.1-3.05,0-4.57,0A1.34,1.34,0,0,1,346.3,95q-7.41-14.11-14.84-28.22A4.27,4.27,0,0,1,331.24,66.13Z"/><path class="cls-2" d="M307.8,85.38c0,3.08-.05,6.16,0,9.24,0,1-.36,1.2-1.28,1.18-2.67,0-5.35-.07-8,0-1.05,0-1.31-.29-1.3-1.32,0-6.07,0-12.13.05-18.2,0-1.16-.31-1.49-1.46-1.44-2,.09-2,0-2-1.94s0-3.68-.06-5.51c0-.88.15-1.32,1.21-1.3,2.24.05,2.24,0,2.24-2.22,0-1.84,0-3.68,0-5.51,0-.78.1-1.15,1-1.13,2.86.06,5.72,0,8.58,0,.81,0,1,.27,1,1,0,2.26,0,4.51,0,6.76,0,.94.3,1.17,1.17,1.12,1.29-.06,2.59,0,3.88,0,.71,0,1,.22,1,.94q0,3.45,0,6.9c0,.73-.29,1-1,.93-1.29,0-2.58,0-3.87,0-.91,0-1.18.23-1.16,1.14C307.83,79.13,307.8,82.26,307.8,85.38Z"/><path class="cls-2" d="M285.33,65.55A8.41,8.41,0,0,1,289,66.8l-.08,8.7c-1-.37-1.82-1.06-2.85-1.35a7,7,0,0,0-7.38,1.75A6.85,6.85,0,0,0,277,83.25c1.4,4.63,6.53,6.26,11,3.78l.95-.54.06,8.64a9.42,9.42,0,0,1-4.23,1.29h-6c-6.65-.69-12.62-6.89-13.06-13.63-.41-6.13,1.63-11.2,6.79-14.76A13,13,0,0,1,279,65.54Z"/><path class="cls-3" d="M317.53,80.89c0-4.5,0-9,0-13.5,0-1,.31-1.31,1.33-1.29,2.72.07,5.44.05,8.16,0,.85,0,1.22.15,1.22,1.11q0,13.71,0,27.42c0,.91-.3,1.18-1.2,1.16-2.76,0-5.53-.06-8.29,0-1,0-1.22-.37-1.22-1.28C317.55,90,317.53,85.44,317.53,80.89Z"/><path class="cls-2" d="M81.18,68.9A6.62,6.62,0,0,1,88,62.1a6.78,6.78,0,1,1-.07,13.55A6.66,6.66,0,0,1,81.18,68.9Z"/><path class="cls-2" d="M88,81.54a6.55,6.55,0,0,1,6.75,7.07,6.76,6.76,0,0,1-13.52-.26A6.61,6.61,0,0,1,88,81.54Z"/><path class="cls-2" d="M322.91,49a5.9,5.9,0,0,1,5.91,6,6,6,0,0,1-5.95,5.8,5.89,5.89,0,1,1,0-11.78Z"/><path class="cls-3" d="M115.51,83.67v-12A45,45,0,0,1,115.51,83.67Z"/><path class="cls-3" d="M285.33,65.55H279A12.28,12.28,0,0,1,285.33,65.55Z"/><path class="cls-3" d="M288.92,75.5l.08-8.7a.73.73,0,0,1,.29.71c0,2.63,0,5.26,0,7.89a.28.28,0,0,1-.15.2S289,75.54,288.92,75.5Z"/><path class="cls-3" d="M289,95.13l-.06-8.64c.38-.3.35.09.35.25q0,4,0,8C289.26,94.84,289.08,95,289,95.13Z"/><path class="cls-3" d="M385.66,65.53h-5.6A10.15,10.15,0,0,1,385.66,65.53Z"/><path class="cls-3" d="M249.91,65.53h-7.2A17.13,17.13,0,0,1,249.91,65.53Z"/><path class="cls-3" d="M230.24,77.45q0,3.52,0,7.06A15.45,15.45,0,0,1,230.24,77.45Z"/><path class="cls-3" d="M243.8,96.44h6.35A15.27,15.27,0,0,1,243.8,96.44Z"/><path class="cls-3" d="M278.78,96.41h6A12.73,12.73,0,0,1,278.78,96.41Z"/><path class="cls-3" d="M380.18,96.41h5.42A10.59,10.59,0,0,1,380.18,96.41Z"/><ellipse class="cls-3" cx="199.9" cy="63.05" rx="0.1" ry="3.85"/><path class="cls-3" d="M157.63,79.58l8.88,0c-.35.43-.84.28-1.28.28q-3.16,0-6.32,0C158.47,79.88,158,80,157.63,79.58Z"/></g></g></svg>