<svg xmlns="http://www.w3.org/2000/svg" viewBox="0 0 484 155"><defs><style>.cls-1{fill:#fff;}.cls-2{fill:#21252e;}.cls-3{fill:#20242d;}</style></defs><title>Asset 16</title><g id="Layer_2" data-name="Layer 2"><g id="Layer_1-2" data-name="Layer 1"><rect class="cls-1" width="484" height="155"/><path class="cls-2" d="M129.77,66.33c3.34,0,6.49.06,9.63,0,1.45,0,1.73.75,2.1,1.89,2.36,7.38,4.8,14.73,7.41,22.66,2.22-6.76,4.29-13,6.31-19.19,1.41-4.35,2.71-5.32,7.25-5.34,6.17,0,6.2,0,8.15,5.77,2,6.1,4,12.22,6.19,18.84,2.5-7.73,4.88-14.9,7.11-22.11.58-1.89,1.4-2.72,3.51-2.55,2.74.22,5.52,0,8.62,0-2.13,6.45-4.17,12.66-6.23,18.87s-4.22,12.45-6.21,18.71c-.51,1.59-1.23,2.2-2.92,2.1-2.95-.18-6.5.83-8.71-.48s-2.27-5.16-3.24-7.91C166.87,92.29,165,87,162.85,80.73c-2,5.69-3.67,10.53-5.34,15.37-.93,2.69-1.93,5.35-2.74,8.07a2.26,2.26,0,0,1-2.52,1.84c-9.26.34-9.27.38-12.23-8.44q-4.83-14.37-9.61-28.76C130.17,68.08,130,67.32,129.77,66.33Z"/><path class="cls-3" d="M280.86,71c0-5.81,0-11.1,0-16.4a7.33,7.33,0,0,1,10.41-6.35c.82.42.63,1.14.63,1.79,0,18,0,36,0,54.06,0,1.62-.59,2-2.08,2-2.3,0-4.62.09-6.14-2.09-1.23-1.77-2.12,0-2.91.39-8.51,4.45-16.94,4.32-25.09-.64a20.24,20.24,0,0,1-6.44-28.61,20.79,20.79,0,0,1,28.94-5.87Zm-23.1,15.4c0,6.86,5,12.4,11.24,12.41s11.4-5.71,11.35-12.38-4.89-12-11.17-12.06C262.67,74.26,257.78,79.42,257.76,86.35Z"/><path class="cls-2" d="M230.14,70.75c2.18-4.14,5.6-5.54,10.19-4.43,1.14.27,1.06,1,1.06,1.74q0,18.15,0,36.31c0,.65.14,1.53-.87,1.55-2.24,0-4.91.75-6.44-1.22s-2.61-1.1-4.08-.29c-9.22,5.07-21,3.62-28.29-3.46A20.17,20.17,0,0,1,200,73.4a20.72,20.72,0,0,1,27.67-4.25C228.5,69.69,229.32,70.21,230.14,70.75ZM207.23,86.39c0,6.82,5.08,12.39,11.3,12.37S229.92,93,229.86,86.34s-5-12-11.23-12C212.14,74.27,207.24,79.46,207.23,86.39Z"/><path class="cls-2" d="M338,75.67c-5.61,0-10.53-.12-15.45.06-2.17.07-2.61-.68-2.56-2.67.13-4.84,1.93-6.72,6.87-6.72,7.71,0,15.42,0,23.12,0,1.34,0,3.51-.91,3.88.75.42,1.94.88,4.21-.71,6.19-4.18,5.22-8.26,10.52-12.37,15.79l-5.83,7.5c5.63,0,10.61.17,15.57-.06,2.76-.13,3.75.46,3.62,3.45-.27,6-.08,6-6.05,6-8.3,0-16.6,0-24.9,0-1.43,0-3.7,1-4.17-.79-.52-2-.73-4.34,1-6.42,4.84-6,9.49-12.06,14.22-18.11C335.3,79.16,336.42,77.69,338,75.67Z"/><path class="cls-2" d="M311.85,86c0,5.8-.1,11.6,0,17.4.05,2.13-.66,2.72-2.68,2.57-2.26-.16-4.54-.08-6.81,0-1.25,0-1.74-.41-1.73-1.7,0-10.91,0-21.82.06-32.72,0-3.24,2.41-5.14,5.92-5.24,5.19-.13,5.19-.13,5.19,5Z"/><path class="cls-2" d="M299.48,55.11a6.71,6.71,0,0,1,6.89-6.61A6.81,6.81,0,0,1,313,55.18,6.92,6.92,0,0,1,306.14,62,6.72,6.72,0,0,1,299.48,55.11Z"/></g></g></svg>