<svg xmlns="http://www.w3.org/2000/svg" viewBox="0 0 484 155"><defs><style>.cls-1{fill:#fff;}.cls-2{fill:#262223;}.cls-3{fill:#231f20;}.cls-4{fill:#fdfdfd;}</style></defs><title>Asset 15</title><g id="Layer_2" data-name="Layer 2"><g id="Layer_1-2" data-name="Layer 1"><rect class="cls-1" width="484" height="155"/><path class="cls-2" d="M210.37,75.4c1.3-1.23,2.4-2.4,3.64-3.41A25.59,25.59,0,0,1,231.45,66a2.69,2.69,0,0,0,1.58-.57c4-2.39,8.12-4.26,12.86-4.43a8.48,8.48,0,0,1,6.32,2,3.74,3.74,0,0,1,1.07,4.39,14.83,14.83,0,0,1-4.49,6,2.34,2.34,0,0,1-3.34-.33,2.46,2.46,0,0,1,.09-3.38,19.31,19.31,0,0,0,2.74-3.33,4.85,4.85,0,0,0-3.12-.35,23.67,23.67,0,0,0-12.37,5.87,3.74,3.74,0,0,0-.37.48l4.77,1.79a20.28,20.28,0,0,1,4,2c4,2.61,5.72,6.27,4.6,10.87-2,8.16-6.56,14.17-15,16.52-3.21.89-6.41.82-9.28-1.2-3.48-2.46-4.28-6-3.94-10a28.07,28.07,0,0,1,3-10.14A2.49,2.49,0,0,1,224,80.88a2.52,2.52,0,0,1,1,3.61,26.53,26.53,0,0,0-2.47,7.87,9.45,9.45,0,0,0,0,2.6c.42,2.79,2.1,4.21,4.94,4.11a12.19,12.19,0,0,0,7.46-3,17.93,17.93,0,0,0,6-10,4.84,4.84,0,0,0-2.08-5.41A23.23,23.23,0,0,0,233,78a18,18,0,0,1-4.39-2,3.84,3.84,0,0,1-1.77-3.36c0-1.22-.13-1.33-1.4-1a21.06,21.06,0,0,0-9.78,5.6c-5.33,5.35-8.24,12-9.9,19.22-.22.92-.4,1.86-.64,2.77a2.48,2.48,0,1,1-4.88-.89c.36-2.83,1.29-5.54,1.86-8.33.73-3.55,1.54-7.09,2.31-10.64.05-.27.05-.55.09-1a3.76,3.76,0,0,0-1.24,1.32c-4.49,5.69-9.16,11.21-14.79,15.85-2.49,2-5.11,3.94-8.34,4.74-3.6.89-6.35-.13-8.36-3.21-.43-.65-.77-.49-1.31-.33-3.35,1-6.71,1.46-10.12.29A10.47,10.47,0,0,1,157,95.2a2.48,2.48,0,0,1,3-4c3.18,2.33,6.47,1.66,9.82.51.72-.25.56-.8.61-1.31A43,43,0,0,1,182,65c2.07-2.23,4.6-3.79,7.85-3.69a5.52,5.52,0,0,1,5.54,5.39,13.54,13.54,0,0,1-1.41,6.71,49.73,49.73,0,0,1-17,20.27c-.33.22-1,.3-.84.86a1.65,1.65,0,0,0,1.29,1.06,4.56,4.56,0,0,0,2.54-.42,27.67,27.67,0,0,0,8.2-5.93A108.64,108.64,0,0,0,204,70a11.47,11.47,0,0,1,1.74-2.25,3,3,0,0,1,3.43-.72A3,3,0,0,1,211,70C211.05,71.73,210.51,73.44,210.37,75.4Zm-34.73,13c.36-.24.62-.37.84-.55a46,46,0,0,0,12.77-16.23,10.07,10.07,0,0,0,1.13-4.15c0-1-.43-1.33-1.36-1.16a6.56,6.56,0,0,0-3.26,2,34.89,34.89,0,0,0-7.64,11.9A36,36,0,0,0,175.64,88.37Z"/><path class="cls-2" d="M297.43,73.15a112.05,112.05,0,0,0-7.3,11.62c-1.89,3.2-3.62,6.5-5.79,9.52A9.36,9.36,0,0,1,282.87,96a3,3,0,0,1-5-1.61c-.54-2.24,0-4.45.38-6.63.73-4.23,1.83-8.38,2.91-12.53.1-.39.35-.75.09-1.25-.37.29-.73.56-1.07.84a36,36,0,0,1-8.79,5.5,1.48,1.48,0,0,0-1,1.16,29.29,29.29,0,0,1-8.11,14.08,10.25,10.25,0,0,1-7.76,3.32,6.17,6.17,0,0,1-6-4.64c-1-3.34-.25-6.55.88-9.69a46.46,46.46,0,0,1,8-13.33,1.87,1.87,0,0,1,1.56-.89c1.19.16,2-.49,2.92-1,3.72-2.13,6.5-1.13,8.06,2.88.35.91.58,1.87.88,2.89a33.83,33.83,0,0,0,6.66-4.49,65.33,65.33,0,0,0,5.63-5.41,5.46,5.46,0,0,1,2.28-1.65,2.59,2.59,0,0,1,3.48,2.41,4.72,4.72,0,0,1-.2,1.71c-1.79,5.23-3.15,10.58-4.45,16-.11.43-.24.84-.38,1.33.76,0,.81-.64,1-1A152.68,152.68,0,0,1,294,69.29a23.5,23.5,0,0,1,4.11-4.46,7.47,7.47,0,0,1,3.3-1.62A2.68,2.68,0,0,1,304.77,66a14.85,14.85,0,0,1-.93,4.46c-1.65,5.57-3.66,11-4.93,16.72a24.25,24.25,0,0,0-.63,4.18,20.33,20.33,0,0,0,4.48-3.58c4.68-4.58,8.66-9.77,12.91-14.73a23.41,23.41,0,0,1,2.23-2.33,2.82,2.82,0,0,1,3.33-.49,2.66,2.66,0,0,1,1.21,3.11,46.75,46.75,0,0,1-1.94,5.86,47.52,47.52,0,0,0-2.72,11,11.79,11.79,0,0,0,.25,3.93,4.52,4.52,0,0,0,2.3,3.07c1.52.82,2,2.23,1.27,3.5a2.58,2.58,0,0,1-3.67.84,9.44,9.44,0,0,1-5-7.4A26.32,26.32,0,0,1,313.81,84c.06-.23.09-.47.16-.86a6.75,6.75,0,0,0-1.55,1.57,74.62,74.62,0,0,1-8.91,9.13,11,11,0,0,1-5.31,2.8,3.85,3.85,0,0,1-4.68-3.17c-.54-2.32,0-4.6.42-6.86.91-4.5,2.44-8.82,3.72-13.21a.41.41,0,0,0,0-.53Zm-40.1,6.64a29,29,0,0,0-3.83,8.43,8.82,8.82,0,0,0-.29,4.15,1.62,1.62,0,0,0,2,1.49A6.15,6.15,0,0,0,258.77,92a27.72,27.72,0,0,0,6-9c.42-.92.08-1-.74-1C261.59,82.07,259.26,81.67,257.33,79.79Zm6.31-2.71c2.29,0,2.33,0,2.1-1.42-.14-.81-.13-1.94-.86-2.18s-1.4.69-2,1.22-1.53,1.2-1.31,1.8C261.83,77.27,263,77,263.64,77.08Z"/><path class="cls-3" d="M241.42,110.7q58.07,0,116.12,0c1.18,0,1.63.22,1.48,1.45a17,17,0,0,0,0,2.85c0,.55-.17.76-.71.7a6.32,6.32,0,0,0-.87,0q-116,0-232,0c-1.22,0-1.72-.24-1.53-1.51s-.48-2.66.26-3.31,2.13-.17,3.24-.17Z"/><path class="cls-2" d="M147.5,83.61c-1.85.7-3.69,1.42-5.55,2.09a7.42,7.42,0,0,1-3.53.48,2.74,2.74,0,0,1-2.6-3.12c.25-1.53,1.42-2.22,3.25-1.91a2.4,2.4,0,0,0,1.1-.11,61.4,61.4,0,0,0,9-3.87c.58-.28.65-.82.79-1.32l5.82-20.46c.09-.32.16-.64.27-1a2.46,2.46,0,0,1,3-1.67,2.42,2.42,0,0,1,1.69,3.2c-1.5,5.36-3,10.72-4.55,16.07a2.76,2.76,0,0,0-.19,1.39c2.3-1.43,4.52-2.75,6.69-4.16,6.5-4.23,12.81-8.69,18.19-14.33A19.59,19.59,0,0,0,185,49.23c1-2.42.33-3.88-2.23-4.55-3.27-.85-6.51-.28-9.7.44-10.71,2.41-20.54,7-30,12.43a81.39,81.39,0,0,0-15,10.74,20.18,20.18,0,0,0-4.18,5.19c-.37.69-.45,1,.55,1.17a2.36,2.36,0,0,1,2.18,2.66A2.51,2.51,0,0,1,124,79.57c-4.33.08-6.58-3.06-5-7.11s4.43-6.74,7.51-9.39C133.52,57,141.57,52.31,150,48.23a99,99,0,0,1,21.36-7.84c4.05-.91,8.13-1.54,12.29-.65,3.95.83,6.64,3.61,6.83,7.14a10.82,10.82,0,0,1-1.87,6.32,45.51,45.51,0,0,1-10,10.74A148,148,0,0,1,155,79.69a2.75,2.75,0,0,0-1.45,1.84c-1.73,6.49-3.7,12.92-5.24,19.46a2.45,2.45,0,0,1-3,1.83,2.41,2.41,0,0,1-1.8-3c1-3.8,2-7.58,3-11.36l1.22-4.67c.11-.08.16-.17,0-.26S147.56,83.56,147.5,83.61Z"/><path class="cls-2" d="M325.38,89.56c.09-4.28,1.64-8.13,3.61-11.84a61.83,61.83,0,0,1,6.19-9.27,2.57,2.57,0,0,1,2.45-1.14,1.38,1.38,0,0,0,1.13-.33,11,11,0,0,1,2.44-1.47,4.43,4.43,0,0,1,6.21,2.06,12.93,12.93,0,0,1,1.47,6c.06,1.44.06,1.46,1.42.82a31,31,0,0,0,8.21-5.92c.89-.86,1.73-1.78,2.61-2.65a2.5,2.5,0,1,1,3.64,3.4c-4.57,4.93-9.55,9.29-16.28,11.07-.67.18-.73.7-.92,1.18-2,4.93-4.68,9.47-8.75,13a11,11,0,0,1-5.12,2.63c-4.66.94-8.15-1.81-8.31-6.55C325.37,90.22,325.38,89.89,325.38,89.56Zm17.09-8.79c-2.7-.52-5.13-1.33-7-3.29-.5-.52-.63.13-.77.36a34.74,34.74,0,0,0-3.85,8.54,11.29,11.29,0,0,0-.44,4.16c.17,1.56.87,2,2.36,1.69a6.56,6.56,0,0,0,2.61-1.37C338.6,88.14,340.59,84.54,342.47,80.77Zm1.44-7c0-.15,0-.64-.1-1.13-.1-.84,0-2-.76-2.32s-1.38.68-2,1.21c-.79.7-2,1.56-1.8,2.47S341,75.28,342,75.56C343.83,76,343.91,76,343.91,73.8Z"/><path class="cls-2" d="M322.89,55.93a4.38,4.38,0,0,1,4-4.49,3.85,3.85,0,0,1,3.64,4.05,4.29,4.29,0,0,1-4.1,4.39A3.74,3.74,0,0,1,322.89,55.93Z"/><path class="cls-4" d="M297.43,73.15l.25-.33a.41.41,0,0,1,0,.53Z"/><path class="cls-4" d="M147.5,83.61c.06,0,.14-.15.16-.13s.09.18,0,.26Z"/></g></g></svg>