<svg fill="none" xmlns="http://www.w3.org/2000/svg" viewBox="0 0 512 481" class="max-w-full h-auto sm:max-w-none"><path fill-rule="evenodd" clip-rule="evenodd" d="M216.531 398.526c1.268 5.149 2.142 10.431 3.644 15.519.633 2.14 1.908 4.018 2.414 6.202.536 2.304-1.075 3.063-2.773 4.294.94-1.277 2.053-2.087 2.009-3.755-2.816.642-5.489 3.536-7.641 5.313-2.818 2.326-5.581 4.718-8.355 7.097-5.123 4.396-10.203 8.839-15.281 13.287-4.764 4.173-9.866 7.92-14.919 11.73-4.444 3.351-8.648 6.887-12.325 11.082-.757.863-3.135 4.663-4.557 4.03-.698-.311-.919-1.461-1.163-2.095-.437-1.134-.891-2.256-1.297-3.402-.921-2.603-1.785-5.226-2.725-7.822-.781-2.154-2.067-3.81-.022-5.654 3.832-3.455 7.349-7.197 11.252-10.6 4.472-3.9 9.106-7.603 13.625-11.445 4.341-3.69 8.457-7.64 12.864-11.253 4.344-3.562 8.631-7.078 12.812-10.839 4.231-3.805 8.124-7.975 12.438-11.689zm279.792-37.042c-.872 1.299-1.604 1.939-2.822 2.915-1.345 1.076-2.422 2.473-3.602 3.716-2.248 2.365-4.699 4.541-7.154 6.687-5.177 4.526-10.931 8.298-16.14 12.758-2.493 2.134-4.239 4.962-6.71 7.094-2.28 1.967-5.267 2.805-7.744 4.474-1.255.845-2.259 2.097-3.627 2.758-1.343.65-2.932.879-4.333 1.39-1.785.65-3.417.981-5.286 1.256-1.579.232-2.93.673-4.541.41.782-.466 1.554-1.128 2.418-1.433.767-.27 1.449-.129 2.239-.146 1.623-.034 3.004-.902 4.626-.983-1.474-1.221-3.724-.331-5.307.147-2.05.62-4.135 1.121-6.19 1.727-9.579 2.826-19.237 5.181-28.97 7.411-9.645 2.21-19.266 4.66-28.98 6.518-9.376 1.794-18.876 2.973-28.283 4.74-9.945 1.869-19.918 3.818-29.79 6.035-4.671 1.049-9.346 1.911-13.964 3.188-4.442 1.228-8.919 2.389-13.373 3.58-1.208.322-2.456.578-3.628 1.017-1.099.412-2.042 1.022-3.22 1.208-2.031.319-3.92.839-5.93 1.291-4.594 1.032-9.031 2.622-13.575 3.838a372.58 372.58 0 00-14.576 4.221c-4.502 1.402-9.153 2.367-13.606 3.921-1.06.369-2.048.879-3.168 1.04-.913.13-1.834.051-2.726.335-.94.299-1.714.896-2.703 1.043-1.094.162-1.451.276-2.424.788-1.998 1.051-4.401 1.158-6.57 1.661-2.126.493-4.18 1.189-6.26 1.841-4.516 1.415-9.067 2.689-13.613 4.001-2.384.688-4.7 1.585-7.051 2.369-.587.196-3.875 1.516-3.208.212.275-.537 1.739-1.301 2.161-1.619.89-.673 1.787-1.337 2.682-2.003 1.791-1.332 3.584-2.665 5.327-4.059 3.857-3.085 7.361-6.575 11.127-9.765 3.501-2.964 7.18-5.684 10.393-8.978 3.269-3.352 6.149-7.175 9.159-10.763 1.265-1.508 1.872-3.194 2.913-4.807 1.016-1.575 2.454-1.5 4.104-1.494l.322-.001c4.84-.028 9.857-1.726 14.455-3.093 4.38-1.302 8.814-2.657 13.279-3.639 2.265-.498 4.513-.772 6.751-1.42 2.215-.64 4.47-1.077 6.73-1.531 4.778-.962 9.389-2.409 14.044-3.832 4.542-1.388 9.17-2.415 13.76-3.627 2.519-.664 5.022-1.388 7.543-2.05 2.089-.549 4.319-1.354 6.482-1.508 4.648-.331 9.035-.963 13.525-2.285 2.336-.688 4.724-1.075 7.082-1.671 2.209-.557 4.215-1.759 6.441-2.217 4.598-.946 9.111-1.888 13.667-3.065 9.16-2.365 18.3-4.373 27.656-5.76 2.375-.352 4.671-1.068 7.024-1.53 2.252-.443 4.55-.648 6.819-.986 4.924-.733 9.748-1.995 14.635-2.928 4.77-.91 9.593-1.514 14.358-2.457 2.426-.479 4.9-.864 7.295-1.484 2.178-.563 4.05-1.549 6.309-1.763 2.369-.224 4.589-.95 6.851-1.645 2.126-.654 4.172-.974 6.341-1.38 1.233-.23 2.156-1.007 3.327-1.358.958-.287 1.986-.111 2.968-.222 2.28-.256 4.478-1.126 6.722-1.574 4.626-.924 9.278-1.725 13.872-2.806 4.596-1.081 9.115-2.459 13.667-3.708zm-96.293 24.998c-1.842.05-3.676.126-5.513.294-3.981.362-7.946.902-11.891 1.538-8.076 1.304-16.126 3.446-24.067 5.404-14.267 3.519-28.408 7.182-42.341 11.898-6.97 2.359-13.924 4.768-20.903 7.102-5.733 1.918-12.01 3.766-16.998 7.301-1.231.872-3.722 2.784-2.27 4.455.877 1.009 2.476.969 3.678 1.169 1.631.272 2.889.337 4.542.191 3.553-.312 7.124.09 10.675-.363 3.393-.434 6.815-.955 10.136-1.778 1.644-.407 3.256-.948 4.913-1.301 1.755-.373 3.565-.333 5.315-.72 1.56-.345 3.105-.758 4.662-1.102 1.169-.258 2.236-.582 3.268-1.124 1.188-.624 2.571-.335 3.888-.579 1.558-.289 3.109-.634 4.661-.956 1.947-.404 3.893-.815 5.838-1.227 1.318-.279 2.619-.523 3.662-1.441-1.76-1.425-3.382-.561-5.426-.071-2.332.558-4.674 1.075-7.009 1.617-4.401 1.021-8.783 2.125-13.232 2.914-4.373.777-8.72 1.764-13.139 2.253-4.458.494-8.951.675-13.393 1.321-2.1.304-3.69.527-5.785.133-1.253-.235-2.977-.171-1.505-1.61.958-.937 2.458-1.129 3.089-2.34.348-.667.239-1.084 1.051-1.321.441-.13 1.289-.172 1.761-.205.667-.046 1.192.22 1.842.082.621-.13 1.302-.587 1.887-.841 1.489-.645 3.133-.672 4.61-1.294.6-.252 1.306-1.15 1.928-1.241.404-.061.855.273 1.3.24 1.28-.093 2.631-1.079 3.747-1.65.876-.449 1.117-.474 2.005-.377.832.089.853.127 1.641-.311 1.563-.868 2.808-1 4.565-1.244 1.832-.253 3.652-.834 5.342-1.576.718-.316 1.359-.781 2.071-1.096.51-.226 1.084-.192 1.56-.4.852-.372.106-.495.473-.832.397-.362.695-.016 1.145.042.691.09.566-.094 1.098-.27.619-.203.694-.146 1.493-.108 1.801.085 3.505-1.058 5.135-1.677.621-.235 1.418-.344 1.976-.712.426-.281.7-.93 1.291-.847.633.088.77.871 1.604.788.584-.057 1.039-.586 1.516-.866 1.333-.778 2.967-.473 4.432-1.008.756-.276 1.378-.583 2.167-.754.524-.114.85-.327 1.348-.477 1.463-.442 2.617.029 4.062-.904.596-.384.998-.827 1.734-.893.584-.053 1.128.169 1.723.099 1.536-.179 3.232-1.005 4.664-1.55 1.735-.66 3.396-1.294 5.264-1.463 1.774-.16 3.449-.16 5.165-.73 1.73-.573 3.435-1.145 5.135-1.78 1.586-.593 3.267-.516 4.918-.787 1.661-.273 3.827-.365 5.332-1.044 1.152-.52 2.392-.545 3.534-1.072.836-.385 1.345-.89 2.311-.895.743-.002 1.339.149 2.096.006.7-.132 1.29-.356 2.019-.281.944.097.934.054 1.744-.314 1.51-.686 3.406-.527 5.013-.784 1.779-.285 3.482-.886 5.229-1.311.306-.132.579-.313.822-.542-1.322-.927-3.076-.819-4.608-.778zm99.136-49.302c1.051 2.421 1.538 5.346 2.295 7.88.737 2.468 1.48 4.935 2.212 7.405.545 1.836-.891 1.982-2.289 2.15-2.318.279-4.537.884-6.763 1.572-4.916 1.52-9.922 2.475-14.969 3.438-5.183.988-10.297 2.261-15.521 3.03-4.879.718-9.603 2.219-14.461 3.066-2.471.431-5.05.943-7.389 1.866-1.061.419-1.991.849-3.146.937-1.17.089-2.283.043-3.438.307-4.819 1.101-9.854 1.769-14.767 2.412-5.175.677-10.281 1.775-15.42 2.668-2.53.44-5.062.864-7.589 1.314-2.202.394-4.493 1.374-6.713 1.457-1.473.055-2.801-.142-4.281.111-1.145.197-2.288.433-3.429.658-2.497.493-4.939 1.198-7.427 1.726-10.076 2.138-20.196 4.164-30.196 6.67-2.494.624-4.967 1.351-7.494 1.832-2.322.442-4.433 1.278-6.712 1.836-4.776 1.172-9.708 1.517-14.409 2.855-4.738 1.35-9.656 1.32-14.419 2.53-5.137 1.306-10.218 2.8-15.282 4.366-9.953 3.078-20.142 5.029-30.218 7.635-4.964 1.284-9.824 2.852-14.736 4.315a97.514 97.514 0 01-7.73 1.984c-1.76.371-4.091 1.206-5.896 1.02-1.633-.168-2.689-3.092-3.37-4.412-1.009-1.959-1.221-3.775-1.436-5.925-.099-1.003-.247-2.039-.658-2.97-.262-.596-1.366-1.431-1.461-1.957-.193-1.083 3.502-1.075 4.305-1.241 2.323-.483 4.54-1.622 6.871-2.189 2.353-.573 4.543-1.392 6.795-2.279 4.621-1.82 9.351-3.342 14.1-4.785 2.498-.759 4.895-1.76 7.373-2.564 2.02-.655 4.097-.651 6.136-1.304 4.814-1.543 9.828-2.517 14.709-3.834 2.668-.719 5.42-.978 8.119-1.555 2.413-.515 4.799-1.118 7.244-1.464 2.267-.322 4.283-.92 6.47-1.545 2.292-.655 4.705-.775 7.04-1.228 2.575-.499 5.137-1.051 7.727-1.469 2.233-.361 4.479-.602 6.59-1.472 2.095-.862 4.149-.892 6.343-1.365 2.329-.503 4.63-.827 6.98-1.217 2.756-.455 5.466-1.148 8.216-1.633 2.172-.381 4.482-.407 6.593-1.068 1.177-.367 2.07-.946 3.326-1.066 1.056-.101 2.043-.177 3.09-.375 2.465-.465 4.971-.659 7.448-1.088 5.024-.869 10.117-1.453 15.104-2.523 2.709-.581 5.37-1.312 8.109-1.758 2.383-.388 4.81-.631 7.138-1.296 2.578-.735 5.014-1.466 7.683-1.842 2.224-.312 4.423-.667 6.622-1.123 5.296-1.101 10.692-1.381 16.033-2.216 4.818-.754 9.76-1.613 14.335-3.344 2.379-.9 4.95-1.271 7.403-1.972 2.38-.681 4.758-1.371 7.135-2.063 9.943-2.896 20.071-5.304 30.207-7.429 2.457-.515 4.91-1.046 7.365-1.574 1.024-.22 2.117-.636 3.151-.766.922-.115.978.009 1.352.871zm-144.728 67.674c-3.304.379-6.602.794-9.898 1.236-3.115.418-6.398.685-9.215 2.205 5.035-.337 10.096-.489 15.1-1.186 4.543-.633 9.246-2.051 13.818-.831-2.072 1.62-4.687 2.167-7.131 2.975-3.053 1.009-6.08 2.1-9.126 3.129.945 1.22 2.436.357 3.561-.046 1.39-.499 2.84-.829 4.247-1.283 3.27-1.055 6.403-2.488 9.565-3.823.895-.378 2.273-1.378 1.264-2.421-.598-.617-1.807-.47-2.567-.493-3.233-.096-6.407.17-9.618.538zM177.668 84.2c1.593 1.985-.02 3.51.122 5.616.134 1.999 2.205 1.004 3.489.74l.082-.015-1.202 5.88c-.436-.514.036-.979-.809-.938-.104.005-.745.486-.895.551-.465.207-.977.283-1.456.451.394.262 1.098 1.121 1.465 1.245.789.267.933-.514 1.56-.88-.818 10.785-2.837 22.881 1.463 33.214.525 1.26 1.249 2.5 1.703 3.783.358 1.012.174.909-.496 1.532-.26.241-.731.674-.633 1.099.189.817.788.396 1.259.757.709.543.614 1.459.736 2.304.121.843.497 1.506.692 2.294.113.454-.346.366.168.761.385.297.879-.077 1.296-.027.746.09.269-.137.6.422.144.244.452 1.244.398 1.537-.171.932-1.048.819-1.849 1.081.529.508 1.148.908 1.613 1.482.142.175.141.667.389.746.469.151 1.411-.459 1.792-.69.544-.328 1.109-1.114 1.747-1.186.967-.109 1.271.887 1.986 1.256.898.463 1.971.027 2.954.108 1.14.095 2.218.502 3.298.845 2.549.809 5.107 1.05 7.774.834 4.338-.351 8.783-2.13 12.687-4.007 3.798-1.826 6.275-5.274 8.648-8.621 2.606-3.675 5.203-7.223 7.078-11.35 1.993-4.384 3.224-8.972 3.969-13.722.388-2.476.624-4.876.675-7.377.035-1.798 1.329-3.549 3.27-3.63 1.165-.049 1.98.766 3.08.869.758.071 1.548-.723 2.153-.625.611.099 1.271 1.552 1.603 2.019.633.891 1.278 1.774 1.913 2.664a101.47 101.47 0 013.859 5.8c.569.928.527 1.87.967 2.799.402.847 1.1 1.097 1.33 2.075.237 1.004.137 1.502.968 2.172.729.588 1.093.529 1.342 1.567.207.871.27 1.884.318 2.782.052.953-.556 2.449-.027 3.293.365-.715.677-2.05 1.691-2.023.526.014.805.66 1.354.721.526.058.939-.545 1.468-.295 1.227.58.349 1.807-.183 2.323-1.035 1.001-1.37 2.104-.65 3.445 1.218-1.434 2.4-.446 3.339.709-.957.292-2.083.373-1.175 1.522.195.247 1.467 1.364 1.716 1.326.453-.068.225-.629.785-.747.35-.073.89.372 1.036.641.436.808-.757 2.499-1.081 3.292.836-.425 1.439-1.69 2.439-1.761 1.039-.073 2.079 1.145 2.022 2.095-.047.771-.838 1.351-.001 1.911 1.074.72 2.72-.481 3.838-.199 1.148.289 1.268 1.902 2.134 2.718.831.784 1.07 1.754 2.074 2.323 2.528 1.431 2.545 4.735 4.359 6.875.912-.842 1.012-1.106 2.18-1.156.524-.022 1.343-.224 1.825.05.748.424.469 1.217.879 1.822.452.668 1.154.674 1.868.799l.126.024-.603 3.277c.638-.444 1.051-1.897 1.735-.597.813-.871.422-2.313 2.161-1.712 1.103.381 1.93 1.483 2.814 2.196 2.632 2.121 6.052 3.179 9.321 3.843.741.15 2.07-.002 2.742.285.553.237.395.321.662.784.188.323-.03.842.507.788.411-.043.44-.901.599-1.166.73-1.219 1.92-.798 3.114-.495 1.504.382 1.654 1.59 2.257 2.959.738-.782 1.331-1.673 2.359-2.095 1.152-.473 2.552-.519 3.755-.831 1.294-.336 2.462-.903 3.695-1.398 1.051-.421 2.242-.608 3.242-1.133 1.054-.553 1.821-1.418 2.933-1.893 1.223-.522 2.451-1.02 3.656-1.584 2.454-1.15 4.842-2.472 6.934-4.209 2.184-1.814 4.07-3.984 5.902-6.143.861-1.014 2.974-4.281.777-5.249-.949-.418-1.754.616-2.316 1.221-.981 1.055-1.96 2.094-3.068 3.024-2.002 1.681-4.282 3.043-6.745 3.929 1.308-2.245 3.49-3.923 5.162-5.887 1.732-2.033 3.596-4.208 5.848-5.68 1.647-1.077 3.725-1.512 5.037-3.066.981-1.16 2.867-4.465 4.583-3.982 1.316.37 2.364 1.149 3.815 1.088.926-.039 1.67-.426 2.587-.112.894.306 1.745 1.022 2.575 1.486 1.101.617 2.155 1.113 3.056 2.013 3.341 3.342 6.322 7.934 8.037 12.342.933 2.398-.578 4.307-1.726 6.338-1.154 2.042-2.305 4.052-3.699 5.941-3.123 4.233-6.21 8.43-9.175 12.773-2.81 4.115-5.689 8.196-8.979 11.956-1.706 1.95-3.47 3.919-5.369 5.683-1.576 1.463-3.452 2.553-5.198 3.794a2731.205 2731.205 0 01-13.707 9.698c-4.019 2.821-8.529 4.687-13.177 6.203-.123-.832-.646-.338-1.262-.417-.762-.098-1.566-.872-2.191-1.312-.525-.369-1.045-.971-1.606-1.267-.584-.309-.833-.009-1.355-.125-1.308-.291-2.502-3.197-3.191-4.224a620.881 620.881 0 01-3.616-5.459c-4.693-7.149-10.092-14.772-17.216-19.716-6.349-4.405-14.553-4.87-21.88-3.003-2.804.715-7.668 3.414-9.985.794-.544-.615-1.65-1.695-1.934-2.43-.223-.578.371-1.466.547-2.185.393-1.594.331-3.272.109-4.886-.483-3.511-1.705-6.93-2.649-10.336-1.135-4.094-2.262-8.199-3.04-12.38-.743-3.993-1.77-8.508-1.527-12.584.073-1.201 1.295-3.417-.326-4.019-1.54-.571-2.48 1.084-2.707 2.317-.631 3.428-.132 7.483.266 10.902.464 3.979 1.304 7.901 2.231 11.794.933 3.907 1.949 7.786 2.969 11.668.452 1.719.746 3.386.083 5.085-.618 1.586-1.722 2.964-2.429 4.517-.782 1.715-1.427 3.634-2.608 5.13-.707.895-1.86 1.526-2.01 2.754-.165 1.345 1.188 1.977-.047 2.941-1.215.951-2.581 1.716-3.904 2.502-3.313 1.967-6.894 3.656-10.095 5.785-.773.514-4.215 3.596-5.1 2.377.194 1.12-4.383 3.114-5.155 3.59a826.488 826.488 0 00-8.898 5.563c-5.964 3.783-12.013 7.486-17.746 11.614-2.777 1.999-5.647 3.422-8.651 5.026-1.596.852-3.126 1.818-4.695 2.716-1.518.869-2.273 1.151-3.942 1.103-1.261-.035-1.947.615-2.862 1.404-1.285 1.108-2.644 2.136-4.007 3.145-2.843 2.106-5.788 4.07-8.745 6.013-2.177 1.43-4.337 2.889-6.395 4.489-1.738 1.352-3.427 2.841-5.505 3.651l-.875-2.591c-.319.648-.639 1.329-.703 2.059-.033.398.285 1.085.242 1.387-.107.75-1.598 1.767-2.191 2.239-2.186 1.742-4.394 3.461-6.566 5.221-2.188 1.773-3.964 3.963-6.111 5.774-.982.828-2.109 1.846-3.285 2.389-1.081.499-1.378.1-2.034-.802-.688 1.375-.626 1.852-2.155 2.164-1.218.248-1.911.649-2.195-.824-.601-3.119-.969-6.462-1.125-9.634-.16-3.268-.058-6.63.133-9.896.091-1.546.213-3.133.592-4.641.319-1.272.24-1.52-.197-2.696-.531-1.428.53-1.232.827-2.385.249-.963-1.071-1.646-.668-2.758.164-.452.662-.631.779-1.128.119-.51-.24-.925-.334-1.399-.111-.556-.223-.696.081-1.194.224-.367.67-.052.673-.559.004-.862-1.268-1.284-.924-2.456.133-.455.61-.738.705-1.068.088-.306-.181-.734-.003-1.141.277-.637.643-.84.756-1.553.088-.561.103-1.008.302-1.559.437-1.213.784-2.144.817-3.458.037-1.466-.271-2.935.189-4.363.3-.931.966-1.821.97-2.832.003-1.235-1.261-1.95-1.618-3.128-.406-1.339-.299-2.861.243-4.147l.672 2.209c.183-.64.555-1.389.414-2.074-.106-.523-.46-.615-.664-1.036-.449-.929.064-.535.424-1.368.187-.431-.042-1.003-.014-1.458.035-.556.24-1.005.371-1.532.262-1.058.031-1.744.815-2.572 1.632-1.724 3.778-3.174 5.561-4.76.998-.888 2.025-1.752 3.017-2.645.934-.84.909-1.317.859-2.564-2.91 1.069-5.003 3.588-7.312 5.535-2.481 2.092-5.269 3.859-7.848 5.832-5.042 3.86-10.448 7.392-15.946 10.561-2.706 1.56-5.454 3.044-8.172 4.582-2.52 1.426-4.99 2.828-7.814 3.56-2.403.623-5.428 1.287-7.346-.812-.92-1.008-.583-2.175-1.186-3.276-.31-.565-.661-.413-1.029-.771-.52-.506-.358-.139-.169-.88.166-.648.484-.554.281-1.365-.136-.546-.483-1.103-.678-1.642-.414-1.144-.696-2.264-1.592-3.11-.631-.597-.434-.294-.61-.996-.094-.375.013-.526-.226-.924-.462-.769-1.626-1.203-2.319-1.724l.554.307c-.065-1.006-.637-1.886-.698-2.891-.059-.968.157-1.362-.396-2.241-.46-.732-1.175-1.263-1.615-2.018-.49-.842-.687-1.842-1.082-2.732-.686-1.544-2.07-2.647-2.307-4.35-.072-.514.034-.924-.295-1.37-.127-.172-.481-.186-.589-.344-.401-.589-.219-1.309-.688-1.864-.423-.5-1.314-.465-1.698-1.009-.461-.653-.064-1.16.22-1.815.802-1.852-.657-2.15-1.467-3.615-.826-1.494-1.082-3.278-1.632-4.88-.315-.917-.657-1.232-1.233-1.936-.51-.624-.48-.321-.192-1.211-1.735.087-1.624-3.564-1.972-4.719-.125-.415-.364-1.342-.74-1.612-.21-.149-.923-.024-1.009-.006l-.008.002-.187-.165c-.393-.359-.756-1.463-.713-1.878.033-.324.358-.386.319-.812-.034-.374-.543-.799-.78-1.054-1.237-1.321-3.42-3.969-2.644-5.985 3.639 3.753 6.987 7.865 10.846 11.395 3.237 2.958 7.02 4.379 11.331 4.867 2.572.292 5.187.464 7.774.305 2.152-.133 4.32-.485 6.483-.382.904.043 1.438.093 1.801.914.323.729-.15 1.15.864 1.164 1.352.016 2.273-1.391 2.99.268l.05.125.053-.182c.556-1.804 2.315-2.65 3.979-3.254l.166-.059a57.015 57.015 0 007.051-3.065c4.347-2.236 8.327-5.162 11.608-8.798 5.855-6.488 9.706-14.467 13.556-22.228 4.09-8.245 8.78-16.362 14.058-23.911 2.471-3.534 5.341-6.58 8.779-9.19 3.361-2.55 7.178-5.564 11.402-6.359 2.151-.404 4.34-.736 6.501-1.086 2.033-.329 4.148-.77 5.595 1.032zm-129.53 65.657l1.455-2.858 26.575 59.271c-1.504-.35-3.046-.698-4.443-1.376-.737-.359-2.25-1.625-3.114-1.309-.239.086-.173.5-.368.56-.456.138-.621.136-1.142.041-1.29-.233-2.47-.973-3.69-1.413.73-1.206.133-2.236-.64-3.193-.363-.45-.941-1.362-1.617-1.194-.797.198-.608 1.396-1.675.839-.27-.141-.218-.617-.562-.748-.376-.143-.575.279-.943.206-.853-.166-1.046-1.505-1.913-1.518-.593-.01-.798.795-1.451.865-.975.106-1.051-.608-1.113-1.309l-.014-.161c-.107-1.132-.097-1.752-1.185-2.412-.286 1.022-.072 2.438-1.397 2.178-.968-.191-2.09-1.217-2.516.376-5.882-2.899-11.133-6.8-16.01-11.155-4.554-4.067-7.857-8.967-11.171-14.053-1.509-2.316-3.348-4.645-4.59-7.114-.666-1.325-.3-2.216.094-3.567.164-.56.3-1.084.257-1.675-.018-.261-.315-.802-.196-1.052.415-.867 2.121-.381 2.861-.362 1.343.036 2.712-.085 4.049-.209 2.855-.264 5.72-.702 8.43-1.668 5.641-2.011 10.167-5.266 15.026-8.641l.501 1.326.502 1.325 1.455-2.858-1.455 2.858zm3.864 43.767c-.332.19-.25.339.244.449-.08-.15-.163-.299-.244-.449zm170.231-4.231c.12 1.429 1.269 1.092 2.129 1.25-.402-.93-1.17-1.249-2.129-1.25zm-1.054.625a.284.284 0 00-.013.119l.013-.119zm138.473-24.971c-.281.961-.845 1.889-1.602 2.551-.822.718-1.733.732-2.643 1.228-1.578.858-1.75 2.851-2.413 4.341-.009.291.046.569.165.835.932-.369 1.241-1.381 2.242-1.665.439-.125.734.015 1.15-.236.376-.226.609-.779.926-1.092.82-.808 1.826-1.257 2.512-2.217.671-.939 1.053-2.085 1.545-3.121-.503-.188-.691.498-1.139.453-.628-.063-.549-.615-.743-1.077zm-132.706-2.308c-.194.04-.853-.021-.931.231-.317 1.023-.493 2.083-.72 3.128 1.435-.638 1.488-1.983 1.651-3.359zm-201.988-3.302c-.175.648-.378 1.221.327 1.622.242.048.486.052.73.012l-1.056-1.634zm244.952-9.738l-.516 1.969c1.922-.796 1.931-.837.516-1.969zm-.523-4.991c-.398.031-.792.081-1.184.15.424.45 1.002.931 1.202 1.541.091.276-.153.962.034 1.191.576.704 1.716-.042 2.357-.267-.655-.371-1.306-.752-1.733-1.385-.119-.179-.403-1.242-.676-1.23zm1.97-3.677l-.039.138c-.273.873-.98 1.759-.677 2.712.239.751.692 1.003 1.3.689.889-.46 1.038-1.372.525-2.016-.119-.15-.413-.076-.55-.246-.276-.341-.331-.747-.492-1.133l-.067-.144zm87.709-1.938c.174.297.546.562.592.928.034.265-.308.492-.269.776.081.602.196.767.865.845 1.407.164 2.442-1.617.874-2.271-.651-.272-1.377-.198-2.062-.278zm-91.34-.725c-.275.415-1.958 2.773-.632 2.382.373-.111 1.157-1.06 1.347-1.427.062-.121.355-.346.336-.517-.039-.345-.793-.83-1.051-.438zm-5.528-.479l-.03.004c-.078.151-.133.31-.165.476-1.079.757 1.526 2.08 1.977 2.403.403-1.155.141-1.121-.649-1.79-.155-.131-.839-.954-1.091-1.078l-.042-.015zm109.511-3.232l-.405.407c.531.091.205.753.567.935.628.316.88.034 1.269-.494l-1.431-.848zM252.57 112.681l-.072.187c.059-.061.191.038.072-.187zm.437-3.035l-.342.062-.342.062.356 1.873c.87-.279.401-1.374.328-1.997z" fill="#FBDE9B"/><path fill-rule="evenodd" clip-rule="evenodd" d="M48.77 59.995l.229.383c-.132-.72-.208-.848-.23-.383zm290.453 85.931a.028.028 0 00.016-.012l-.016.012z" fill="#011638"/><path fill-rule="evenodd" clip-rule="evenodd" d="M502.433 354.502c-4.982.307-9.603 2.488-14.417 3.611-5.107 1.193-10.315 1.926-15.45 2.995-2.468.515-4.961 1.034-7.462 1.369-2.483.333-4.807.959-7.251 1.489-4.853 1.052-10.017 1.817-14.729 3.373-4.621 1.525-9.567 1.831-14.363 2.646-5.185.881-10.405 1.494-15.58 2.428-5.104.921-10.201 1.88-15.304 2.803-2.443.443-4.841 1.338-7.324 1.449a53.56 53.56 0 00-8.138.98c-10.495 2.072-20.937 4.559-31.353 7.006a642.33 642.33 0 00-7.607 1.835c-2.588.641-5.28 1.013-7.832 1.773-4.685 1.395-9.401 2.805-14.278 3.126-2.439.161-4.681 1.223-7.049 1.736-2.488.538-5.056.636-7.577.943-5.072.618-10.2 2.455-15.098 3.884-4.883 1.424-9.732 3.155-14.668 4.369-5.172 1.272-10.412 2.242-15.58 3.535-10.036 2.51-19.762 6.205-29.944 8.023-.781.14-2.049.545-2.837.248-.827-.311-1.206-1.363-1.639-2.062-1.27-2.046-2.407-3.986-2.678-6.432-.245-2.205-.206-4.334-1.681-6.139-.43-.526-.989-.624-.227-1.212.494-.381 2.123-.288 2.746-.393 2.217-.379 4.093-1.429 6.27-1.959 2.427-.591 4.798-1.234 7.15-2.082 4.75-1.713 9.501-3.279 14.316-4.802 2.359-.746 4.701-1.544 6.996-2.471 1.097-.443 2.19-.968 3.37-1.146 1.285-.195 2.421-.162 3.685-.572 4.971-1.611 10.123-2.762 15.21-3.958 4.826-1.134 9.806-2.367 14.721-2.999 2.453-.316 4.701-.904 7.073-1.578 2.515-.715 5.14-.909 7.695-1.432 4.496-.919 9.534-1.104 13.794-2.855 2.013-.828 3.908-.843 6.028-1.227 2.607-.473 5.206-.967 7.821-1.425 2.503-.438 4.98-1.014 7.477-1.492 2.516-.481 5.317-.504 7.733-1.377 4.267-1.544 9.041-1.504 13.498-2.399 5.238-1.053 10.55-1.665 15.787-2.731 5.059-1.029 10.263-1.743 15.258-3.033 2.336-.603 4.502-1.297 6.916-1.576 2.636-.305 5.218-.891 7.822-1.386 4.841-.919 9.763-1.14 14.617-1.978 9.885-1.706 19.463-4.683 29.1-7.42 4.949-1.405 9.856-2.776 14.905-3.769 2.374-.466 4.599-1.313 6.929-1.934 2.593-.691 5.235-1.169 7.87-1.665 2.386-.45 4.769-.924 7.135-1.463 1.141-.261 3.095-1.311 4.202-1.038 1.03.253.996 1.954 1.2 2.862.519 2.308 1.259 4.575 1.954 6.834a414.978 414.978 0 001.823 5.802c.391 1.215.719 2.778-1.035 2.886zm-7.338 8.747c-2.592 1.547-4.379 4.126-6.494 6.22-2.366 2.341-4.9 4.535-7.432 6.695a160.893 160.893 0 01-8.069 6.456c-2.565 1.917-5.279 3.705-7.599 5.927-2.179 2.09-3.817 4.739-6.221 6.593-2.36 1.82-5.25 2.687-7.66 4.451-1.123.825-2.144 1.798-3.453 2.323-1.506.605-3.106 1.059-4.635 1.611-1.498.541-2.956.711-4.52.956-1.697.266-2.901.746-4.647.461.8-.476 1.586-1.108 2.466-1.421.749-.267 1.413-.135 2.192-.158 1.626-.048 3-.901 4.625-.983-1.431-1.186-3.615-.395-5.173.087-2.429.752-4.898 1.374-7.336 2.1a297.438 297.438 0 01-14.678 3.992c-10.319 2.507-20.674 4.874-31.027 7.238-5.084 1.16-10.259 1.879-15.339 3.034-4.817 1.095-9.826 1.496-14.712 2.424-10.302 1.957-20.613 3.868-30.897 5.919-10.135 2.021-20.403 4.073-30.333 6.959-4.647 1.352-9.26 2.999-13.946 4.022-4.841 1.056-9.484 2.677-14.244 4.009-4.945 1.384-9.942 2.442-14.836 4.024-4.94 1.598-9.889 3.108-14.898 4.478-1.047.287-2.003.641-3.013 1.029-1.251.481-2.336.483-3.637.656-1.001.132-1.777.582-2.705.931-1.087.41-2.175.198-3.184.781-2.022 1.17-4.047 1.442-6.351 1.907-2.695.542-5.298 1.364-7.91 2.209-4.806 1.553-9.688 2.783-14.504 4.279-.722.224-8.441 3.345-8.58 2.421-.085-.593 1.972-1.714 2.437-2.054a307.313 307.313 0 006.367-4.784c3.806-2.933 7.239-6.248 10.829-9.43 3.722-3.298 7.804-6.134 11.359-9.627 3.393-3.335 6.131-7.243 9.28-10.797 1.344-1.516 2.394-3.005 3.282-4.823.964-1.977 2.132-2.414 4.304-2.389 4.785.056 9.865-1.442 14.41-2.854 4.612-1.432 9.401-3.115 14.187-3.81 4.848-.705 9.505-2.193 14.301-3.208 5.071-1.073 9.941-2.677 14.899-4.159 4.934-1.476 9.978-2.617 14.952-3.955 2.309-.62 4.598-1.285 6.895-1.949 2.533-.731 4.902-.667 7.488-.977 4.815-.578 9.295-2.049 14.012-3.039 2.336-.489 4.396-1.085 6.596-2 2.247-.934 4.631-1.141 6.997-1.642 5.126-1.084 10.17-2.641 15.259-3.893 4.861-1.196 9.83-2.165 14.737-3.16 2.346-.474 4.707-.657 7.07-.991 2.629-.372 5.175-1.188 7.791-1.645 10.115-1.77 20.2-3.711 30.33-5.404 5.206-.87 10.368-1.828 15.392-3.475 2.168-.711 4.441-.735 6.648-1.35 2.309-.644 4.56-1.591 6.933-1.984 1.239-.206 2.535-.179 3.736-.588.813-.277 1.512-.815 2.336-1.059 2.394-.707 5.096-.747 7.546-1.348 5.01-1.227 10.114-1.964 15.141-3.107 4.871-1.108 9.65-2.574 14.465-3.894-.387.576-.596 1.387-1.229 1.765zm-313.47 90.465c-3.772 2.879-7.662 5.616-11.317 8.644-3.303 2.736-6.164 5.955-8.98 9.176-.953 1.09-2.084 2.717-3.215.928-1.106-1.749-1.638-4.08-2.312-6.023-.756-2.172-1.471-4.363-2.272-6.518-.6-1.614-1.715-3.273-.541-4.89 1.092-1.501 2.854-2.795 4.174-4.106 1.709-1.698 3.414-3.402 5.209-5.011 3.438-3.086 7.077-5.95 10.618-8.915 3.799-3.18 7.519-6.456 11.245-9.719 3.244-2.842 6.363-5.844 9.854-8.388 8.19-5.965 14.789-13.778 22.444-20.366 1.268 5.15 2.148 10.428 3.644 15.519.606 2.064 1.806 3.881 2.358 5.966.649 2.454-.902 3.215-2.717 4.53.953-1.295 2.054-2.071 2.009-3.756-1.92.438-3.41 1.923-4.902 3.111a214.774 214.774 0 00-4.743 3.878c-3.475 2.927-6.914 5.896-10.354 8.863-6.676 5.759-13.187 11.726-20.202 17.077zm-15.45-33.784c-3.288.221-6.457 1.208-9.754 1.41-1.574.096-3.134.426-4.71.475-1.796.056-3.555-.23-5.359-.132-3.523.194-6.995-.105-10.509-.304-3.493-.199-6.958-.283-10.423-.81-1.409-.214-2.81-.434-4.224-.609-1.152-.143-2.956-.18-3.435-1.428-.448-1.167-.06-3.107-.042-4.339.017-1.115.078-2.231.081-3.346.006-1.556-.099-4.021-2.097-4.257-1.166-.138-2.347.675-3.337 1.175-1.653.836-3.278 1.704-4.856 2.678-1.549.955-3.091 1.953-4.55 3.043-1.156.864-2.346 2.034-3.908 1.834-1.338-.17-2.503-1.102-3.722-1.609-1.733-.719-3.708-1.064-5.577-1.103l.71-8.424.26-3.087c.092-1.087-.072-2.517.2-3.569.437-1.694 3.672-.659 5.084-.548 2.736.215 5.475.413 8.207.663 1.296.12 3.993.923 5.119.015 1.401-1.129 1.016-5.325 1.115-6.913.074-1.213-.353-4.576.768-5.38.73-.524 2.269-.115 3.077-.072a51.53 51.53 0 003.931.083c10.333-.216 20.623-2.516 30.678-4.756 2.233-.497 4.109-1.255 5.233 1.207 1.128 2.47 2.148 5 3.229 7.492.838 1.932 2.38 3.782 1.356 5.898-1.126 2.331-2.528 4.591-3.838 6.824-.855 1.456-3.54 5.079-.184 5.383 2.379.216 5.242-.674 7.583-1.077 1.011-.174 2.006-.401 2.777.388.858.878 1.263 2.591 1.763 3.693 1.283 2.827 2.662 5.606 3.829 8.484-1.475.399-2.939.914-4.475 1.018zm-50.795-.837l-8.666-1.421c-.733-.12-5.003-.219-4.365-1.464.25-.486 1.772-1.038 2.214-1.317a126.604 126.604 0 013.772-2.319c2.365-1.379 4.822-2.624 7.435-3.46l-.39 9.981zm-24.175-27.141c.1-1.875-.021-4.206.45-6.023.438-1.687 1.906-2.005 3.478-1.843 1.954.2 3.86.825 5.821 1.051 2.431.279 4.883.318 7.327.202 0 2.79.395 5.891-.284 8.628-.557 2.248-2.798 1.418-4.541 1.303-2.911-.193-5.819-.281-8.72-.603-1.75-.194-3.649-.513-3.532-2.715zm62.656-21.65zm-4.515-12.62c-.284-.831-.778-1.587-1.023-2.431-.215-.743-.188-1.479-.516-2.193-.736-1.604-1.929-2.941-2.579-4.622-.733-1.893-.936-4.162-2.106-5.866-.509-.74-.923-1.129-1.206-1.986-.308-.931-.688-1.614-1.106-2.497-.657-1.387-.983-2.685-1.765-4.056a62.968 62.968 0 01-2.674-5.233c-.363-.804-.507-2.999-1.393-3.486-.708-.388-.697.344-1.26-.465-.454-.653-.429-1.039.395-1.352-.329-.468-.972-.24-1.363-.645-.378-.393-.293-1.066-.432-1.55.524.166 1.049.328 1.574.492-1.528-3.293-2.908-6.653-4.56-9.889-1.425-2.794-2.381-5.836-4.38-8.243-.999-1.203-.253-2.443-.934-3.726-.259-.491-.716-.838-.942-1.355-.232-.535-.137-1.298-.462-1.779-.456-.675-.836-.245-1.406-.626-.406-.271-.617-.769-.854-1.176-.123-.21-.615-.908-.562-1.161.166-.794.676-.038 1.056-.434-.836-2.117-1.754-4.197-2.671-6.279-.421-.958-1.157-4.393-2.668-3.344-.83-2.011-.646-3.678-1.532-5.683-1.254-2.835-2.403-5.715-3.599-8.574-.581-1.389-1.102-2.818-1.723-4.189-.522-1.15-1.426-1.714-2.1-2.714-.622-.922-.632-2.512-1.008-3.678-1.528-4.733-4.115-8.843-6.25-13.295-1.335-2.78-2.54-5.613-3.814-8.42-.62-1.367-1.329-2.685-1.982-4.034-.256-.532-.484-1.029-.584-1.619-.058-.34.084-1.032-.068-1.311-.213-.39-.796-1.387-1.101-2.008-.447-.91-1.386-1.446-1.606-2.386-.14-.594.094-.868-.274-1.445-.45-.705-.713-.777-.846-1.692-.2-1.378-.635-2.224-1.482-3.347-.81-1.073-1.248-2.089-1.77-3.316-.391-.921-1.516-2.269-1.13-3.31.328-.877 1.344-.998 2.138-1.193a46.235 46.235 0 004.053-1.179c2.824-.971 5.296-2.397 7.765-4.06 2.26-1.521 4.599-3.457 7.062-4.614 2.185-1.024 4.458-3.214 6.559-4.776 2.467-1.835 5.03-4.298 7.938-5.398-2.972 6.715-4.054 13.813-4.706 21.09-.678 7.584-.703 14.995-.527 22.591.17 7.372-.075 14.732 1.14 22.05.583 3.514 1.472 6.942 1.931 10.479.213 1.645.841 6.202 3.037 6.485 1.381.178 2.257-1.176 3.418.222.84 1.012.956 2.381 1.356 3.569.432 1.291 1.804 1.952 1.572 3.383-.116.71-.475.918.046 1.564.3.371 1.064.868 1.448 1.304.003-.232-.144-.813-.003-1 .19-.253.574-.02.811-.242-.24.224-.56.09-.726.324-.378.534.161 1.555.353 2.051.474 1.22 1.106 2.265 1.898 3.309.751.991 1.403 2.277 2.28 3.153.872.87 1.949 1.191 2.73 2.229.675.896 1.129 1.911 2.098 2.537 1.099.71 1.668 1.319 2.449 2.355 1.718 2.274 4.903 3.618 7.315 5.059 2.582 1.544 5.527 2.834 8.595 2.621.465-.032.963-.146 1.426-.058.798.152.672.474 1.173.855.745.567 1.594.514 2.555.587 3.139.235 6.406.288 9.516.728 1.534.217 6.062 1.66 6.665-.508 2.116 1.52 4.124.678 6.453.152 2.305-.52 5.123.135 7.184-1.225 1.067-.704 1.204-.949 2.556-1.011 1.135-.051 2.285-.024 3.342-.506 1.035-.472 1.521-.851 2.682-1.04 1.348-.219 2.427-.811 3.673-1.341 2.461 8.079 6.592 15.35 7.481 23.874.45 4.311.151 8.374-.578 12.635-.315 1.837-.566 3.559-1.581 5.16-1.048 1.653-2.505 3.112-3.944 4.427-2.808 2.569-6.033 4.621-9.339 6.483-3.482 1.961-7.012 3.937-10.707 5.467a308.659 308.659 0 00-11.166 4.875c-3.955 1.824-7.795 2.708-12.067 3.413a27.893 27.893 0 00-3.183.692c-.831.238-2.14.854-2.99.327-1.025-.635-1.458-2.991-1.909-4.076-.781-1.876-1.371-4.004-2.529-5.691-.398-.581-.602-.931-.833-1.573-.254-.707-.336-1.38-1.204-1.636-.152.682-.582 1.91.383 2.22-.744-.239-.717-.712-.383-2.22zm-6.282-10.738zm-13.706-32.603l-.301-.459c.37-.149.429-.037.651.257l-.35.202zm-25.093-56.636c-.366-.435-.336-.323-.095-.665.431.186.464.408.095.665zm.267.863c-.17-.106-.169-.211.003-.314.183.107.181.212-.003.314zm-.348 2.207zm-2.499-6.518l-.135.843c.09-.556.185-1.09.099-1.655.098.649-.084.678.4 1.213l-.364-.401zm22.056 8.437c.049-.112.101-.223.149-.334-.048.111-.1.222-.149.334zm32.056 40.537l.077-.401-.077.401zm15.647 3.153c0 .263.026.534.04.796l-.04-.796zm-5.026.974zm12.731.126c-.431.167-.77.533-1.144.79.064-.224.93-.707 1.144-.79zm137.977 37.685c-.753-.338-1.671-1.072-1.057-1.974-.892-.138-.884-1.027-1.131-1.706-.41-1.132-1.13-2.086-1.723-3.121 2.22-.998 4.683-1.204 7.049-1.645l-3.138 8.446zm-1.881 2.77c.658-.902 1.261-1.842 1.881-2.77-.211.843-1.379 2.082-1.881 2.77zm-24.37-51.915l.228-.195c-.215.016-.29.081-.226.195h-.002zm-5.1-11.371c-.132-.031-.238-.146-.301-.338.063.192.169.307.301.338zm-2.014-4.38c-.842-.585-1.491-1.366-1.984-2.29.493.923 1.142 1.705 1.984 2.29zm-2.163-2.643zm.863-1.763c-.32-.036-.799-.089-1.108.065.206-.103.566-.111 1.108-.065zm5.494 9.089c-.233-.097-.231-.391-.394-.524-.196-.16-.5-.141-.632-.254-.473-.404-.35-.175-.412-.964-.078-.989-.675-1.545-.885-2.346-.263-1.003.115-1.51-.695-2.325-.976-.982-2.239-1.835-2.575-3.285-.153-.66.067-1.234.067-1.886.001-.476-.473-1.433-.268-1.86.362-.751 2.591-.838 3.364-1.017 3.658-.847 7.319-1.685 10.978-2.527-2.326 5.894-4.831 11.815-8.548 16.988zm1.359 8.603a30.448 30.448 0 01-.266-.358c.1.132.188.252.266.358zm-6.877 67.855c.146-1.862.833-3.625 1.233-5.438.451-2.038.612-4.116.608-6.2-.008-3.966-.42-7.943-.65-11.902-.474-8.173-1.802-16.279-3.021-24.366-1.164-7.717-2.692-15.328-6.214-22.357-1.592-3.179-3.643-6.375-4.514-9.853-.194-.776-.166-1.65-.426-2.4-.286-.826-.856-1.224-1.365-1.883-1.19-1.54-1.887-3.613-2.739-5.358-.787-1.61-1.435-3.323-2.352-4.864-.367-.618-.764-1.161-1.298-1.64-.382-.342-1.188-.662-1.418-1.129-.466-.947.795-1.683 1.428-2.386 1.518-1.684 2.893-3.525 4.332-5.278 1.074 5.605 2.163 11.086 4.34 16.387a234.593 234.593 0 006.823 15.132c4.798 9.669 9.505 19.388 14.051 29.173 1.065 2.291 2.321 4.371 3.544 6.571 1.367 2.459 2.509 5.051 3.827 7.539 2.513 4.744 4.603 9.704 7.173 14.409 2.551 4.671 5.674 8.941 8.51 13.431.732 1.158 3.405 4.191 2.976 5.651-.194.658-.809.65-1.379.756-1.502.283-3.045.373-4.551.644-2.936.529-5.776 1.406-8.736 1.883-2.562.413-5.163.588-7.633 1.434-1.456.499-2.792.539-4.297.784-1.409.229-2.777.697-4.16 1.043-3.057.765-6.183 1.206-9.274 1.812 2.217-3.604 4.839-7.238 5.182-11.595zm-6.455-48.429l1.987 12.012c-3.453-1.326-7.13-2.3-10.205-4.432 2.324-2.943 5.386-5.164 8.218-7.58zm-11.508-32.212c1.363.489 1.022 1.072.411 2.275-.62 1.221-1.19 2.409-1.679 3.697-1.283 3.372-2.384 6.82-3.524 10.243-1.073 3.226-2.162 6.452-3.178 9.697-.124.395-.409 2.08-1.014 2.039-.686-.045-1.323-3.016-1.523-3.572a82.66 82.66 0 00-4.243-9.75c-.497-.964-1.659-2.351-1.536-3.517.116-1.117 1.296-1.659 2.133-2.183 2.975-1.859 5.956-3.712 8.913-5.601a34.86 34.86 0 002.938-2.069c.48-.381 1.594-1.514 2.302-1.259zM216.555 337.5zm-.018-.469zm-57.188 46.523zm1 12.744c.664 1.431 1.295 2.889 2.012 4.293.404.792 1.412 2.085.866 2.999-.5.837-1.875.688-2.699.766-1.554.148-3.105.375-4.654.569l4.475-8.627zm-.751-12.589c.158.24.024.668.15.906-.127-.237.008-.666-.15-.906zm8.407 18.397c-.364-.363.044-1.289.018-1.714-.058-1.003-.299-.688-.955-1.178-1.275-.953.706-1.669-.054-2.979-.136-.234-.541-.276-.645-.516-.09-.205-.032-.445-.105-.641-.214-.561-.396-1.216-.617-1.807-.35-.934-.838-3.038-2.24-2.755l3.837-7.985c2.885 7.376 6.056 14.749 10.806 21.144-3.324 0-6.665.173-9.974-.221.634-.435-.074-.832-.071-1.348zm7.748 16.033c-.267.115-.508.034-.754-.178.246.212.486.293.754.178zm36.461-22.632a200.546 200.546 0 00-11.228 8.734c-1.57-4.424-1.707-9.163-1.905-13.803 4.149 2.25 8.866 3.095 13.133 5.069zm31.453-14.35c-1.149.129-2.089-.508-3.101-.92-1.189-.484-2.44-.642-3.698-.85-2.668-.44-5.33-.913-7.996-1.356l11.698-14.927c-.011 6.159 1.961 12.059 3.097 18.053zm15.851-17.626a1246.05 1246.05 0 002.251 4.293c.487.923.956 2.603 1.701 3.332.91.889 1.929.103 1.7-1.023-.247-1.22-1.332-2.628-1.923-3.694-.625-1.124-1.542-1.721-.336-2.455.992-.605 2.359-.972 3.468-1.275 3.269-.895 6.692-.88 10.053-.758-1.218 2.764-2.762 5.425-4.427 7.943a17.26 17.26 0 01-2.442 2.95c-.728.702-.991 1.627-1.688 2.315-.8.79-2.003 1.018-3.055 1.273-1.245.304-2.342.759-3.544 1.199-1.28.469-2.779.297-3.962.845-1.111.513-2.021.93-3.254 1.207-2.443.549-4.616 1.974-7.052 2.424-1.179.217-1.167-.017-1.523-1.172-.305-.991-.428-2.003-.607-3.02-1.085-6.198-1.996-12.423-3.073-18.622-2.793 3.213-5.284 6.677-8.082 9.882-1.403 1.607-2.914 3.112-4.35 4.687-.877.961-2.708 2.445-2.712 3.88-.006 2.064 3.357 2.584 4.867 2.831 3.922.642 7.944.773 11.559 2.613-1.105 1.23-2.851 1.49-4.334 2.016-2.009.712-3.977 1.56-5.961 2.338-1.003.394-2.002.879-3.032 1.187-1.091.327-2.226.223-3.311.52-.846.231-1.534.789-2.344 1.097-.926.353-1.823.35-2.794.474-2.075.263-3.938 1.047-5.856 1.825-1.902.77-3.494.575-5.393-.092-4.07-1.43-8.277-2.557-12.243-4.265-.54 4.062-.738 8.656.376 12.645.402 1.443 1.657 3.315.679 4.753-.79 1.162-2.71 2.008-3.817 2.84-3.371 2.532-6.701 5.26-10.485 7.164a18.818 18.818 0 01-5.812 1.843c-.691.102-2.164.52-2.718.195-.121-.071-.061-.453-.195-.532-.472-.282-.621-.299-1.183-.379 1.076-1.401-.613-1.396-1.247-2.301 2.378-1.906-1.612-3.883-2.204-5.515 1.432.149.976-.873.471-1.715-.736-1.225-1.877-1.197-3.228-1.499 1.015.227 1.99.593 3.038.624 1.012.03 2.024-.212 3.025-.333 1.174-.142 4.483.209 5.132-.957.667-1.198-1.072-3.187-1.663-4.143-1.23-1.992-2.613-3.872-3.714-5.943-2.092-3.938-3.877-8.106-5.53-12.244-.793-1.99-1.8-2.904-3.162-.684-1.003 1.635-1.324 3.648-2.612 5.117-.876-.973-.978-1.764-1.396-2.969-.465-1.338-1.324-2.456-1.895-3.735-1.24-2.775 2.132-2.097 3.851-2.289 2.844-.319 5.392-1.552 8.061-2.49 2.852-1.001 5.639-2.077 8.399-3.314 5.484-2.459 11.09-4.697 16.194-7.905 4.686-2.944 9.707-5.622 13.53-9.705 2.072-2.213 3.645-4.755 4.644-7.619.542-1.552.912-3.141 1.354-4.721.383-1.371 1.03-2.811.911-4.262l.016.238c1.727-1.232 1.173-3.304 1.138-5.096-.005-.319-.139-.755.03-1.056.216-.383.628-.008.81-.52.186-.522-.584-1.433-.725-1.928.243.124.485.247.728.368.262-1.577.676-3.119.626-4.73-.05-1.601-.434-3.218-.766-4.779a73.713 73.713 0 00-1.039-4.35c-.081-.292.014-.725-.272-.93-.479-.341-1.086.144-1.19.625.101-.469.328-.62.327-1.134-.001-.519-.217-1.105-.306-1.619a151.142 151.142 0 00-.77-4.168c-.244-1.219-.457-2.462-.777-3.663-.108-.405-.336-.836-.36-1.258-.036-.624.124-.531.324-.988.049-.116.31-.256.381-.411.126-.273-.118-.696.019-.977.176-.359.448-.461.8-.59 1.134-.414 1.546-.106 2.459-1.062.744-.779 1.733-1.061 2.654-1.634 1.101-.686 2.017-1.096 3.009-2.005 1.043-.955 2.233-1.799 3.169-2.863.642-.728.838-2.022 1.667-2.547.503-.32 1.163-.302 1.694-.639.539-.34 1.018-.852 1.534-1.229 1.284-.935 2.643-1.767 3.95-2.67 5.235-3.621 10.325-7.618 14.807-12.147 2.26-2.283 4.382-4.704 6.529-7.093.225-.251 1.552-2.149 2.058-2.052.557.107 1.018 2.505 1.266 3.016 1.244 2.563 2.387 5.078 3.348 7.768.373 1.046.831 1.665.023 2.424-.991.93-2.621 1.532-3.801 2.222-2.824 1.654-5.654 3.301-8.461 4.985-1.496.897-5.125 2.253-5.644 4.109-.665 2.375 2.062 5.684 3.057 7.655 1.386 2.741 2.4 5.6 3.416 8.491.427 1.212 1.807 6.424 3.753 5.955.995-.241 1.379-1.473 1.699-2.305a198.647 198.647 0 001.563-4.209c2.469-6.889 4.683-13.867 7.409-20.661 2.231 4.003 4.019 8.25 5.903 12.423.82 1.819 1.427 3.617 1.822 5.574.38 1.889 1.096 4.232.997 6.171-.197 3.858-15.92 9.617-8.754 14.268 3.132 2.032 7.208 2.368 10.379 4.285 1.678 1.014 1.624 2.709 1.567 4.461-.07 2.19.099 4.395.219 6.582.264 4.748 1.081 9.843.084 14.531-.329 1.546-.422 3.554-.975 5.019-.742 1.967-3.732 1.244-5.416 1.205-1.665-.039-14.909.753-13.083 4.256zm60.477-6.452c.614-.381.637-.233.17.332l-.17-.332zm4.377 6.307c-.326.452-.969.472-1.276.384.307.088.949.068 1.276-.384zm-184.1-107.36c4.389-3.978 9.772-6.849 14.413-10.547 5.028-4.006 10.274-7.72 15.52-11.432 10.448-7.391 20.679-15.031 31.28-22.207 10.488-7.102 21.399-13.499 32.464-19.653 5.092-2.833 9.83-6.319 15.101-8.803 2.763-1.303 5.501-2.656 8.296-3.893 1.353-.599 2.141-.822 3.161.397.724.865 1.224 1.915 1.863 2.843 1.882 2.733 3.816 5.406 6.165 7.76 1.027 1.029 4.487 4.548 6.096 3.048.642-.599.735-1.83.983-2.637.515-1.674 1.108-3.335 1.687-4.989 1.178-3.37 2.54-6.671 3.841-9.995 2.72 1.369 5.547 2.49 7.912 4.458 2.27 1.888 4.35 3.896 6.38 6.031.801.843 1.016.868.589 1.894-.196.47-.506.672-.245 1.229.211.451.894.493.883 1.127-.01.622-1.094 1.58-1.559 1.898-1.261.864-2.893 1.401-4.271 2.064-1.531.737-5.597 1.851-6.073 3.756-.343 1.374.966 2.222 1.913 2.949 1.27.976 2.566 1.921 3.807 2.935a39.6 39.6 0 016.644 6.936c1.775 2.368 2.973 5.077 4.665 7.478.561.795 1.825 2.563 2.907 1.608.886-.783.942-3.171 1.177-4.252.784-3.59 1.654-7.24 2.916-10.694 3.271 5.309 5.595 10.939 8.083 16.642 2.589 5.936 5.349 11.791 7.863 17.761.625 1.48 2.765 4.326 1.555 5.833-.582.726-1.64 1.126-2.402 1.633-1.267.844-2.478 1.793-3.697 2.702-2.373 1.768-5.468 3.519-7.346 5.832-1.726 2.125.661 4.094 2.378 5.207 2.597 1.683 5.683 2.338 8.578 3.314 3.173 1.07 6.253 2.614 9.605 3.056-.105-1.429-.103-2.739-1.49-3.509-1.593-.883-3.555-1.205-5.279-1.749-3.938-1.244-7.812-2.733-11.655-4.237 4.07-3.767 8.389-7.254 12.819-10.585 4.216 9.457 5.693 19.805 9.87 29.244 4.177 9.442 8.275 19.065 10.292 29.253l-1.339-1.028c-3.853 5.323-4.831 12.242-9.155 17.273-.681-3.234-2.537-5.887-4.127-8.714-.74-1.317-2.408-4.084-1.307-5.569.693-.935 2.657-1.018 3.699-1.272 1.755-.428 3.428-1.135 5.093-1.827 1.158-.48 2.561-.781 3.638-1.417.852-.502 1.684-1.731.179-1.728-1.296.002-2.838.884-4.056 1.276-1.774.57-3.562 1.1-5.366 1.568-1.165.301-2.44.328-3.576.698-1.501.49-1.65 1.622-1.517 3.073.293 3.194 1.75 5.915 3.389 8.609.846 1.39 1.672 2.762 2.161 4.326.321 1.028.483 2.408 1.495 3.03 2.361 1.451 4.489-4.558 5.188-5.966 1.977-3.979 3.835-8.017 5.742-12.029.953.803 1.177 2.128 1.539 3.251.402 1.248.84 2.486 1.259 3.73.488 1.447.918 2.932 1.482 4.353.367.925 1.074 1.941.945 2.975-.156 1.237-1.418 2.31-2.15 3.243-.797 1.016-1.521 2.088-2.269 3.14-1.709 2.403-3.479 4.769-5.109 7.228-1.639 2.473-2.996 5.114-4.601 7.607-1.532 2.378-3.213 4.661-4.853 6.964-1.565 2.198-2.753 4.539-4.206 6.791-1.701 2.634-3.72 5.079-5.584 7.597 0-.226-.732-.667-.885-.872-.332-.441-.072-.726-.712-.839-.62-.109-.662.654-1.322.026-.399-.38-.355-1.074-.2-1.442.204-.484.593-.326.545-.97-.017-.225-.401-.415-.48-.619-.132-.336-.027-.737-.108-1.079-.31-1.32-1.641-2.164-2.453-.821l-.276-.929.773.064c-.188-1.127.041-2.246-.365-3.235-.364-.888-.755-1.44-.487-2.385.288-1.017 1.005-2.4 1.457-3.521.589-1.457 1.107-2.943 1.616-4.428.715-2.082 2.231-5.216.81-7.304-.703-1.032-1.564-.965-2.677-.701a81.11 81.11 0 00-4.687 1.277c-1.013.306-2.257.822-3.285.285-1.077-.563-1.549-2.268-1.976-3.295-.659-1.584-1.276-3.154-2.118-4.653-.709-1.261-1.19-2.703-2.133-3.798-.759-.882-1.498-1.789-1.708-2.971-.072-.402.098-.904-.113-1.279-.238-.421-.758-.493-1.016-1.001-.606-1.19-.123-2.465-1.541-3.299-.545-.32-2.633-.903-.842-1.425-.795-2.094-1.756-4.118-2.705-6.146-.475-1.012-.951-2.024-1.401-3.048-.213-.486-.367-1.157-.646-1.601-.218-.346-.53-.462-.73-.749-.477-.682-.334-1.097-.53-1.88-.211-.84-.889-1.53-1.373-2.223-1.319-1.889-1.799-4.11-2.459-6.284-.288-.951-.804-2.036-.92-3.028-.104-.905.173-1.082.704-1.938 1.279-2.058 2.495-4.155 3.596-6.314.927-1.818 1.675-3.712 2.561-5.547.758-1.57 1.728-3.067 2.191-4.763.398-1.462.334-3.07-.827-4.182-1.543-1.479-3.81-.482-5.572-.009-2.239.601-4.479 1.204-6.717 1.81-1.088.294-4.038 1.806-5.009.779-.396-.419-.296-1.121-.352-1.645-.084-.776-.302-1.385-.641-2.091-.375-.781-.865-1.499-1.105-2.34-.217-.757-.096-1.454-.649-2.049-.521-.563-.608-.269-.652-1.133-.042-.803.13-1.295-.28-2.1-.372-.732-.94-1.353-1.259-2.116-.247-.593-.168-1.05-.264-1.68-.252-1.654-2.069-3.344-1.75-5.026.29-1.533 2.06-2.302 2.265-3.981.516-4.243-4.461-1.395-5.99-.24-.485.366-1.033 1.086-1.717.912-.532-.135-.677-.913-1.164-1.068-1.346-.43-.717 2.241-1.074 3.047-.816 1.841-2.786 3.272-4.097 4.76-1.613 1.83-3.061 3.802-4.625 5.673-.497.593-2.017 2.998-2.958 3.148-1.532.244.508-2.234.759-2.619 1.124-1.722 1.822-3.782 2.598-5.673.886-2.161 1.901-4.254 2.945-6.343 1-1.999 2.012-3.994 2.879-6.056.546-1.298 1.867-3.41 1.61-4.871-.284-1.614-2.001-1.508-3.297-1.354-2.152.256-4.302.613-6.442.951-5.376.849-10.84 1.252-16.164 2.371-.959.201-5.826.853-5.235 2.184.447 1.005 4.369-.198 5.078-.299 2.607-.371 5.216-.693 7.836-.947 2.777-.268 5.545-.531 8.293-1.024 2.703-.484 5.372-1.417 8.124-1.576-1.455 4.803-4.288 9.236-6.265 13.844-.976 2.275-2.016 4.511-3.053 6.759-.482 1.042-1.01 3.169-2.285 3.502-1.432.374-2.809-1.658-3.568-2.601-1.491-1.852-2.729-3.868-3.919-5.922-.67-1.157-6.359-11.87-7.552-11.127-.441.274 7.846 14.251 8.742 15.542 1.34 1.933 3.335 5.298 5.741 6.023.468.141 1.803-.039 1.877.548.071.571-1.541 1.139-1.897 1.357-2.375 1.458-4.309 3.693-6.325 5.589-2.297 2.16-4.83 4.002-7.377 5.852-.959.696-1.924 1.381-2.813 2.166-.711.628-1.558 1.648-2.505 1.902-.885.237-1.093-.182-1.529-.898-.833-1.369-1.696-2.721-2.539-4.083-3.308-5.339-6.894-10.277-11.501-14.589-.563-.525-1.411-1.302-1.897-.374-.638 1.214.676 1.636 1.395 2.123 2.372 1.602 4.287 4.484 5.984 6.743 1.971 2.623 3.743 5.373 5.493 8.146.838 1.327 3.183 3.436.996 4.488-2.34 1.124-5.359 1.162-7.847 1.938-2.973.926-5.789 2.283-8.767 3.212-2.55.795-5.154 1.302-7.726 1.986-.644.171-2.03.457-2.273 1.221-.28.889.578 1.01 1.233 1.033 2.259.08 4.967-.617 7.12-1.167 1.733-.443 3.453-.981 5.148-1.547 1.11-.37 1.965-1.126 2.599.111-1.877.823-3.577 1.772-5.491 2.469-.676.246-1.055.779-1.658 1.153-.844.524-1.906.715-2.829 1.073-1.983.77-3.831 1.825-5.861 2.485-2.148.701-4.377 1.122-6.537 1.784-1.676.513-2.987 1.508-4.789 1.585-.952.04-1.924-.079-2.873.067-.859.133-1.583.641-2.425.767-.601.09-1.481-.014-2.073-.063-.272-.022-.467.043-.755.014-.212-.022-.457-.351-.705-.39-.849-.13-1.943.327-2.824.322-.937-.004-1.88-.108-2.813-.191-1.756-.154-3.692-.261-5.216-1.214-1.434-.896-2.886-.475-4.466-1.13-1.706-.708-3.305-.124-4.977-.665-.691-.223-.979.017-1.68-.028-.855-.055-1.835-1.121-2.61-1.494-3.752-1.803-7.173-3.777-10.131-6.763-1.245-1.257-2.173-2.783-3.794-3.548-1.539-.727-1.945-2.257-3.073-3.498-1.048-1.153-5.353-4.731-3.997-6.353.454-.544 1.591-.738 2.228-.986 1.024-.401 2.026-.862 3.04-1.287a80.405 80.405 0 017.042-2.573c-.831 2.454-1.565 4.964-2.541 7.365-.289.708-.912 1.619-.846 2.423.083.987.994 1.261 1.48 2.02.777-2.035 1.502-4.093 2.305-6.117.662-1.672 1.659-3.555 1.54-5.408-.29-4.572-5.214-1.576-7.476-.597-1.789.775-3.583 1.541-5.373 2.315-1.024.442-2.532 1.344-3.669.818-1.444-.666-1.405-2.742-1.04-4.016.593-2.071.342-2.701-1.388-4.011 2.887-2.485 5.826-4.912 8.65-7.471zm114.203-86.854c.388 1.014 2.033 3.782 1.308 4.695-.396.498-2.094.907-2.687 1.171l-3.402 1.51c1.595-2.458 3.188-4.917 4.781-7.376zm24.376 6.447c-1.269 3.308-2.404 6.658-3.461 10.038-.376 1.198-1.054 6.022-2.853 5.768-.955-.135-1.917-1.409-2.583-2.027a35.255 35.255 0 01-3.078-3.248c-2.052-2.451-4.259-4.896-5.721-7.763 5.584-2.351 11.728-2.56 17.696-2.768zm20.384 14.8l-.401-.404.401.404zm1.717 3.284c1.242 1.954 2.447 3.942 3.699 5.895-.81-1.263-1.594-2.546-2.409-3.805-.778-1.204-.7-1.398-2.094-.931.637 1.637.921 3.284 2.554 4.224 1.898 1.094 3.606 1.486 4.139 3.955.487 2.264-.673 4.565-1.279 6.686-.781 2.732-1.301 5.543-1.976 8.303-1.568-.659-2.176-2.543-2.854-3.95-.948-1.965-2.152-3.851-3.49-5.572-2.883-3.708-6.667-6.581-10.284-9.525 2.76-1.417 5.525-2.829 8.282-4.254 1.701-.877 4.325-3.205 5.712-1.026zM359.01 355.01c3.315-5.521 6.465-11.16 9.988-16.553 1.706-2.609 3.6-5.089 5.467-7.583 1.54-2.056 2.894-4.458 4.739-6.248 1.985-1.926 3.752-4.099 5.608-6.152.866-.957 1.559-2.054 2.493-2.947 1.051-1.003 2.241-1.855 3.317-2.832 2.161-1.963 4.074-4.196 6.291-6.097 2.218-1.901 4.64-3.674 7.034-5.348 1.85-1.295 4.315-3.447 6.683-3.449 2.517-.001 2.185 2.995 2.224 4.835.064 3.03-.402 6.055-.783 9.053-.393 3.08-.861 6.142-1.707 9.135-1.613 5.715-3.329 11.658-5.547 17.166-1.111 2.761-2.536 5.369-3.748 8.082-.805 1.805-1.376 4.119-3.165 5.23-1.215.753-2.876.826-4.256 1.071-1.787.317-3.578.603-5.363.928-3.303.601-6.652.888-9.952 1.496-3.472.64-6.871 1.111-10.382 1.492-1.84.2-3.604.63-5.418.974-1.661.316-3.403.239-5.025.748.496-1.002.925-2.041 1.502-3.001zm-25.54 6.472c.645-.417.676-1.136.922-1.782.269-.712.733-1.231 1.105-1.881.736-1.285.796-2.53 1.782-3.661 2.235-2.565 3.001-6.281 4.708-9.191 4.135-7.052 8.218-14.121 12.187-21.274 1.284 2.601 2.529 5.225 3.868 7.798 1.085 2.084 3.025 4.451 3.481 6.78.384 1.962-1.949 4.39-2.848 6.004-1.332 2.39-2.68 4.811-3.729 7.343-.872 2.101-1.337 4.542-2.685 6.415-1.341 1.865-3.556 1.563-5.594 1.824-2.662.34-5.281.955-7.916 1.446-1.205.224-2.337.472-3.492.884-.564.202-2.763.827-1.789-.705zm-14.641-149.999c6.364.407 11.236-2.33 16.614-5.277 2.73-1.494 5.24-3.3 7.856-4.977 2.593-1.663 5.28-3.254 7.73-5.128 1.076-.823 1.926-1.876 2.958-2.746.975-.821 2.145-1.369 3.058-2.27 1.771-1.746 3.721-3.804 5.027-5.914 3.188-5.149 7.074-9.833 10.804-14.586 2.086-2.657 3.801-5.574 5.632-8.406 1.899-2.938 3.83-5.858 5.52-8.925 11.579 24.622 23.387 49.133 35.059 73.708a56203.385 56203.385 0 0117.884 37.687c2.853 6.02 5.887 11.944 8.893 17.887 2.934 5.802 5.447 11.883 8.134 17.806 1.476 3.252 3.426 6.243 4.826 9.535 1.382 3.249 2.981 6.408 4.694 9.494 1.689 3.038 3.07 6.226 4.768 9.246 1.663 2.956 2.579 6.3 4.476 9.129-5.479 1.126-10.984 2.119-16.423 3.425-2.7.648-5.447 1.071-8.144 1.727-2.657.647-5.189 1.746-7.897 2.177-5.601.891-11.215 1.844-16.836 2.594-2.821.377-5.664.461-8.491.752-2.934.303-5.794 1.015-8.694 1.524.159-1.956 1.251-3.715 2.008-5.481.88-2.057 1.707-4.15 2.386-6.282 1.351-4.242 2.453-8.648 3.582-12.957 2.187-8.346 4.356-17.831 2.417-26.446-.647-2.872-2.198-5.936-4.992-7.233-3.64-1.69-7.14 1.005-10.107 2.9-3.786 2.42-7.238 5.341-10.583 8.33-1.615 1.443-3.181 2.881-4.581 4.537-1.352 1.599-2.975 2.71-4.388 4.214-6.768 7.208-12.638 15.206-17.761 23.653-.909-2.33-1.629-4.656-2.976-6.788-1.028-1.628-2.167-3.178-3.326-4.713-.78-1.033-1.938-2.369-1.315-3.714.645-1.39 2.719-2.053 2.319-3.883l-2.514 1.47c-2.462-7.855-5.435-15.517-7.895-23.369-1.217-3.886-2.384-7.79-3.681-11.651-1.202-3.582-2.986-6.906-4.54-10.338-3.201-7.061-4.264-14.816-6.982-22.044-.551-1.464-1.374-2.808-1.914-4.27-.241-.655-.446-1.139-.121-1.754.198-.375.892-.575.975-1 .203-1.035-1.617-.61-2.214-1.167-.48-.448-.674-1.383-.929-1.978-.464-1.084-.904-2.178-1.356-3.267-3.58-8.622-7.428-17.135-11.439-25.565.826.114 1.646.28 2.479.334zm61.413-82.012c-.371-.559-.352-1.414-.851-1.894-.502-.482-1.082-.355-1.529-.905-.164-.202-.781-1.328-.864-1.585-.039-.123.078-.578-.005-.848-.151-.496-.61-.727-.859-1.144-1.071-1.798.729-2.349 1.136-4.018.236-.971.127-1.586.908-2.326.596-.564 1.548-1.194 2.261-1.624.507-.307.531-.219 1.052-.384.236-.074.356.069.645-.046.551-.221 1.075-.988 1.471-1.398 1.168-1.21 1.821-2.131 1.412-3.848-.198-.831-.535-2.294-1.618-2.11-.596.101-1.358 1.175-1.779 1.578-.811.778-1.615 1.716-2.554 2.348-.656.441-1.461.392-2.089.779-.789.488-.702 1.287-1.074 2.049-.771 1.582-2.925 2.848-4.254 3.935-1.35 1.104-2.74 2.186-4.302 2.979-1.401.71-3.812 1.737-5.414 1.23-2.737-.868 1.761-7.193 2.728-8.392 1.965-2.435 6.58-4.41 5.942-8.093-.288-1.666-1.292-2.806-3.014-2.077-2.137.905-4.023 2.624-6.119 3.676-2.191 1.099-4.458 2.041-6.708 3.011-1.232.531-2.472 1.044-3.697 1.59-.939.419-1.931 1.033-2.995.686 3.325-4.601 6.652-9.224 10.427-13.472 1.775-2 3.807-3.685 5.885-5.357 1.554-1.25 3.314-2.552 3.207-4.766-.08-1.681-1.022-3.928-3.015-3.543-1.28.247-2.376 1.36-3.578 1.841a19.687 19.687 0 00-2.786 1.357c-1.064.62-2.432.712-3.602 1.015-1.284.333-2.551.737-3.847 1.019-2.767.602-5.572.436-8.382.436 2.349-4.045 6.073-6.964 9.609-9.913 1.993-1.661 3.839-3.49 5.848-5.132 1.983-1.622 4.133-3.027 6.108-4.662l.443 1.717c.931-.444 1.172-1.65 2.081-2.167 1.118-.636 2.49-.37 3.673-.092 2.572.607 4.853 1.855 6.839 3.583 4.09 3.558 7.073 8.164 9.445 12.997a76.504 76.504 0 013.347 7.92c.47 1.312.914 2.683.932 4.091.021 1.549-.671 2.877-1.054 4.343-.73 2.795-.902 5.772-1.287 8.63-.41 3.036-.635 6.076-.892 9.127a65.646 65.646 0 01-.593 4.823c-.079.49-.074 1.18-.304 1.621-.21.405-.759.563-.95.964-.22.458-.049.438.094 1.038.184.769.079 1.339-.142 2.104-.481 1.67-.982 3.33-1.438 5.008-1.271-.526-2.868-1.85-3.362-3.189-.269-.727-.015-1.163.091-1.881.144-.98-.083-1.809-.627-2.629zm-34.615-70.248zM332.863 30.79zm-.057 1.14c-.109-.304.261-.794.1-1.08.05.09-.127 1.08-.1 1.08zm75.781 165.428l.547.813-.547-.813zm2.621.108c-.076-.143-.153-.288-.235-.432.082.144.159.289.235.432zm1.575 2.619l.096-.17c-.074.26-.196.238-.365-.068.089.08.18.157.269.238zm1.169 1.791zM71.377 204.75c-.643-.312-1.553-1.261-2.31-1.265-.33-.002-1.044.218-.646.613.189.188-1.31 0-1.33-.005-.89-.222-1.768-.56-2.635-.858-1.533-.527-3.054-1.09-4.582-1.629-3.07-1.084-5.941-2.557-8.93-3.828-5.776-2.455-10.675-5.853-15.578-9.734-10.056-7.964-16.45-19.603-22.366-30.74 6.015.533 12.257.786 18.08-1.093 6.06-1.955 10.901-5.425 16.057-9.005l1.003 2.651 1.455-2.858L76.17 206.27c-1.632-.38-3.278-.783-4.792-1.521zm-58.408-30.277c1.6.724 1.983 1.437 1.992 3.363-.009-1.924-.392-2.638-1.992-3.363zm1.117-78.399zM7.878 109.69c.204-.747.411-1.495.617-2.242.115 1.46.935 1.985-.84 2.65l.223-.408zm1.342 1.641c-.159.253-.212.192-.161-.183l.161.183zm8.06-20.021c3.634-4.632 7.16-9.346 11.167-13.667 3.172-3.419 6.792-7.237 11.603-8.07-.398 4.41-3.433 7.976-5.838 11.482-1.345 1.96-2.666 3.852-4.243 5.636-1.426 1.612-2.22 3.406-1.28 5.504.564 1.257 1.774 3.041 3.342 2.828.93-.128 1.79-1.04 2.52-1.568 1.04-.755 2.141-1.43 3.218-2.132a238.233 238.233 0 016.129-3.888c1.854-1.131 3.81-2.859 6.068-3.026-.83 2.208-1.979 4.268-3.075 6.35-1.118 2.121-2.128 4.336-3.573 6.265-1.411 1.885-3.203 3.106-4.974 4.601-1.514 1.277-1.397 3.088-.57 4.772.967 1.968 2.403 3.07 4.148 1.434 1.888-1.768 3.687-3.3 5.817-4.773 1.792-1.237 3.505-1.99 5.506-2.85.798-.343 2.415-1.462 3.322-.985 1.246.656.174 3.861-.073 4.902a27.541 27.541 0 01-2.7 6.982c-2.07 3.736-4.272 7.615-7.82 10.107-2.892 2.031-9.616 4.187-7.41 8.749.965 1.993 2.049 3.941 3.069 5.907.633 1.221 2.85 3.918 2.047 5.38-.541.983-2.364 1.665-3.293 2.223-1.262.758-2.532 1.5-3.822 2.209-2.37 1.304-4.8 2.513-7.32 3.501-5.122 2.005-10.753 2.252-15.817 4.415.3-.123.602-.238.908-.346-.882-.153-1.239-1.539-1.549-2.237-.15-.341-.474-.802-.546-1.162-.083-.418.209-.711.183-.949-.058-.528-.322-.426-.518-.773-.34-.599-.191-.499-.284-1.153-.066-.463-.296-.803-.408-1.248-.201-.797.07-1.572.21-2.355-2.165.18.735-2.366.472-3.119-.25-.715-1.074-.854-1.191-1.73-.124-.925-.003-1.927-.128-2.885-.127-.972-.337-1.985-.134-2.958.18-.861.676-1.459.059-2.275-.379-.5-1.105-.64-1.45-1.187-.526-.839-.07-1.742.799-2.106-.741-.427-1.263-1.085-1.2-1.979.059-.828.457-.871.923-1.445 1.478-1.822-1.614-1.846-1.197-3.77.199-.912 1.03-1.628 1.338-2.51.329-.936.47-2.129.518-3.111.037-.771-.375-1.262-.431-1.924-.063-.747.476-1.014.597-1.672.135-.736-.492-1.496-.326-2.242.168-.753.91-1.072 1.132-1.856.253-.898-.202-1.526-.17-2.356.048-1.231.573-.504 1.213-1.012.42-.332.191-.703.289-1.157.126-.583.278-.796.64-1.271.478-.625 1.045-1.166 1.393-1.884.407-.844.52-1.76.957-2.58.614-1.154.509-1.522-.067-2.668-.333.774-1.082 1.307-1.319 2.131.45-1.572 2.148-3.236 3.139-4.5zM1.676 130.375c-.277-.244.157-.33.278-.125l-.278.125zm85.06-55.038zM80.69 1.65zm.196-.126zm.668-.146c-.188.05-.382.071-.57.117.185-.045.399-.05.57-.117zm-13.746 72.16zm135.156 12.467c.239-4.393.177-8.964 1.79-13.129.502-1.297 1.076-3.285 2.531-3.801 2.017-.715 5.108.213 7.207.343 4.345.27 8.672-.218 12.929-1.082 2.278-.461 4.394-1.474 6.591-2.202 2.222-.737 4.389-1.541 6.46-2.647.86 2.558 2.481 4.864 4.379 6.763 1.683 1.684 4.075 3.11 2.504 5.681-1.409 2.307-2.081 4.763-3.207 7.195-1.268 2.74-3.274 5.076-5.09 7.46-.224-.772-.276-1.538-.259-2.337-1.254.273-3.189 1.848-3.824.082-.229-.64.219-1.968-.714-2.088-1.404-.181-1.49 2.394-1.344 3.173.337 1.785 1.477 2.67 3.042 3.405-4.787 2.601-8.891 6.177-13.819 8.593-2.457 1.205-5.27 1.656-7.952 2.13-1.698.299-3.477.227-5.067-.484-5.917-2.647-6.456-11.515-6.157-17.055zm308.154 267.696c-1.456-2.145-1.723-4.79-2.138-7.282-.47-2.825-1.119-5.598-2.207-8.253a64.788 64.788 0 00-3.438-7.103c-.363-.647-.802-1.52-1.649-1.586-.948-.073-1.371.87-1.996 1.383-.881.725-2.058.906-3.115 1.268-1.306.447-2.57 1.008-3.884 1.437-2.5.817-5.251.897-7.826 1.466-1.211.267-2.425.519-3.638.781-.811.174-2.198.824-3.025.687-1.746-.288-3.014-4.385-3.612-5.822-.977-2.352-2.452-4.508-3.337-6.875-.923-2.469-1.733-4.905-2.854-7.304-1.169-2.501-2.398-4.982-3.501-7.513-.421-.964-.716-2.034-1.298-2.919-.628-.957-1.433-1.138-1.694-2.308-.084-.375-.076-1.025-.351-1.326-.48-.524-.65-.035-1.11-.2-.479-.173-.389.009-.558-.454-.031-.084.234-.311.216-.443-.032-.23-.182-.435-.225-.654-.19-.98.082-1.67-.349-2.665-.547-1.26-.98-2.568-1.455-3.858-1.896-5.152-4.679-9.86-6.956-14.786-.275-.595-.753-1.034-.962-1.664-.182-.553-.04-1.215-.311-1.744-.299-.587-.786-.558-1.174-.983-.332-.365-.364-.703-.471-1.183-.52-2.329-1.854-4.25-2.482-6.557-.355-1.308-1.071-2.262-1.73-3.424-.773-1.36-1.28-2.866-1.924-4.289-.601-1.329-1.207-2.678-1.887-3.969-.626-1.188-1.01-1.358-1.923-.268-.714-1.034-1.499-1.917-1.987-3.083-.415-.993-1.085-1.036-2.038-1.661.609.399 1.023.933 1.653.259.286 1.152 1.709.064 1.468-.854-.269-1.018-1.628-1.202-2.466-1.493.411-1.077 1.077-.118 1.06-1.332-.015-1.008-1.006-2.192-1.454-3.039-1.237-2.335-2.196-4.832-3.241-7.256-1.05-2.435-1.999-4.926-3.189-7.297-.491-.979-.991-2.017-1.601-2.929-.263-.393-.554-.844-.952-1.12-.246-.171-.946-.23-1.085-.493-.278-.527.326-1.494.241-2.156-.13-1.016-.677-2.2-1.106-3.112-1.109-2.354-2.177-4.753-3.341-7.079-1.127-2.256-2.337-4.411-3.237-6.776-.461-1.212-1.086-2.267-1.671-3.417-.463-.908-.728-1.898-1.53-2.589.07.489.066.984.106 1.476-.046-.556.103-1.289-.237-1.77-.407-.574-1.214-.444-1.69-.95.386.409.964.625 1.518.638-1.114-2.975-1.967-6.27-3.992-8.79-.26-.323-.608-.856-.971-1.047-.221-.117-1.024-.055-1.127-.169-.651-.724.408-2.034.194-2.902-.227-.918-1.115-1.748-1.44-2.698-.51-1.496-.884-2.495-1.828-3.747-.594-.788-.797-1.712-1.145-2.645a109.08 109.08 0 00-1.917-4.846c-1.289-3.014-2.995-5.769-4.398-8.717-.655-1.375-.977-2.942-1.749-4.255-.594-1.011-1.538-1.742-2-2.837-.565-1.339-.835-2.764-1.444-4.103-.429-.941-.89-1.856-1.277-2.814-.522-1.293-1.499-4.221-3.43-3.164.693-2.322 1.478-4.641 2.078-6.988.158-.622.169-1.427.621-1.925.474-.521.757-.43 1.087-1.093.886-1.777.409-4.708.556-6.627.181-2.377.598-4.727.65-7.115.053-2.378.041-4.716.199-7.093.146-2.192.293-4.371.063-6.553-.215-2.053 1.321-3.323 1.731-5.292.444-2.131.178-4.415-.13-6.547-1.129-7.815-4.673-16.084-9.551-22.31-3.716-4.745-10.615-10.847-17.102-7.965-.892.397-1.33.816-2.211.183-.704-.507-.755-1.318-1.767-1.37-.983-.05-1.999.859-2.791 1.337-1.097.661-2.237 1.255-3.36 1.872-2.054 1.13-3.881 2.406-5.337-.144-.394-.69-.713-2.306-1.493-2.647-.637-.277-.935.35-1.36-.236l-.162.195c.329-.398-.031-.797.037-1.225l-.088-.452a2.59 2.59 0 00.44-.492c.078-.653-.508-1.514-.792-2.058-.927-1.772-1.535-3.682-2.463-5.45-1.107-2.107-1.941-4.23-2.89-6.404-.983-2.254-2.394-4.315-3.438-6.55-2.155-4.619-4.127-9.328-6.334-13.922-.456-.95-2.925-7.779-4.573-7.011.374-1.67-.735-2.67-1.689-3.944-.57-.76-.913-1.516-1.36-2.337-.373-.687-.968-1.175-1.349-1.839-.34-.591-.285-1.187-.473-1.82-.213-.721-.666-1.189-1.118-1.77-1.079-1.384-1.891-2.985-3.321-4.063-.887 3.54 1.152 7.063 2.478 10.211 1.618 3.843 3.053 7.766 4.587 11.643 3.027 7.655 6.452 15.143 10.023 22.557 1.87 3.881 3.851 7.712 5.565 11.666.689 1.587 1.389 3.118 2.242 4.626.938 1.658 1.398 3.494 2.195 5.212.573 1.239 1.685 2.499 1.247 3.946-.423 1.4-2.324 3.124-3.362 4.113-2.366 2.256-5.564 2.922-6.457 6.359-.844 3.25-.427 7.868 2.375 10.164 2.916 2.391 8.154 1.043 11.43.591-2.005 2.997-4.076 5.951-6.048 8.969-1.825 2.795-3.418 5.744-2.96 9.189 1.112 8.359 11.939 1.109 15.806-.745-1.025 3.361-1.718 8.103.566 11.166 1.659 2.226 5.117 2.02 7.485 1.399 1.811-.474 2.338-.306 3.417 1.344.919 1.406 1.99 2.507 3.134 3.74 2.718 2.93 4.378 6.055 6.138 9.586.97 1.947 1.541 3.257.526 5.373-.908 1.892-1.977 3.774-3.061 5.57-2.068 3.426-4.803 6.395-7.162 9.615-4.78 6.528-8.931 13.445-14.408 19.461-5.407 5.939-12.349 10.381-18.918 14.938-3.422 2.374-6.703 4.897-10.545 6.576-1.95.853-3.97 1.534-6 2.168-.966.302-1.946.569-2.907.885-.544.18-1.416.673-1.999.41-.422-.19-.85-1.535-1.021-1.862-.436-.83-.86-1.659-1.377-2.441-1.083-1.639-2.327-3.162-3.406-4.807-2.389-3.643-4.587-7.423-7.215-10.904-2.48-3.284-5.29-6.33-8.2-9.235-2.795-2.791-5.843-5.375-9.563-6.828-3.74-1.46-7.646-1.706-11.611-1.409-3.733.279-7.14 1.447-10.725 2.423-1.266.344-2.958.895-4.15.099-.581-.389-.843-1.052-1.262-1.583-.427-.545-1.176-.966-1.472-1.593-.48-1.02.415-2.32.582-3.368.331-2.09.019-4.288-.443-6.332-1.942-8.611-4.661-16.946-5.988-25.706-.309-2.04-.685-4.123-.746-6.187-.039-1.287.591-2.544.528-3.768-.062-1.221-1.337-1.601-2.363-.941-1.105.712-1.104 2.394-1.17 3.552-.515 8.978 1.523 17.551 3.705 26.173.53 2.094 1.027 4.194 1.576 6.284.475 1.811 1.011 3.647.292 5.461-.649 1.635-1.737 3.12-2.49 4.715-.795 1.686-1.442 3.776-2.67 5.205-1.15 1.338-2.276 1.629-1.758 3.683.118.466.436.887.288 1.357-.21.669-1.663 1.303-2.215 1.658-3.651 2.349-7.552 4.29-11.274 6.518-1.619.969-3.22 2.322-4.968 3.026-1.681.677-3.095 1.355-4.608 2.4-3.442 2.377-7.07 4.494-10.605 6.732a1107.13 1107.13 0 00-10.905 6.979c-3.396 2.206-6.563 4.843-10.081 6.847-3.519 2.005-7.133 3.927-10.694 5.87-.813.444-1.517.902-2.458.9-.728-.001-1.292-.266-2.016.01-1.697.646-3.296 2.553-4.699 3.676-3.349 2.681-6.987 4.94-10.593 7.251a68.746 68.746 0 00-5.059 3.567c-1.4 1.085-2.685 2.384-4.225 3.276-1.616.935-3.018 1.674-4.427 2.947a86.756 86.756 0 01-4.523 3.824c-1.628 1.282-3.283 2.529-4.821 3.92-1.406 1.271-2.598 2.759-4.028 4.003-1.424 1.238-2.996 2.259-4.245 3.695-1.353 1.556-2.357 3.379-3.469 5.107 0-.183-.831-.77-.925-.905-.45-.647-.315-1.409-.665-2.101-1.203 1.22-.236 4.173-.151 5.64-.181-3.121-.064-6.252-.477-9.358-.408-3.059-1.018-6.087-1.082-9.182-.066-3.131.143-6.269.24-9.397.04-1.341.138-2.677.405-3.995.111-.542.384-1.118.424-1.667.054-.75-.196-.825-.485-1.486-.451-1.03-.04-1.152.487-1.994.616-.985.003-1.301-.289-2.26-.375-1.241.747-1.53.744-2.645-.001-.462-.433-.918-.431-1.354.005-.93.424-.415.73-.983.302-.563-.522-1.017-.723-1.62-.187-.553-.175-1.012.093-1.536.071-.14.249-.295.3-.43.11-.286.044-.331.1-.54.472-1.754 1.215-3.438 1.781-5.208.512-1.602.117-3.266.154-4.904.032-1.407.735-2.503 1.017-3.847.312-1.482-.62-2.081-1.211-3.293-.689-1.412-.566-3.24.033-4.658.224.736.449 1.472.672 2.209.165-.575.475-1.201.415-1.814-.067-.7-.445-.768-.664-1.297-.388-.934.052-.519.419-1.362.188-.433-.039-1.014-.009-1.472.039-.588.282-1.06.397-1.626.185-.907.009-1.583.632-2.33.56-.672 1.41-1.119 2.08-1.67 1.248-1.025 2.43-2.155 3.637-3.229 1.687-1.502 3.976-2.725 3.876-5.209-2.55.936-4.401 3.092-6.416 4.81-2.246 1.913-4.82 3.389-7.102 5.258-4.861 3.981-10.143 7.501-15.56 10.684-2.694 1.584-5.429 3.092-8.154 4.62-2.469 1.383-4.801 3.076-7.476 4.052-2.43.886-5.487 1.97-8.032.968-1.01-.398-2.016-1.112-2.42-2.15-.339-.873-.005-2.237-.861-2.872-.33-.245-.978.01-1.097-.519-.093-.416.667-.871.727-1.284.147-1.026-1.094-2.791-1.487-3.74-.224-.543-.41-1.253-.866-1.659-.17-.15-.505-.159-.62-.314-.138-.188-.015-.349-.108-.522-.28-.523-.196-.897-.673-1.402-.514-.545-1.225-.912-1.82-1.36.027-.027.5.277.554.307-.056-.857-.517-1.602-.64-2.441-.13-.879.15-1.643-.284-2.466-.441-.837-1.306-1.416-1.786-2.242-.49-.842-.687-1.843-1.082-2.733-.752-1.692-1.984-2.749-2.313-4.599-.073-.415-.043-.781-.298-1.144-.219-.309-.654-.251-.835-.623-.268-.548.092-.963-.41-1.522-.95-1.054-2.516-.722-1.714-2.541.813-1.844.293-1.899-.838-3.3-1.151-1.426-1.459-3.564-1.975-5.271-.204-.673-.324-1.385-.828-1.878-.822-.802-1.064-.298-.67-1.516-1.503.075-1.594-2.732-1.775-3.809-.119-.7-.273-1.662-.79-2.194-.357-.368-1.137-.308-1.153-.319-.333-.237-.926-1.432-.982-1.769-.063-.385.307-.648.243-1.109-.066-.473-.556-.946-.858-1.264-1.186-1.247-3.136-3.899-2.419-5.765 3.06 3.157 5.988 6.438 9.046 9.597 2.425 2.507 5.093 4.75 8.48 5.798 3.837 1.185 8.029 1.363 12.02 1.232 2.092-.069 4.162-.508 6.26-.4 2.172.111 4.22.001 6.358-.474.919-.204 1.829-.587 2.766-.673.722-.066 1.427.062 2.15-.064 1.829-.321 3.478-1.481 5.101-2.319 3.525-1.818 6.873-3.865 9.872-6.48 5.77-5.03 9.524-11.797 13.125-18.438 4.061-7.491 7.655-15.115 12.16-22.371 2.223-3.58 4.382-7.236 6.967-10.571 2.384-3.075 5.298-5.603 8.445-7.87 2.966-2.136 5.998-4.635 9.663-5.397 1.987-.414 4.031-.556 6.032-.896 2.145-.364 4.162-.615 6.292-.019 1.889.528 3.734 1.212 5.621 1.748 2.055.584 4.192.866 6.119 1.84 1.721.87 3.251 2.073 4.925 3.028 1.497.853 3.742 1.28 4.538 2.945.804 1.682.689 3.739 1.337 5.497.74 2.011 1.782 3.887 2.996 5.649 2.032 2.95 4.685 5.517 8.395 5.946 4.428.512 8.863-1.158 12.893-2.796 4.163-1.692 7.483-4.815 11.531-6.715 0 1.465.183 2.923.03 4.387-.17 1.614-.617 3.196-.99 4.77-.733 3.091-1.473 6.204-2.739 9.13-1.222 2.826-2.942 5.313-4.707 7.818-1.7 2.411-3.298 4.959-5.344 7.101-3.63 3.8-8.805 6.071-13.957 6.852-5.291.802-11.275.624-15.432-3.093-4.013-3.588-7.143-8.235-8.066-13.6-1.074-6.245-.83-12.662-.428-18.957.204-3.19.497-6.377 1.023-9.531.457-2.734 1.724-5.647.733-8.374-.227-.63-.328-1.236-.956-1.272-1.094-.06-2.013 1.577-2.452 2.325-1.465 2.502-1.856 5.317-2.373 8.124-1.248 6.793-1.506 13.831-1.107 20.707.198 3.399.324 6.851 1.263 10.145.935 3.28 2.354 6.476 3.953 9.482-.654-.13-1.018.244-.825.888l.845-.849c3.232 4.154 7.046 9.143 12.25 10.862 3.057 1.009 6 1.837 9.253 1.744 3.205-.092 6.179-.97 9.13-2.167 2.671-1.083 5.429-2.022 7.652-3.918 2.27-1.935 4.125-4.508 5.929-6.866 3.904-5.108 7.193-10.677 9.116-16.842.945-3.033 1.349-6.126 1.853-9.25.249-1.548.49-3.103.504-4.674.011-1.276-.315-2.522-.306-3.793.017-2.412 2.354-3.266 4.455-3.572 2.705-.394 4.077 2.001 5.475 3.907 1.865 2.541 3.656 5.114 5.334 7.783.742 1.181 1.164 2.727 1.952 3.827.548.763 1.493 1.143 2.13 1.931 1.941 2.396 3.981 4.982 5.545 7.636 1.502 2.548 3.692 4.83 5.617 7.079 2.126 2.484 4.458 4.782 6.589 7.26 1.675 1.951 3.906 3.085 5.601 4.985 1.717 1.924 4.525 3.11 6.611 4.654a61.644 61.644 0 013.523 2.803c1.126.966 2.053 2.22 3.234 3.105 4.346 3.258 8.691 6.219 14.364 6.421 1.23.043 2.282-.374 3.452-.441 1.269-.072 2.467.55 3.812.435 2.995-.255 6.137-.929 9.012-1.79 5.802-1.737 11.929-3.846 16.87-7.437 2.489-1.809 4.49-4.08 6.56-6.333 1.097-1.193 3.668-4.003 1.812-5.718-1.57-1.449-4.432 2.602-5.419 3.533-2.172 2.05-4.803 3.459-7.554 4.577-2.778 1.129-5.664 1.964-8.49 2.96-2.963 1.045-5.842 2.23-8.986 2.611-1.611.194-3.231.297-4.845.465-1.65.171-3.315.63-4.972.386-3.015-.443-6.242-.803-8.933-2.317-5.236-2.946-9.217-7.974-14.001-11.571-2.406-1.809-5.001-3.332-7.267-5.331-2.338-2.061-4.323-4.497-6.343-6.861a672.568 672.568 0 01-13.118-15.82c-1.905-2.372-4.046-4.679-5.764-7.191-.689-1.008-1.21-2.146-1.016-3.394.229-1.489 1.197-2.732 1.38-4.248.347-2.886-1.153-5.71-2.331-8.25-.457-.985-1.11-2.103-.325-3.085.783-.98 2.062-1.743 2.931-2.694 2.09-2.284 4.132-4.614 6.052-7.043.857-1.084 1.767-2.15 2.461-3.35.848-1.467 1.196-3.135 1.683-4.743 1.885-6.242 2.557-12.673 1.826-19.163-.669-5.942-1.113-12.65-3.77-18.087-2.543-5.203-6.641-9.327-11.016-13.017-2.522-2.127-5.08-4.213-7.628-6.307-2.476-2.035-5.162-3.302-7.869-4.948-5.373-3.266-11.259-3.787-17.423-3.276-3.201.265-6.417.154-9.515 1.14-2.941.936-5.661 2.53-8.245 4.187-5.182 3.323-10.28 6.785-15.517 10.024-10.597 6.553-23.911 11.988-36.469 8.82-6.215-1.568-12.38-4.056-18.033-7.071-5.672-3.025-10.95-6.494-16.973-8.84-3.094-1.204-6.243-2.27-9.318-3.526-1.327-.542-2.679-1.33-4.116-1.53-.524-.074-1.23.124-1.714-.12-.431-.217-.281-.477-.621-.698-.708-.462-1.95-.381-2.822-.707-.81-.302-2.28-1.384-3.159-1.273-.473.06-.65.527-1.167.51-.476-.017-.919-.562-1.317-.772-1.322-.698-2.966-.867-4.424-1.077-2.826-.405-5.335-.78-8.064.216-2.56.933-5.217 1.73-7.822 2.578-1.364.444-2.177.855-3.325 1.655-.684.476-1.53.567-2.322.895-2.3.954-4.776 3.053-5.81 5.297-.528 1.146-1.268.867-1.943 1.699-.7.862-.423 2.104-1.28 2.993-.711.737-.961 1.491-1.697 2.241-.96.979-1.485 2.316-2.04 3.548-2.675 5.938-4.53 12.372-5.362 18.834-.412 3.2-.446 6.381-.19 9.595.24 3.02.117 6.273 1.129 9.166.1-.224.196-.45.287-.677.206.275.678.581.683.964.007.56-.363.868-.772.346.725 2.563 1.745 4.938 3.057 7.266.563.999.97 1.244 1.886 1.602.925.36.686.517 1.278 1.364.491.703.787.805 1.62.494.363-.136.38-.475.797-.392.303.06.732.765.934.965.383.38.733.758 1.282.892.648.159 1.005-.332 1.477-.276.985.118 1.457 1.073 2.51 1.217 1.062.146 1.562.184 2.57.586 1.427.568 2.978.763 4.505.738 1.233-.02 2.619-.097 3.805-.456.642-.194 1.136-.498 1.814-.584.577-.073 1.152.062 1.733-.07 1.206-.273 2.26-.773 3.514-.986 1.151-.197 2.24-.56 3.353-.905.664-.206 1.612-.693 2.016.118.482.968-.801 2.636-1.15 3.45l.682-.04c-.95.356-.895.345-1.35 1.304-.46.972-1.093 1.86-1.457 2.877-.837 2.337-1.111 4.941-1.627 7.365-1.115 5.243-2.273 10.307-1.974 15.704.26 4.689.68 9.708 4.029 13.307.693.744 1.473 1.451 1.96 2.358.489.908.662 1.858 1.314 2.693 1.26 1.609 3.323 2.936 5.319 3.398 2.25.522 4.716 1.046 7.024.732 2.242-.305 4.543-.624 6.765-1.058 4.844-.945 8.577-4.671 11.704-8.255 1.629-1.866 3.343-3.696 4.88-5.639.429-.541.903-1.594 1.593-1.849.858-.318 1.518.386 2.299.693 1.208.474 2.647.687 3.916.95.939.196 1.726.033 1.675 1.119-.046.99-1.298 2.604-1.75 3.501a562.185 562.185 0 00-1.815 3.647c-2.368 4.788-4.84 9.493-7.547 14.099-2.555 4.349-5.377 8.447-9.35 11.622-3.783 3.026-8.274 5.6-12.733 7.5-2.475 1.055-5.084 1.376-7.74 1.662-1.164.125-2.332.212-3.496.342-.498.056-1.022.18-1.522.18-.51-.002-1.041-.301-1.501-.287-.735.022-1.24.525-2.065.517-1.165-.011-2.352-.15-3.52-.196-2.641-.103-5.336-.164-7.94-.644-5.07-.932-8.347-3.939-11.99-7.338-1.548-1.445-3.237-2.909-4.626-4.51-.404-.466-.672-.692-.476-1.271.087-.258.523-.507.695-.723.492-.615 1.035-1.489 1.277-2.241.409-1.266-.611-4.069-2.371-3.524-1.195.369-1.345 2.256-2.505 2.71-1.032.403-1.273-.4-1.48-1.211-.27-1.051-.335-1.831-1.144-2.665-.747-.77-1.69-1.077-1.708-2.306-.006-.455.222-.879.18-1.341-.042-.48-.586-1.06-.526-1.51.127-.946 2.063-1.458 2.764-1.922 1.03-.682 1.937-1.515 2.756-2.437 1.911-2.151 3.431-4.712 4.744-7.262 2.214-4.301 4.04-9.233 3.548-14.149-.186-1.85-.703-3.796-1.947-5.228-1.936-2.231-4.498-1.823-7.159-1.823 2.117-4.015 5.127-9.896 2.15-14.24-2.413-3.524-7.154-1.574-10.443-.75.652-3.259 1.566-6.583.96-9.925-.39-2.153-1.387-4.83-3.57-5.743-2.464-1.03-5.53.483-7.574 1.826-2.448 1.606-4.56 3.924-6.3 6.263-.84 1.131-2.707 4.644-4.098 2.172-.449-.798-.546-1.825-.867-2.682-.589-1.573-1.361-2.732-2.335-4.044-.64-.862-.438-1.79-.966-2.734-.317-.569-.818-1.018-1.126-1.597-.39-.734-.518-1.55-.762-2.333-.428-1.376-1.268-2.432-1.969-3.663-.815-1.433-.752-3.038-1.325-4.55-1.361-3.584-3.299-7.009-4.883-10.5-1.332-2.935-2.706-5.858-5.474-7.71-.711 2.093-.577 3.358.11 5.453.68 2.076 1.37 4.15 2.146 6.194 1.48 3.896 3.282 7.652 4.992 11.45 1.724 3.827 3.16 7.77 4.854 11.61.825 1.865 1.675 3.72 2.497 5.587.585 1.33 2.2 3.607 1.356 5.018-.344.576-1.004 1.017-1.44 1.535-.618.736-1.117 1.55-1.659 2.342-1.08 1.576-2.247 3.087-3.36 4.639-2.353 3.279-4.48 6.764-6.636 10.175-4.332 6.853-6.534 15.348-5.49 23.394.55 4.238.458 8.515 1.06 12.753a89.208 89.208 0 002.7 12.444c1.08 3.7 3.338 7.226 3.105 11.153-.186 3.148-.266 6.311.331 9.428.244 1.277.608 2.545 1.21 3.702a8.46 8.46 0 001.1 1.653c.47.54 1.312.9 1.706 1.434.251.341.215.938.326 1.329.18.638.476 1.203.803 1.777.989 1.739 2.1 3.608 3.435 5.102 2.457 2.75 4.922 5.615 7.614 8.143 2.76 2.59 5.492 5.399 8.45 7.756.809.644 1.66 1.244 2.561 1.752.368.208.833.533 1.255.619.29.061.69-.064.947.022.684.226.05.045.69.641.553.513 1.083.61 1.769.951 3.803 1.895 7.195 4.298 11.236 5.684 4.422 1.515 8.925 3.21 13.561 3.923 2.038.314 6.937-.795 7.343 2.144 1.419-1.409 3.022-.249 4.59.147 0-.4-.292-1.462 0-1.776.375-.406 2.031.014 2.403.284.78.567 1.044 1.855 1.401 2.693.61 1.43 1.294 2.832 1.935 4.25 2.52 5.582 5.032 11.169 7.58 16.739 5.095 11.139 9.935 22.393 14.834 33.619 1.138 2.607 2.162 5.257 3.259 7.88.996 2.386 2.384 4.575 3.489 6.908 1.234 2.608 2.115 5.368 3.317 7.993 1.232 2.69 2.459 5.383 3.679 8.079 4.987 11.02 9.759 22.137 14.557 33.241 5.448 12.608 11.021 25.162 16.607 37.709-5.975 1.302-11.944 2.885-18.008 3.735-2.837.398-5.733.333-8.556.843-1.479.265-2.759.614-4.27.569a64.527 64.527 0 00-4.377.026c-5.864.22-11.923.143-17.735-.732-2.348-.353-4.93-1.053-7.15.16-1.94 1.061-2.53 3.043-2.88 5.092-3.871-.914-7.171-3.299-10.96-4.445-3.609-1.092-7.705-1.416-11.312-.148-3.626 1.275-7.564 3.108-10.658 5.4-3.195 2.364-5.435 5.713-7.399 9.113-2.179 3.773-4.118 7.678-6.264 11.47-2.215 3.912-4.42 7.787-6.299 11.877a132.299 132.299 0 00-8.715 25.673c-.759 3.328-1.174 6.926 1.046 9.817 2.293 2.988 6.021 3.019 9.336 1.932 1.832-.6 3.485-1.554 5.163-2.483 1.611-.892 3.239-1.608 4.656-2.805 3.053-2.58 6.432-4.827 9.53-7.383 5.85-4.822 12.358-8.498 17.154-14.501 2.421-3.029 5.51-5.933 7.228-9.454.543-1.114.888-3.393-.97-3.435-1.187-.027-2.283 1.447-3.007 2.221a84.471 84.471 0 01-10.869 9.798c-1.84 1.385-3.82 2.562-5.754 3.807-1.94 1.248-3.644 2.716-5.493 4.073-1.824 1.338-3.777 2.4-5.54 3.835a58.082 58.082 0 01-5.532 4.008c-3.884 2.47-7.832 5.011-12.268 6.373 0-3.024 1.685-5.535 2.648-8.276 1.012-2.877 1.844-5.66 3.09-8.469 1.338-3.015 2.678-6.027 4.1-9.002 1.34-2.802 3.035-5.413 4.37-8.216 1.212-2.548 3.011-4.654 4.072-7.221.547-1.324 1.477-2.471 2.175-3.716.774-1.378 1.484-2.791 2.274-4.161 3.078-5.332 7.333-8.881 12.812-11.653 2.963-1.5 6.244-2.387 9.569-2.481 3.817-.107 7.543.991 11.355.991-.12 2.401.189 5.205-.567 7.517-.27.818-.756 1.238-.616 2.07.056.332.497.676.575 1.101.11.6-.073 1.331-.104 1.941-.263 5.286-.151 10.562.126 15.843.09 1.718.092 4.071 1.843 5.051.746.418.87.2 1.587-.055 1.031-.366 1.69-.124 2.681.331.646.296 1.287.58 1.937.859.32.136.969.251 1.136.63.086.194-.085.64-.005.76.4.606.187.33 1.08.243 1.18-.113 1.855.34 2.877.94 8.822 5.187 19.264 5.707 29.21 6.858 5.241.607 10.382 1.526 15.675 1.617 5.253.089 10.542.142 15.774-.364 2.313-.223 4.618-.601 6.918-.921.765-.106 3.822-1.326 2.914.657-.392.854-1.564 1.381-2.225 1.994-.744.688-1.266 1.597-2.1 2.19-1.094.778-2.167 1.355-3.195 2.261-3.578 3.159-6.847 6.545-10.603 9.52-1.537 1.218-3.337 2.45-4.334 4.19-.986 1.719-1.003 3.957-.797 5.874.231 2.145 1.134 3.991 1.974 5.944 1.044 2.428 1.785 4.995 2.664 7.487.832 2.358 1.703 4.704 2.678 7.007.628 1.482 1.186 3.532 2.371 4.694.532.522 1.271.976 2.038.641.751-.328.793-1.211 1.327-1.698.767-.7 1.237-.193 2.195-.006 1.329.259 1.778-.364 2.929-.763.812-.283 1.639.066 2.469-.31.752-.34 1.243-1.082 1.956-1.483 1.906-1.068 4.891-.978 7.028-1.351 10.555-1.844 20.828-5.003 31.232-7.531 5.199-1.263 10.445-2.361 15.619-3.732a177.23 177.23 0 007.213-2.085c1.275-.395 2.596-.743 3.831-1.252 1.158-.477 2.137-1.112 3.396-1.286 2.385-.333 4.463-1.281 6.808-1.828 2.532-.59 4.885-1.703 7.367-2.45 2.518-.758 5.112-1.248 7.639-1.98 2.58-.748 5.085-1.728 7.667-2.47 4.997-1.433 10.19-2.189 15.049-4.11 1.002-.397 1.963-.926 3.026-1.146 1.295-.267 2.583-.237 3.874-.599 2.598-.725 5.091-1.726 7.712-2.393 4.959-1.262 9.955-2.427 14.899-3.731 4.688-1.236 9.503-1.803 14.254-2.821 5.166-1.107 10.339-2.227 15.482-3.437 2.356-.554 4.659-1.182 7.057-1.528 2.502-.362 4.749-1.441 7.248-1.791 9.94-1.391 19.806-2.967 29.579-5.271a940.46 940.46 0 0115.373-3.486c2.332-.508 4.904-.771 7.12-1.662 2.33-.937 4.64-1.152 7.027-1.864 5.002-1.493 10.196-2.135 15.265-3.375 4.966-1.215 10.078-2.05 14.986-3.46.913-.263 2.426-1.177 3.382-.884.74.227.891 1.058 1.47 1.452 1.578 1.073 3.252-1.012 4.274-2.016 1.457-1.432 2.922-1.967 4.591-2.977 2.052-1.24 4.023-3.412 5.623-5.196 6.644-7.414 15.727-11.786 22.909-18.632 3.698-3.526 7.015-7.287 10.272-11.215 1.513-1.823 3.169-3.521 4.845-5.194.917-.914 1.845-1.818 2.761-2.732.568-.565 1.538-2.08 2.355-2.265.759-.17 1.588.523 2.424.348.762-.161 1.314-.7 1.734-1.324 1.029-1.528 1.417-3.894.331-5.492z" fill="#011638"/><path fill-rule="evenodd" clip-rule="evenodd" d="M435.983 251.391c-.07-.009.019.003.05.008-.034-.038-.097-.015-.05-.008zM319.465 355.435c-.044-.004-.025.031-.011.013-.023.037.005-.003.011-.013zm-39.176-213.363c.561-.071 1.121-.143 1.682-.213-.833-.671-.993-.363-1.682.213zM107.07 261.939l-.699.137c.369.544.347.278.699-.137zm108.49-36.407a8.425 8.425 0 00-1.638 1.876l2.401-.463c-3.68 6.574-6.068 13.759-8.312 20.921-3.453-3.245-6.76-6.631-10.031-10.059-1.065-1.116-2.948-2.358-3.603-3.778-.297-.644-.191-1.047-.718-1.558-.638-.618-1.951-.871-2.748-1.212 7.958-2.901 16.397-3.994 24.649-5.727zm-28.984 6.901c.929-.282 2.143-1.107 3.141-.973 1.152.156 1.271 1.437 1.901 2.278 2.083 2.78 4.887 5.218 7.328 7.682 2.462 2.483 4.838 5.091 7.444 7.424.664.594 1.838 2.089 2.752 1.428.988-.715 1.483-3.477 1.906-4.615 1.226-3.306 2.228-6.707 3.637-9.943 1.431-3.284 3.047-6.531 4.654-9.732.43-.855 1.282-2.062.597-2.998-.807-1.104-2.539-.313-3.563-.022-3.477.99-7.088 1.585-10.639 2.237-3.894.716-7.679 1.829-11.451 3.019a232.602 232.602 0 00-5.398 1.755c-1.493.511-3.24.968-4.209 2.323.683.249 1.188.354 1.9.137zm48.348-14.323c4.935-1.612 10.007-2.946 15.18-3.493 2.61-.275 5.241-.252 7.861-.235 1.867.011 4.557-.144 2.999-2.631-1.137-1.814-3.541-3.041-5.133-4.442-1.67-1.472-2.768-3.336-3.849-5.254-1.246-2.218-2.57-4.39-3.778-6.629-.899-1.667-1.622-4.069-3.438-4.949 1.372 4.657 4.126 8.754 6.563 12.9 1.102 1.874 2.232 3.936 3.889 5.389 1.314 1.154 3.51 1.892 4.106 3.689-4.838 0-9.743.09-14.538.788-4.054.592-8.272 3.106-12.392 2.767 2.46-5.589 5.303-10.966 7.984-16.446.971-1.983 2.024-4.133 2.515-6.309.471-2.08-.678-1.179-1.337.112a1158.07 1158.07 0 01-7.328 14.122 65.088 65.088 0 00-1.921 3.928c-.561 1.261-1.419 2.682-1.465 4.101-.075 2.302 2.088 3.244 4.082 2.592zm-75.689 54.935c4.718-1.267 9.268-3.129 14.064-4.111 4.374-.895 9.383-.432 13.501-2.269-1.389-2.604-4.226-3.193-6.328-5.163-2.282-2.139-4.204-4.801-6.151-7.239-2.026-2.537-3.665-5.292-5.567-7.911-1.04-1.431-3.065-4.447-5.097-4.345-1.064.053-1.774 1.206-.974 2.1.584.654 1.879.525 2.637.929 2.3 1.226 3.517 4.396 4.985 6.434 1.917 2.659 4.035 5.191 6.139 7.703 2.313 2.763 4.838 4.79 7.799 6.814-9.012.116-17.752 2.645-26.245 5.449 1.478-4.391 2.179-8.995 2.828-13.567.321-2.271.624-4.544.833-6.828.185-2.012.608-4.298.11-6.291-1.305 2.268-1.319 5.097-1.6 7.628-.34 3.067-.664 6.151-1.22 9.187-.528 2.885-1.471 5.676-2.017 8.546-.339 1.785.082 3.53 2.303 2.934zm156.77 15.432c.762 3.982.63 8.062 1.451 12.042.4 1.941.844 3.873 1.304 5.8.334 1.397 1.031 3.424.482 4.851-.948 2.465-5.405-2.531-6.377-3.289-3.308-2.577-6.564-5.221-9.828-7.852l12.968-11.552zM301.3 301.039c4.358 3.839 9.4 6.885 13.599 10.881 1.297 1.235 3.755 4.274 5.419 2.09 1.549-2.03.473-5.721-.023-7.925a76.766 76.766 0 01-1.454-8.815c-.16-1.514-.258-3.034-.374-4.552-.114-1.484-.494-3.005-.475-4.49.006-.449.021-.985.276-1.378.236-.367.774-.46.971-.787.619-1.028-.443-1.141-1.254-1.13-1.105.015-1.385.174-2.049 1.028-.771.99-1.68 1.678-2.672 2.439-2.646 2.029-5.299 4.056-7.835 6.225-1.335 1.142-6.41 4.403-4.129 6.414zm-5.064-61.956c.069 5.517 1.064 11.029 3.084 16.171-5.82-1.196-11.045-4.17-16.088-7.191l13.004-8.98zm-13.517 11.377c2.637 1.514 5.242 3.267 8.023 4.502 2.41 1.07 5.035 1.447 7.5 2.345 1.372.5 4.312 1.947 3.544-.844-.281-1.026-.925-1.96-1.346-2.932a25.368 25.368 0 01-1.444-4.457c-.689-3.033-.902-6.194-.995-9.296-.07-2.368 1.746-3.833 4.022-4.421.748-.192 2.43-.836.839-1.655-.86-.443-2.179.305-2.95.677-2.585 1.251-4.876 3.006-7.264 4.58-2.999 1.977-6.058 3.861-9.059 5.837-.942.619-2.212 1.291-2.528 2.465-.361 1.337.543 2.56 1.658 3.199zm-102.437 41.556c-4.232-1.439-8.646-2.216-13.04-2.977 3.056-4.005 6.535-7.677 10.274-11.048 2.97 5.245 5.905 10.58 7.684 16.368-1.633-.793-3.192-1.756-4.918-2.343zm5.27-.482c-1.055-2.532-2.02-5.105-3.224-7.573a32.647 32.647 0 00-1.684-3.078c-.372-.591-1.05-1.31-1.141-2.024-.1-.789.293-.871.063-1.658-.258-.886-.727-1.572-1.732-1.402-1.857.313-4.087 2.797-5.389 4.023a76.973 76.973 0 00-5.655 5.911c-1.732 2.019-1.95 4.152.666 5.523 2.134 1.119 4.86 1.118 7.202 1.444 2.661.371 5.339.884 7.721 2.19 1.01.554 3.369 2.9 4.079.903.442-1.246-.431-3.117-.906-4.259zm26.79-33.862c-2.665 5.556-5.158 11.19-7.413 16.925-1.022 2.599-2.09 5.205-2.926 7.871-.238.757-1.058 4.927.832 3.335.613-.516 1.379-1.718 1.677-2.417.477-1.118.056-2.199.465-3.35.966-2.723 2.102-5.41 3.129-8.115 1.038-2.733 2.085-5.462 3.14-8.188.881-2.275 2.859-4.887 2.202-7.445-.368.452-.848.848-1.106 1.384zM315.97 421.459c-.055-.031-.111-.063-.168-.087.057.024.113.056.168.087zm81.841-34.909c-14.123.701-28.057 4.362-41.75 7.656-13.843 3.331-27.578 7.215-41.078 11.745-6.697 2.248-13.352 4.616-20.035 6.905-5.659 1.938-11.926 3.831-16.886 7.278-1.413.981-3.694 3.204-1.575 4.695 1.326.933 3.916 1.212 5.516 1.285 1.514.068 3.05-.341 4.585-.323 1.878.023 3.75.112 5.627-.02 3.49-.246 6.99-.93 10.41-1.653 3.718-.785 7.324-1.817 11.116-2.188 1.406-.139 2.475-.564 3.806-.992 1.468-.473 3.14-.373 4.579-.922.595-.227.992-.725 1.593-.926.732-.245 1.559-.003 2.311-.047 1.798-.107 3.667-.699 5.429-1.064 1.897-.392 3.792-.79 5.686-1.195 1.486-.317 2.963-.504 4.143-1.54-1.433-1.16-2.3-.888-4.032-.413-1.942.531-3.931.925-5.893 1.378-3.979.919-7.937 1.936-11.934 2.772-8.138 1.702-16.254 2.972-24.529 3.722-2.034.184-4.08.322-6.102.618-1.953.285-3.448.538-5.413.136-1.586-.325-3.014-.397-1.261-1.85.545-.451 1.172-.717 1.748-1.101.716-.477.742-.896 1.188-1.561.798-1.188 2.353-.869 3.65-.927 1.486-.068 2.725-.997 4.197-1.428 1.616-.472 2.96-.585 4.417-1.468.634-.385.599-.29 1.272-.287.841.002 1.479-.211 2.262-.587 1.514-.728 2.623-1.421 4.305-1.361.951.034 1.29-.269 2.163-.72.936-.482 1.829-.673 2.864-.802 2.171-.27 4.189-.702 6.215-1.565.897-.382 1.683-.948 2.563-1.344.127-.057 1.613-.281 1.638-.305.146-.145-.116-.869.479-.926.534-.05.744.543 1.331.443.25-.042.206-.385.403-.474.39-.175.601-.246 1.037-.252 1.763-.024 2.685-.35 4.307-1.122.723-.343 1.381-.535 2.152-.743.817-.221 1.064-.591 1.745-.958 1.161-.625 1.361.698 2.586.431.598-.131 1.063-.621 1.586-.905.705-.384 1.265-.402 2.052-.496 1.51-.18 2.832-.89 4.316-1.145.62-.107 1.147-.37 1.754-.508.804-.184 1.634-.01 2.428-.288 1.316-.459 1.893-1.376 3.317-1.372 1.722.006 3.212-.592 4.837-1.187 1.75-.641 3.464-1.462 5.327-1.712 1.734-.233 3.467-.198 5.179-.605 1.719-.408 3.36-1.079 5.033-1.634 1.816-.603 3.614-.846 5.487-1.182 1.594-.286 3.321-.356 4.88-.733.691-.167 1.262-.582 1.942-.755.793-.201 1.5-.138 2.282-.488.693-.31 1.29-.864 2.07-.96.948-.117 1.803.093 2.778-.12.89-.193 1.564-.149 2.428-.197.699-.039 1.122-.448 1.913-.715 1.678-.568 3.578-.292 5.315-.611 1.716-.316 3.601-.676 5.07-1.678-1.894-1.327-4.681-.816-6.829-.709z" fill="#011638"/><path fill-rule="evenodd" clip-rule="evenodd" d="M364.933 404.368c-5.491-.369-10.91.579-16.345 1.186-4.446.496-9.228.565-13.26 2.741 5.035-.337 10.096-.489 15.099-1.186 4.543-.632 9.246-2.051 13.818-.832-2.071 1.621-4.688 2.169-7.13 2.976-3.054 1.009-6.081 2.1-9.127 3.129 1.134 1.464 3.943-.182 5.316-.584a69.931 69.931 0 006.456-2.206c1.83-.733 3.815-1.269 5.543-2.226 1.964-1.087 2.115-2.831-.37-2.998zm-99.44-57.583c-.702-1.544-2.764-2.524-3.826-3.877-1.527-1.947-3.05-3.875-4.648-5.766-1.491-1.763-2.851-3.597-3.971-5.621-1.214-2.192-2.004-4.599-3.31-6.741-.396.781-.874 1.736-.729 2.643.139.878.836 1.336 1.318 2.02 1.214 1.718 1.831 3.859 3.042 5.632 2.605 3.811 5.762 7.205 8.672 10.779l-21.129 2.797c1.609-4.611 3.526-9.132 5.062-13.761.735-2.212 1.309-4.463 1.901-6.716.466-1.773 1.197-3.927-.162-5.507-.817 2.817-1.375 5.692-2.377 8.456-.987 2.725-2.169 5.383-3.253 8.072-1.059 2.624-5.574 11.349-.021 11.852 2.332.211 4.936-.458 7.226-.814 2.891-.45 5.779-.945 8.681-1.313 1.099-.139 8.603.24 7.524-2.135zm-45.907 17.023c-1.863-2.131-3.794-4.201-5.7-6.294-1.279 1.327-.847 1.803.397 3.049 1.147 1.15 2.385 2.225 3.489 3.418 1.105 1.196.932 1.774-.246 2.784-1.301 1.115-2.71 2.111-4.036 3.197-2.726 2.231-5.442 4.478-8.216 6.651-2.252 1.765-4.916 4.543-7.721 5.355l-2.142-11.21c-1.351.321-1.61.649-1.379 2.069.287 1.776.84 3.51 1.185 5.276.292 1.503.919 3.172.67 4.716-.107.658-.566 1.28-.581 1.948-.016.779.496 1.229.829 1.894 5.433-3.545 10.56-7.542 15.582-11.642 2.382-1.944 4.696-3.984 7.132-5.86.751-.578 1.766-1.101 1.987-2.108.237-1.079-.573-2.468-1.25-3.243zm16.475-58.46c-6.631 1.256-13.337 2.05-20.026 2.92 1.413 2.439 3.816 1.776 6.131 1.452 3.403-.474 6.851-.861 10.276-1.126.247 6.037.817 12.095.784 18.14-.008 1.502-.085 3.513-1.853 3.942-2.477.602-5.848-1.026-8.189-1.703.495.809-.24 1.604.584 2.3.523.441 1.452.5 2.088.706 1.977.636 3.984 1.558 6.117 1.097 3.149-.68 2.698-4.327 2.634-6.8-.124-4.754-.631-9.59-.386-14.342.098-1.88.865-2.619 2.274-3.719.531-.414 1.157-.805 1.185-1.557.033-.887-.785-1.468-1.619-1.31zM11.552 143.116c-.153.076-.098.082-.13.259.101-.002.144-.088.13-.259zm128.66 242.66c-1.235-.742-1.74.655-2.243 1.515-.993 1.696-2.007 3.382-3.005 5.076-.677-1.473-.836-3.084-1.02-4.673-.092-.79.028-3.458-1.339-2.701-1.168.648-.278 2.645-.12 3.614.252 1.546.422 3.146.926 4.637 1.097 3.244 3.051 1.22 4.272-.722.942-1.498 1.972-2.943 2.888-4.457.64-1.057.803-1.59-.359-2.289zm16.867 26.385c-2.133 2.444-4.226 4.923-6.337 7.386 3.03-.142 3.97-1.776 5.835-3.816.617-.674 1.511-1.796 2.481-1.95.743-.118.522-.212 1.054.638.363.578.77 1.137 1.168 1.692.373.521 1.678 2.208 2.32.782.3-.666-1.201-2.166-1.577-2.7-1.156-1.641-2.93-4.338-4.944-2.032zm66.404-316.837c.889 3.583 4.226.915 5.483-.716 1.813-2.354 2.891-5.343 3.459-8.237.235-1.198.418-2.7-.12-3.85-.623-1.335-1.796-1.038-2.595-.05-.983 1.217-1.359 3.066-1.948 4.49-.662 1.597-1.403 3.177-2.349 4.627-.768-.818-1.944-1.71-2.413-.182-.361 1.182.199 2.773.483 3.918zm-5.565-7.456c1.621-.146 4.127-1.225 4.712-2.894 1.131-3.23-3.726-1.714-5.189-1.523.074-1.166.96-4.835-.653-5.416-1.211-.435-1.842 2.06-2.01 2.874-.472 2.291-.27 7.265 3.14 6.96zm-6.515 6.797c-.033 1.124 1.948 6.556 3.756 4.402.829-.988-.135-1.723-.708-2.47-.913-1.192-1.328-2.682-2.182-3.92-.269.556-.866 1.355-.866 1.988zm74.723 51.447c-.606.688-1.164 1.255-.71 2.169.207.419 1.025 1.392 1.603 1.229.54-.151.492-.926.374-1.341-.243-.857-1.101-1.06-.651-2.086l-.616.029zm-100.981-4.986a.703.703 0 00.154.323c.717-.635-.107-.624-.154-.323zM56.13 198.042l-.202-.328c-.224.204-.227.411-.007.622l.209-.294z" fill="#011638"/></svg>
