<svg xmlns="http://www.w3.org/2000/svg" width="24px" height="24px" viewBox="0 0 24 24"><defs><linearGradient id="icon-checkmark-gradient"><stop stop-color="#00A5FF" offset="0%"></stop><stop stop-color="#006CFF" offset="100%"></stop></linearGradient></defs><g transform="translate(-553 -612) translate(275 514) translate(276 31) translate(2 67)" stroke="none" stroke-width="1" fill="none" fill-rule="evenodd"><g fill-rule="nonzero"><circle fill-opacity="0.040638" fill="#006CFF" cx="12" cy="12" r="12"></circle><path d="M18.425 7.425l-1.716-1.353a.305.305 0 00-.193-.075.3.3 0 00-.197.078l-6.24 8.019s-2.454-2.36-2.523-2.428c-.069-.07-.16-.185-.297-.185-.137 0-.2.097-.272.169-.053.056-.928.975-1.359 1.431l-.062.066a.308.308 0 00-.063.178.3.3 0 00.063.178l.087.081s4.353 4.182 4.425 4.253c.072.072.16.163.288.163.125 0 .228-.134.287-.194l7.784-10a.31.31 0 00.063-.181.322.322 0 00-.075-.2z" fill="#006CFF"></path></g></g></svg>