<svg width="159" height="124" viewBox="0 0 159 124" fill="none" xmlns="http://www.w3.org/2000/svg">
<path d="M17.88 41.19C17.55 42.35 17.24 43.48 16.98 44.56C16.65 45.92 16.34 47.15 16.06 48.26C15.79 49.34 15.59 50.22 15.49 50.85C15.27 51.98 14.53 52.69 13.35 52.92C12.33 53.12 11.24 53.04 10.12 52.67C9.01004 52.31 8.00004 51.68 7.12004 50.8C6.19004 49.88 5.72004 48.72 5.72004 47.35C5.72004 46.24 6.00004 44.48 6.57004 41.98C7.13004 39.54 7.93004 36.65 8.96004 33.38C9.98004 30.14 11.22 26.57 12.65 22.77C13.87 19.5 15.24 16.22 16.73 12.97C17.22 11.91 18.22 11.18 19.38 11.04C22.01 10.73 24.29 10.81 26.22 11.27C27.38 11.54 28.01 12.81 27.52 13.9C26.27 16.68 25.13 19.46 24.1 22.16C23.27 24.35 22.47 26.52 21.72 28.62C21.65 28.83 21.86 29.02 22.06 28.93C23.06 28.47 24.05 27.92 25.02 27.3C26.6 26.28 28.05 25.07 29.31 23.69C30.57 22.31 31.6 20.76 32.38 19.07C33.15 17.4 33.54 15.58 33.54 13.67C33.54 11.21 32.86 9.38999 31.51 8.26999C30.15 7.12999 28.23 6.56 25.81 6.56C23.23 6.56 20.88 7.16997 18.81 8.37997C16.69 9.61997 14.85 11.14 13.35 12.9C11.84 14.67 10.65 16.57 9.82004 18.54C8.99004 20.49 8.57004 22.2 8.57004 23.62C8.57004 24.64 8.03004 25.38 7.05004 25.69C6.19004 25.97 5.25004 25.93 4.28004 25.57C3.35004 25.22 2.48004 24.54 1.71004 23.53C0.930041 22.52 0.540039 21.16 0.540039 19.47C0.540039 18 1.10004 16.27 2.24004 14.17C3.36004 12.13 5.01004 10.14 7.14004 8.26999C9.27004 6.39999 11.97 4.77 15.15 3.44C18.35 2.1 22.05 1.41998 26.14 1.41998C28.47 1.41998 30.81 1.68998 33.09 2.22998C35.39 2.76998 37.47 3.6 39.28 4.69C41.11 5.79 42.61 7.16999 43.75 8.79999C44.9 10.45 45.49 12.4 45.49 14.57C45.49 16.91 44.98 19.1 43.96 21.09C42.95 23.06 41.57 24.86 39.85 26.43C38.15 27.99 36.13 29.37 33.85 30.53C31.97 31.48 29.97 32.3 27.89 32.95C27.76 32.99 27.71 33.06 27.72 33.2C27.77 34.24 27.84 35.26 27.94 36.24C28.06 37.37 28.21 38.47 28.4 39.52C28.59 40.55 28.81 41.55 29.07 42.5C29.27 43.23 29.49 43.95 29.73 44.62C29.88 45.05 30.04 45.47 30.2 45.87C30.52 46.67 30.88 47.43 31.26 48.14C31.63 48.84 32.04 49.5 32.46 50.1C32.87 50.69 33.32 51.25 33.78 51.76C34.23 52.25 34.71 52.71 35.2 53.11C35.68 53.5 36.18 53.86 36.7 54.17C37.2 54.47 37.73 54.73 38.27 54.95C38.8 55.16 39.35 55.33 39.9 55.46C40.45 55.58 41.02 55.66 41.6 55.7C42.17 55.74 42.77 55.73 43.37 55.67C43.98 55.62 44.59 55.52 45.21 55.37C45.84 55.22 46.48 55.02 47.12 54.78C47.77 54.53 48.44 54.23 49.09 53.89C49.34 53.76 49.59 53.62 49.84 53.48C50.65 53.01 51.69 53.23 52.24 54C52.79 54.77 52.67 55.82 51.96 56.44C51.61 56.74 51.26 57.04 50.92 57.33C50.08 58.02 49.24 58.65 48.42 59.22C47.64 59.76 46.85 60.26 46.06 60.71C45.67 60.93 45.26 61.16 44.84 61.37C44.04 61.78 43.22 62.14 42.42 62.44C41.62 62.74 40.82 62.99 40.03 63.18C39.25 63.37 38.46 63.51 37.69 63.59C37.14 63.65 36.59 63.67 36.06 63.67C35.84 63.67 35.63 63.67 35.41 63.66C34.67 63.63 33.93 63.54 33.21 63.4C32.85 63.33 32.5 63.25 32.15 63.15C31.81 63.06 31.46 62.95 31.12 62.82C30.45 62.58 29.79 62.28 29.16 61.93C28.54 61.59 27.93 61.19 27.35 60.76C26.88 60.41 26.42 60.02 25.99 59.61C25.46 59.11 24.95 58.57 24.47 57.98C23.99 57.4 23.54 56.78 23.11 56.12C22.68 55.47 22.28 54.77 21.91 54.05C21.54 53.33 21.19 52.57 20.87 51.78C20.55 51 20.26 50.17 19.99 49.32C19.73 48.48 19.49 47.59 19.27 46.67C19.06 45.75 18.87 44.8 18.72 43.85C18.58 43 18.47 42.12 18.38 41.23C18.33 40.96 17.95 40.93 17.88 41.19Z" fill="#FD6250"/>
<path d="M157.65 6.95999C157.65 10.8 154.53 13.92 150.69 13.92C146.85 13.92 143.73 10.81 143.73 6.95999C143.73 3.11999 146.85 0 150.69 0C154.53 0 157.65 3.11999 157.65 6.95999Z" fill="#FD6250"/>
<path d="M156.09 35.02C155.75 34.49 155.1 34.15 154.43 34.15C153.79 34.15 153.22 34.45 152.86 34.97C152.45 35.57 151.94 36.28 151.35 37.08C150.7 37.96 150 38.8 149.27 39.58C148.54 40.36 147.83 41.04 147.16 41.59C146.47 42.17 146.02 42.29 145.76 42.29C145.58 42.29 145.25 42.29 145.18 41.41C145.1 40.49 145.24 39.3 145.58 37.87C145.93 36.4 146.45 34.76 147.1 33.01C147.77 31.23 148.44 29.52 149.1 27.94C149.78 26.3 150.37 24.94 150.89 23.77C151.41 22.61 151.74 21.86 151.86 21.53C152.28 20.58 152.12 19.63 151.42 18.81C150.77 18.05 149.91 17.52 148.85 17.23C147.82 16.95 146.69 16.93 145.51 17.18C144.25 17.45 143.25 18.18 142.55 19.34C141.92 20.36 141.11 21.97 140.13 24.11C139.15 26.26 138.2 28.65 137.31 31.21C136.77 32.76 136.27 34.34 135.82 35.93C135.07 38.57 133.53 40.92 131.4 42.66C130.64 43.28 129.84 43.87 129.01 44.41C128.64 44.65 128.27 44.87 127.9 45.08C127.78 45.14 127.66 45 127.74 44.9C128.38 44.05 129.01 43.14 129.63 42.16C130.9 40.15 132.06 37.74 133.07 35C134.14 32.1 134.81 29.45 135.07 27.14C135.33 24.79 135.24 22.75 134.8 21.06C134.35 19.31 133.57 17.94 132.47 16.98C131.33 15.98 129.93 15.48 128.3 15.48C126.38 15.48 124.61 15.99 123.04 16.99C121.97 17.68 120.98 18.44 120.09 19.28C120.02 19.35 119.95 19.34 119.9 19.26C119.7 18.94 119.43 18.64 119.1 18.36C118.34 17.73 117.43 17.31 116.39 17.11C115.34 16.91 114.28 16.98 113.24 17.32C112.13 17.68 111.3 18.44 110.78 19.56C109.78 21.72 108.72 24.24 107.63 27.06C106.55 29.87 105.49 32.8 104.49 35.79C104.38 36.12 104.27 36.45 104.16 36.78C103.31 39.32 101.73 41.55 99.5999 43.19C99.0399 43.62 98.4599 44.03 97.8599 44.42C97.4899 44.66 97.1199 44.88 96.7499 45.09C96.6299 45.15 96.5098 45.01 96.5898 44.91C97.2298 44.06 97.8598 43.15 98.4798 42.17C99.7498 40.16 100.91 37.75 101.92 35.01C102.99 32.11 103.66 29.46 103.92 27.15C104.18 24.8 104.09 22.76 103.65 21.07C103.2 19.32 102.42 17.95 101.32 16.99C100.18 15.99 98.7799 15.49 97.1499 15.49C95.2199 15.49 93.4599 16 91.8899 17C90.8199 17.69 89.8299 18.45 88.9399 19.29C88.8699 19.36 88.7999 19.35 88.7499 19.27C88.5499 18.95 88.2799 18.65 87.9399 18.38C87.1799 17.75 86.2699 17.33 85.2199 17.13C84.1699 16.93 83.1099 17 82.0699 17.34C80.9599 17.7 80.1299 18.46 79.6099 19.58C78.6099 21.74 77.5499 24.27 76.4599 27.08C75.4399 29.72 74.4499 32.46 73.5099 35.23C72.7999 37.32 71.7399 39 70.1599 40.54C69.7499 40.94 69.3499 41.3 68.9699 41.62C68.2799 42.2 67.8299 42.32 67.5699 42.32C67.3899 42.32 67.0599 42.32 66.9899 41.44C66.9099 40.53 67.0499 39.33 67.3899 37.9C67.7399 36.43 68.2599 34.79 68.9099 33.04C69.5699 31.27 70.2399 29.57 70.9099 27.97C71.5799 26.36 72.1799 24.96 72.6999 23.8C73.2299 22.62 73.5499 21.88 73.6699 21.56C74.0899 20.61 73.9399 19.66 73.2299 18.84C72.5799 18.08 71.6999 17.55 70.6099 17.26C69.5499 16.98 68.4199 16.96 67.2799 17.21C66.0499 17.48 65.0699 18.21 64.3599 19.37C64.2199 19.6 64.0699 19.85 63.9099 20.14C63.8499 20.24 63.6999 20.22 63.6799 20.11C63.5499 19.48 63.3299 18.88 63.0299 18.32C62.5799 17.49 61.9299 16.81 61.0699 16.29C60.1999 15.77 59.0999 15.5 57.7899 15.5C54.7099 15.5 51.5899 16.92 48.5099 19.72C45.4899 22.47 42.9799 26.86 41.0599 32.77C40.1599 35.62 39.6299 38.25 39.4899 40.6C39.3499 42.97 39.5399 45.02 40.0599 46.69C40.5999 48.41 41.4499 49.76 42.5999 50.72C43.7899 51.71 45.2099 52.21 46.8399 52.21C48.0399 52.21 49.1899 52 50.2499 51.59C51.2799 51.19 52.2299 50.68 53.0799 50.07C53.7399 49.6 54.3499 49.07 54.8999 48.49C55.2999 48.07 55.9899 48.24 56.1499 48.79C56.3299 49.41 56.5899 49.95 56.9099 50.43C57.7099 51.61 58.9899 52.2 60.6899 52.2C62.5799 52.2 64.4899 51.49 66.3599 50.09C67.2299 49.44 68.0899 48.73 68.9199 47.97C69.1099 47.8 69.3999 47.98 69.3299 48.22C68.8499 49.83 68.4099 51.32 68.0199 52.71C67.3599 55.06 66.8299 57.08 66.4299 58.72C65.8999 60.92 65.8299 61.52 65.8299 61.8C65.8299 63.15 66.2499 64.3 67.0799 65.22C67.8799 66.1 68.7999 66.74 69.8399 67.11C70.5199 67.35 71.1799 67.47 71.8099 67.47C72.1599 67.47 72.4999 67.43 72.8299 67.36C73.5699 67.19 74.5098 66.7 74.7799 65.3V65.27C74.8899 64.53 75.0999 63.54 75.3999 62.31C75.7099 61.03 76.0899 59.58 76.5299 57.99C76.9599 56.41 77.4499 54.65 78.0299 52.61C78.2999 51.67 78.5899 50.68 78.8899 49.65C78.9499 49.44 79.2299 49.41 79.3399 49.6C79.4799 49.83 79.6299 50.06 79.7899 50.29C80.7299 51.55 82.2299 52.19 84.2499 52.19C84.6599 52.21 85.0599 52.22 85.4599 52.22C88.4299 52.22 91.2099 51.71 93.7399 50.71C96.1599 49.75 98.3698 48.58 100.34 47.23C100.53 47.1 100.79 47.28 100.72 47.51C100.15 49.37 99.6399 51.12 99.1899 52.72C98.5299 55.08 97.9899 57.11 97.5999 58.73C97.0699 60.93 96.9999 61.53 96.9999 61.8C96.9999 63.15 97.4199 64.3 98.2499 65.22C99.0499 66.11 99.9799 66.74 101.01 67.11C101.69 67.35 102.35 67.47 102.97 67.47C103.32 67.47 103.66 67.43 103.99 67.36C104.73 67.19 105.66 66.7 105.94 65.3V65.27C106.05 64.53 106.26 63.54 106.56 62.31C106.87 61.03 107.25 59.58 107.68 57.99C108.11 56.4 108.6 54.64 109.18 52.61C109.45 51.66 109.74 50.68 110.04 49.65C110.1 49.44 110.38 49.41 110.49 49.6C110.63 49.84 110.78 50.06 110.94 50.29C111.88 51.55 113.38 52.19 115.4 52.19C115.81 52.21 116.21 52.22 116.61 52.22C119.58 52.22 122.36 51.71 124.89 50.71C127.72 49.59 130.28 48.17 132.49 46.51C132.87 46.23 133.23 45.94 133.59 45.65C133.75 45.52 134 45.64 133.99 45.85C133.99 45.94 133.99 46.04 133.99 46.13C133.99 47.9 134.36 49.35 135.1 50.42C135.9 51.6 137.18 52.19 138.88 52.19C140.77 52.19 142.69 51.48 144.59 50.09C146.4 48.77 148.11 47.2 149.67 45.43C151.21 43.69 152.56 41.96 153.69 40.28C154.83 38.58 155.6 37.42 156.04 36.73C156.41 36.16 156.42 35.54 156.09 35.02ZM59.8199 25.97C59.6899 27.21 59.4199 28.63 59.0399 30.19C58.6599 31.74 58.1299 33.38 57.4799 35.05C56.8299 36.72 56.1299 38.28 55.4199 39.71C54.7199 41.1 53.9999 42.29 53.2999 43.24C52.6199 44.16 51.9799 44.85 51.3899 45.29C50.9599 45.61 50.7199 45.65 50.6399 45.65C50.5999 45.65 50.5699 45.64 50.5399 45.63C50.4599 45.59 50.1899 45.41 50.0499 44.56C49.9199 43.78 49.9099 42.78 50.0099 41.58C50.1199 40.36 50.3699 38.96 50.7499 37.41C51.1299 35.86 51.6599 34.23 52.3099 32.55C52.9699 30.86 53.6699 29.3 54.3799 27.89C55.0799 26.5 55.7899 25.3 56.4999 24.32C57.1799 23.38 57.8199 22.68 58.3999 22.24C58.8299 21.92 59.0699 21.88 59.1499 21.88C59.1899 21.88 59.2199 21.89 59.2499 21.9C59.3299 21.94 59.6099 22.13 59.7899 22.99C59.9399 23.74 59.9499 24.75 59.8199 25.97ZM93.5199 26.04C93.2999 27.26 92.9599 28.67 92.4899 30.23C92.0199 31.79 91.4199 33.43 90.7199 35.09C89.9499 36.77 89.1599 38.34 88.3599 39.75C87.5699 41.15 86.7898 42.35 86.0299 43.33C85.2898 44.28 84.6099 44.98 83.9999 45.42C83.5399 45.75 83.2899 45.78 83.1999 45.78C83.1599 45.78 83.1299 45.77 83.0899 45.76C83.0099 45.73 82.7599 45.55 82.6399 44.71C82.5399 43.95 82.5899 42.94 82.7999 41.72C83.0199 40.47 83.3599 39.05 83.8299 37.49C84.2899 35.94 84.8899 34.3 85.5999 32.62C86.3099 30.94 87.0799 29.38 87.8999 27.98C88.7199 26.57 89.5199 25.38 90.2699 24.44C91.0099 23.52 91.6898 22.82 92.3098 22.38C92.7698 22.05 93.0299 22.02 93.1099 22.02C93.1499 22.02 93.1899 22.03 93.2199 22.04C93.2999 22.07 93.5498 22.25 93.6698 23.09C93.7898 23.86 93.7299 24.85 93.5199 26.04ZM124.68 26.04C124.46 27.26 124.12 28.67 123.65 30.23C123.18 31.78 122.59 33.42 121.88 35.09C121.11 36.77 120.32 38.34 119.52 39.75C118.73 41.15 117.95 42.35 117.19 43.33C116.45 44.28 115.77 44.98 115.16 45.42C114.7 45.75 114.45 45.78 114.36 45.78C114.32 45.78 114.29 45.77 114.25 45.76C114.17 45.73 113.92 45.55 113.81 44.71C113.71 43.94 113.76 42.94 113.97 41.72C114.19 40.46 114.53 39.04 115 37.49C115.46 35.94 116.06 34.3 116.77 32.62C117.48 30.95 118.25 29.39 119.07 27.98C119.89 26.58 120.69 25.38 121.44 24.44C122.17 23.52 122.86 22.83 123.47 22.38C123.93 22.05 124.19 22.02 124.27 22.02C124.31 22.02 124.35 22.03 124.38 22.04C124.46 22.07 124.71 22.25 124.83 23.09C124.94 23.86 124.89 24.85 124.68 26.04Z" fill="#FD6250"/>
<path d="M156.13 89.83C147.81 97.12 140.42 97.57 131.56 91.05C127.48 88.05 123.83 84.48 119.75 81.5C116.59 79.19 113.24 76.9 109.64 75.48C103.4 73.01 97.06 73.85 91.36 77.31C87.49 79.66 83.96 82.6 80.36 85.39C79.85 85.78 79.48 85.99 79.09 85.97C78.71 85.99 78.33 85.77 77.83 85.39C74.24 82.59 70.71 79.66 66.83 77.31C61.13 73.84 54.79 73 48.55 75.48C44.94 76.9 41.6 79.2 38.44 81.5C34.35 84.48 30.7 88.05 26.63 91.05C17.76 97.58 10.38 97.12 2.06 89.83C1.37 89.23 0.69 88.63 0 88.03C1.24 94.89 3.91 101.04 7.86 106.62C12.89 113.74 19.49 118.84 27.78 121.64C47.15 128.19 71.61 119.06 79.1 101.84C86.59 119.07 111.06 128.19 130.42 121.64C138.71 118.84 145.31 113.74 150.34 106.62C154.28 101.04 156.96 94.89 158.2 88.03C157.5 88.62 156.82 89.22 156.13 89.83Z" fill="#FD6250"/>
</svg>
